<svg xmlns="http://www.w3.org/2000/svg" xmlns:xlink="http://www.w3.org/1999/xlink" width="600" zoomAndPan="magnify" viewBox="0 0 450 157.5" height="210" preserveAspectRatio="xMidYMid meet" version="1.0"><defs><g/><clipPath id="1196c3bde7"><path d="M 75.863281 36.347656 L 92.3125 36.347656 L 92.3125 52.792969 L 75.863281 52.792969 Z M 75.863281 36.347656 " clip-rule="nonzero"/></clipPath><clipPath id="556f6fab4c"><path d="M 84.257812 36.347656 C 79.621094 36.347656 75.863281 40.105469 75.863281 44.738281 C 75.863281 49.375 79.621094 53.132812 84.257812 53.132812 C 88.894531 53.132812 92.652344 49.375 92.652344 44.738281 C 92.652344 40.105469 88.894531 36.347656 84.257812 36.347656 Z M 84.257812 36.347656 " clip-rule="nonzero"/></clipPath><clipPath id="1978fe22ba"><path d="M 86.492188 71.449219 L 102.9375 71.449219 L 102.9375 87.894531 L 86.492188 87.894531 Z M 86.492188 71.449219 " clip-rule="nonzero"/></clipPath><clipPath id="d9b5017674"><path d="M 94.882812 71.449219 C 90.25 71.449219 86.492188 75.207031 86.492188 79.84375 C 86.492188 84.476562 90.25 88.234375 94.882812 88.234375 C 99.519531 88.234375 103.277344 84.476562 103.277344 79.84375 C 103.277344 75.207031 99.519531 71.449219 94.882812 71.449219 Z M 94.882812 71.449219 " clip-rule="nonzero"/></clipPath><clipPath id="d34a3a3161"><path d="M 75 102 L 93 102 L 93 120 L 75 120 Z M 75 102 " clip-rule="nonzero"/></clipPath><clipPath id="6642c3b7fe"><path d="M 96.078125 111.039062 L 84.449219 122.671875 L 72.816406 111.039062 L 84.449219 99.410156 Z M 96.078125 111.039062 " clip-rule="nonzero"/></clipPath><clipPath id="3771bdb3c0"><path d="M 96.078125 111.039062 L 84.207031 122.910156 L 72.339844 111.039062 L 84.207031 99.171875 Z M 96.078125 111.039062 " clip-rule="nonzero"/></clipPath><clipPath id="96f1460d1d"><path d="M 90.144531 116.976562 C 93.421875 113.695312 93.421875 108.382812 90.144531 105.105469 C 86.867188 101.828125 81.550781 101.828125 78.273438 105.105469 C 74.996094 108.382812 74.996094 113.695312 78.273438 116.976562 C 81.550781 120.253906 86.867188 120.253906 90.144531 116.976562 Z M 90.144531 116.976562 " clip-rule="nonzero"/></clipPath><clipPath id="c4cf4c1a11"><path d="M 74.929688 36.757812 L 91.378906 36.757812 L 91.378906 53.207031 L 74.929688 53.207031 Z M 74.929688 36.757812 " clip-rule="nonzero"/></clipPath><clipPath id="91ed423f3d"><path d="M 83.324219 36.757812 C 78.6875 36.757812 74.929688 40.515625 74.929688 45.152344 C 74.929688 49.785156 78.6875 53.542969 83.324219 53.542969 C 87.960938 53.542969 91.71875 49.785156 91.71875 45.152344 C 91.71875 40.515625 87.960938 36.757812 83.324219 36.757812 Z M 83.324219 36.757812 " clip-rule="nonzero"/></clipPath><clipPath id="fd01bba1f5"><path d="M 85.558594 71.859375 L 102.003906 71.859375 L 102.003906 88.308594 L 85.558594 88.308594 Z M 85.558594 71.859375 " clip-rule="nonzero"/></clipPath><clipPath id="189de316bd"><path d="M 93.949219 71.859375 C 89.316406 71.859375 85.558594 75.617188 85.558594 80.253906 C 85.558594 84.890625 89.316406 88.648438 93.949219 88.648438 C 98.585938 88.648438 102.34375 84.890625 102.34375 80.253906 C 102.34375 75.617188 98.585938 71.859375 93.949219 71.859375 Z M 93.949219 71.859375 " clip-rule="nonzero"/></clipPath><clipPath id="f6ef4cfd09"><path d="M 74 103 L 92 103 L 92 120 L 74 120 Z M 74 103 " clip-rule="nonzero"/></clipPath><clipPath id="4091526acb"><path d="M 95.144531 111.453125 L 83.515625 123.082031 L 71.882812 111.453125 L 83.515625 99.820312 Z M 95.144531 111.453125 " clip-rule="nonzero"/></clipPath><clipPath id="a71f70f0b9"><path d="M 95.144531 111.453125 L 83.273438 123.320312 L 71.40625 111.453125 L 83.273438 99.582031 Z M 95.144531 111.453125 " clip-rule="nonzero"/></clipPath><clipPath id="4be085a464"><path d="M 89.210938 117.386719 C 92.488281 114.109375 92.488281 108.792969 89.210938 105.515625 C 85.933594 102.238281 80.617188 102.238281 77.339844 105.515625 C 74.0625 108.792969 74.0625 114.109375 77.339844 117.386719 C 80.617188 120.664062 85.933594 120.664062 89.210938 117.386719 Z M 89.210938 117.386719 " clip-rule="nonzero"/></clipPath><clipPath id="f8bb98173f"><path d="M 16.414062 33.667969 L 64.261719 33.667969 L 64.261719 121.140625 L 16.414062 121.140625 Z M 16.414062 33.667969 " clip-rule="nonzero"/></clipPath><clipPath id="52c0372b4c"><path d="M 19.371094 42.1875 L 58.996094 42.1875 L 58.996094 115.453125 L 19.371094 115.453125 Z M 19.371094 42.1875 " clip-rule="nonzero"/></clipPath><clipPath id="13bdbff20b"><path d="M 21.058594 49.378906 L 56.195312 49.378906 L 56.195312 113.675781 L 21.058594 113.675781 Z M 21.058594 49.378906 " clip-rule="nonzero"/></clipPath></defs><g fill="#737373" fill-opacity="0.2"><g transform="translate(115.97824, 100.144187)"><g><path d="M 11.578125 -29.15625 L 11.578125 -9.25 C 11.578125 -7.601562 11.925781 -6.441406 12.625 -5.765625 C 13.332031 -5.085938 14.546875 -4.75 16.265625 -4.75 L 20.390625 -4.75 L 20.390625 0 L 15.34375 0 C 12.21875 0 9.875 -0.71875 8.3125 -2.15625 C 6.757812 -3.59375 5.984375 -5.957031 5.984375 -9.25 L 5.984375 -29.15625 L 1.609375 -29.15625 L 1.609375 -33.765625 L 5.984375 -33.765625 L 5.984375 -42.28125 L 11.578125 -42.28125 L 11.578125 -33.765625 L 20.390625 -33.765625 L 20.390625 -29.15625 Z M 11.578125 -29.15625 "/></g></g></g><g fill="#737373" fill-opacity="0.2"><g transform="translate(138.408178, 100.144187)"><g><path d="M 35.5625 -18.171875 C 35.5625 -17.109375 35.5 -15.984375 35.375 -14.796875 L 8.375 -14.796875 C 8.582031 -11.460938 9.722656 -8.859375 11.796875 -6.984375 C 13.867188 -5.117188 16.382812 -4.1875 19.34375 -4.1875 C 21.769531 -4.1875 23.796875 -4.75 25.421875 -5.875 C 27.046875 -7.007812 28.1875 -8.523438 28.84375 -10.421875 L 34.875 -10.421875 C 33.976562 -7.171875 32.171875 -4.53125 29.453125 -2.5 C 26.742188 -0.46875 23.375 0.546875 19.34375 0.546875 C 16.144531 0.546875 13.28125 -0.171875 10.75 -1.609375 C 8.226562 -3.046875 6.25 -5.085938 4.8125 -7.734375 C 3.375 -10.378906 2.65625 -13.453125 2.65625 -16.953125 C 2.65625 -20.441406 3.351562 -23.5 4.75 -26.125 C 6.144531 -28.757812 8.101562 -30.785156 10.625 -32.203125 C 13.15625 -33.617188 16.0625 -34.328125 19.34375 -34.328125 C 22.550781 -34.328125 25.382812 -33.628906 27.84375 -32.234375 C 30.3125 -30.835938 32.210938 -28.914062 33.546875 -26.46875 C 34.890625 -24.019531 35.5625 -21.253906 35.5625 -18.171875 Z M 29.765625 -19.34375 C 29.765625 -21.488281 29.289062 -23.328125 28.34375 -24.859375 C 27.40625 -26.398438 26.125 -27.570312 24.5 -28.375 C 22.875 -29.175781 21.078125 -29.578125 19.109375 -29.578125 C 16.273438 -29.578125 13.859375 -28.671875 11.859375 -26.859375 C 9.867188 -25.054688 8.726562 -22.550781 8.4375 -19.34375 Z M 29.765625 -19.34375 "/></g></g></g><g fill="#737373" fill-opacity="0.2"><g transform="translate(176.613017, 100.144187)"><g><path d="M 21.203125 -34.390625 C 25.304688 -34.390625 28.628906 -33.144531 31.171875 -30.65625 C 33.722656 -28.175781 35 -24.59375 35 -19.90625 L 35 0 L 29.453125 0 L 29.453125 -19.109375 C 29.453125 -22.472656 28.609375 -25.046875 26.921875 -26.828125 C 25.242188 -28.617188 22.945312 -29.515625 20.03125 -29.515625 C 17.070312 -29.515625 14.71875 -28.585938 12.96875 -26.734375 C 11.226562 -24.890625 10.359375 -22.203125 10.359375 -18.671875 L 10.359375 0 L 4.75 0 L 4.75 -33.765625 L 10.359375 -33.765625 L 10.359375 -28.96875 C 11.460938 -30.6875 12.96875 -32.019531 14.875 -32.96875 C 16.789062 -33.914062 18.898438 -34.390625 21.203125 -34.390625 Z M 21.203125 -34.390625 "/></g></g></g><g fill="#737373" fill-opacity="0.2"><g transform="translate(216.050272, 100.144187)"><g><path d="M 16.703125 0.546875 C 14.109375 0.546875 11.785156 0.109375 9.734375 -0.765625 C 7.679688 -1.648438 6.054688 -2.882812 4.859375 -4.46875 C 3.671875 -6.050781 3.015625 -7.867188 2.890625 -9.921875 L 8.6875 -9.921875 C 8.851562 -8.234375 9.644531 -6.851562 11.0625 -5.78125 C 12.476562 -4.71875 14.335938 -4.1875 16.640625 -4.1875 C 18.773438 -4.1875 20.457031 -4.660156 21.6875 -5.609375 C 22.925781 -6.554688 23.546875 -7.75 23.546875 -9.1875 C 23.546875 -10.664062 22.882812 -11.765625 21.5625 -12.484375 C 20.25 -13.203125 18.21875 -13.910156 15.46875 -14.609375 C 12.957031 -15.265625 10.910156 -15.929688 9.328125 -16.609375 C 7.753906 -17.285156 6.398438 -18.289062 5.265625 -19.625 C 4.140625 -20.957031 3.578125 -22.710938 3.578125 -24.890625 C 3.578125 -26.617188 4.085938 -28.203125 5.109375 -29.640625 C 6.140625 -31.078125 7.597656 -32.21875 9.484375 -33.0625 C 11.378906 -33.90625 13.535156 -34.328125 15.953125 -34.328125 C 19.691406 -34.328125 22.710938 -33.378906 25.015625 -31.484375 C 27.316406 -29.597656 28.550781 -27.007812 28.71875 -23.71875 L 23.109375 -23.71875 C 22.984375 -25.488281 22.273438 -26.90625 20.984375 -27.96875 C 19.691406 -29.039062 17.957031 -29.578125 15.78125 -29.578125 C 13.757812 -29.578125 12.15625 -29.144531 10.96875 -28.28125 C 9.78125 -27.414062 9.1875 -26.285156 9.1875 -24.890625 C 9.1875 -23.785156 9.546875 -22.875 10.265625 -22.15625 C 10.984375 -21.4375 11.882812 -20.859375 12.96875 -20.421875 C 14.0625 -19.992188 15.570312 -19.515625 17.5 -18.984375 C 19.925781 -18.328125 21.898438 -17.675781 23.421875 -17.03125 C 24.941406 -16.394531 26.242188 -15.441406 27.328125 -14.171875 C 28.421875 -12.898438 28.988281 -11.238281 29.03125 -9.1875 C 29.03125 -7.332031 28.515625 -5.664062 27.484375 -4.1875 C 26.453125 -2.707031 25.003906 -1.546875 23.140625 -0.703125 C 21.273438 0.128906 19.128906 0.546875 16.703125 0.546875 Z M 16.703125 0.546875 "/></g></g></g><g fill="#737373" fill-opacity="0.2"><g transform="translate(248.216284, 100.144187)"><g><path d="M 19.46875 0.546875 C 16.3125 0.546875 13.445312 -0.171875 10.875 -1.609375 C 8.3125 -3.046875 6.300781 -5.085938 4.84375 -7.734375 C 3.382812 -10.378906 2.65625 -13.453125 2.65625 -16.953125 C 2.65625 -20.398438 3.40625 -23.445312 4.90625 -26.09375 C 6.40625 -28.75 8.445312 -30.785156 11.03125 -32.203125 C 13.613281 -33.617188 16.507812 -34.328125 19.71875 -34.328125 C 22.925781 -34.328125 25.820312 -33.617188 28.40625 -32.203125 C 31 -30.785156 33.046875 -28.757812 34.546875 -26.125 C 36.046875 -23.5 36.796875 -20.441406 36.796875 -16.953125 C 36.796875 -13.453125 36.023438 -10.378906 34.484375 -7.734375 C 32.941406 -5.085938 30.851562 -3.046875 28.21875 -1.609375 C 25.59375 -0.171875 22.675781 0.546875 19.46875 0.546875 Z M 19.46875 -4.375 C 21.488281 -4.375 23.378906 -4.84375 25.140625 -5.78125 C 26.910156 -6.726562 28.335938 -8.144531 29.421875 -10.03125 C 30.515625 -11.925781 31.0625 -14.234375 31.0625 -16.953125 C 31.0625 -19.660156 30.523438 -21.957031 29.453125 -23.84375 C 28.390625 -25.738281 26.992188 -27.144531 25.265625 -28.0625 C 23.535156 -28.988281 21.664062 -29.453125 19.65625 -29.453125 C 17.601562 -29.453125 15.722656 -28.988281 14.015625 -28.0625 C 12.316406 -27.144531 10.953125 -25.738281 9.921875 -23.84375 C 8.890625 -21.957031 8.375 -19.660156 8.375 -16.953125 C 8.375 -14.191406 8.878906 -11.867188 9.890625 -9.984375 C 10.898438 -8.097656 12.242188 -6.691406 13.921875 -5.765625 C 15.609375 -4.835938 17.457031 -4.375 19.46875 -4.375 Z M 19.46875 -4.375 "/></g></g></g><g fill="#737373" fill-opacity="0.2"><g transform="translate(287.653539, 100.144187)"><g><path d="M 10.359375 -28.28125 C 11.335938 -30.21875 12.738281 -31.71875 14.5625 -32.78125 C 16.394531 -33.851562 18.628906 -34.390625 21.265625 -34.390625 L 21.265625 -28.59375 L 19.78125 -28.59375 C 13.5 -28.59375 10.359375 -25.179688 10.359375 -18.359375 L 10.359375 0 L 4.75 0 L 4.75 -33.765625 L 10.359375 -33.765625 Z M 10.359375 -28.28125 "/></g></g></g><g fill="#737373" fill-opacity="0.2"><g transform="translate(310.638059, 100.144187)"><g><path d="M 10.359375 -45.609375 L 10.359375 0 L 4.75 0 L 4.75 -45.609375 Z M 10.359375 -45.609375 "/></g></g></g><g fill="#737373" fill-opacity="0.2"><g transform="translate(325.796753, 100.144187)"><g><path d="M 7.640625 -39.25 C 6.578125 -39.25 5.675781 -39.617188 4.9375 -40.359375 C 4.195312 -41.097656 3.828125 -42.003906 3.828125 -43.078125 C 3.828125 -44.140625 4.195312 -45.039062 4.9375 -45.78125 C 5.675781 -46.519531 6.578125 -46.890625 7.640625 -46.890625 C 8.671875 -46.890625 9.546875 -46.519531 10.265625 -45.78125 C 10.984375 -45.039062 11.34375 -44.140625 11.34375 -43.078125 C 11.34375 -42.003906 10.984375 -41.097656 10.265625 -40.359375 C 9.546875 -39.617188 8.671875 -39.25 7.640625 -39.25 Z M 10.359375 -33.765625 L 10.359375 0 L 4.75 0 L 4.75 -33.765625 Z M 10.359375 -33.765625 "/></g></g></g><g fill="#737373" fill-opacity="0.2"><g transform="translate(340.955447, 100.144187)"><g><path d="M 21.203125 -34.390625 C 25.304688 -34.390625 28.628906 -33.144531 31.171875 -30.65625 C 33.722656 -28.175781 35 -24.59375 35 -19.90625 L 35 0 L 29.453125 0 L 29.453125 -19.109375 C 29.453125 -22.472656 28.609375 -25.046875 26.921875 -26.828125 C 25.242188 -28.617188 22.945312 -29.515625 20.03125 -29.515625 C 17.070312 -29.515625 14.71875 -28.585938 12.96875 -26.734375 C 11.226562 -24.890625 10.359375 -22.203125 10.359375 -18.671875 L 10.359375 0 L 4.75 0 L 4.75 -33.765625 L 10.359375 -33.765625 L 10.359375 -28.96875 C 11.460938 -30.6875 12.96875 -32.019531 14.875 -32.96875 C 16.789062 -33.914062 18.898438 -34.390625 21.203125 -34.390625 Z M 21.203125 -34.390625 "/></g></g></g><g fill="#737373" fill-opacity="0.2"><g transform="translate(380.392702, 100.144187)"><g><path d="M 23.609375 0 L 10.359375 -14.90625 L 10.359375 0 L 4.75 0 L 4.75 -45.609375 L 10.359375 -45.609375 L 10.359375 -18.796875 L 23.359375 -33.765625 L 31.1875 -33.765625 L 15.28125 -16.953125 L 31.25 0 Z M 23.609375 0 "/></g></g></g><g fill="#000000" fill-opacity="1"><g transform="translate(114.99822, 100.756573)"><g><path d="M 11.578125 -29.15625 L 11.578125 -9.25 C 11.578125 -7.601562 11.925781 -6.441406 12.625 -5.765625 C 13.332031 -5.085938 14.546875 -4.75 16.265625 -4.75 L 20.390625 -4.75 L 20.390625 0 L 15.34375 0 C 12.21875 0 9.875 -0.71875 8.3125 -2.15625 C 6.757812 -3.59375 5.984375 -5.957031 5.984375 -9.25 L 5.984375 -29.15625 L 1.609375 -29.15625 L 1.609375 -33.765625 L 5.984375 -33.765625 L 5.984375 -42.28125 L 11.578125 -42.28125 L 11.578125 -33.765625 L 20.390625 -33.765625 L 20.390625 -29.15625 Z M 11.578125 -29.15625 "/></g></g></g><g fill="#000000" fill-opacity="1"><g transform="translate(137.428158, 100.756573)"><g><path d="M 35.5625 -18.171875 C 35.5625 -17.109375 35.5 -15.984375 35.375 -14.796875 L 8.375 -14.796875 C 8.582031 -11.460938 9.722656 -8.859375 11.796875 -6.984375 C 13.867188 -5.117188 16.382812 -4.1875 19.34375 -4.1875 C 21.769531 -4.1875 23.796875 -4.75 25.421875 -5.875 C 27.046875 -7.007812 28.1875 -8.523438 28.84375 -10.421875 L 34.875 -10.421875 C 33.976562 -7.171875 32.171875 -4.53125 29.453125 -2.5 C 26.742188 -0.46875 23.375 0.546875 19.34375 0.546875 C 16.144531 0.546875 13.28125 -0.171875 10.75 -1.609375 C 8.226562 -3.046875 6.25 -5.085938 4.8125 -7.734375 C 3.375 -10.378906 2.65625 -13.453125 2.65625 -16.953125 C 2.65625 -20.441406 3.351562 -23.5 4.75 -26.125 C 6.144531 -28.757812 8.101562 -30.785156 10.625 -32.203125 C 13.15625 -33.617188 16.0625 -34.328125 19.34375 -34.328125 C 22.550781 -34.328125 25.382812 -33.628906 27.84375 -32.234375 C 30.3125 -30.835938 32.210938 -28.914062 33.546875 -26.46875 C 34.890625 -24.019531 35.5625 -21.253906 35.5625 -18.171875 Z M 29.765625 -19.34375 C 29.765625 -21.488281 29.289062 -23.328125 28.34375 -24.859375 C 27.40625 -26.398438 26.125 -27.570312 24.5 -28.375 C 22.875 -29.175781 21.078125 -29.578125 19.109375 -29.578125 C 16.273438 -29.578125 13.859375 -28.671875 11.859375 -26.859375 C 9.867188 -25.054688 8.726562 -22.550781 8.4375 -19.34375 Z M 29.765625 -19.34375 "/></g></g></g><g fill="#000000" fill-opacity="1"><g transform="translate(175.632997, 100.756573)"><g><path d="M 21.203125 -34.390625 C 25.304688 -34.390625 28.628906 -33.144531 31.171875 -30.65625 C 33.722656 -28.175781 35 -24.59375 35 -19.90625 L 35 0 L 29.453125 0 L 29.453125 -19.109375 C 29.453125 -22.472656 28.609375 -25.046875 26.921875 -26.828125 C 25.242188 -28.617188 22.945312 -29.515625 20.03125 -29.515625 C 17.070312 -29.515625 14.71875 -28.585938 12.96875 -26.734375 C 11.226562 -24.890625 10.359375 -22.203125 10.359375 -18.671875 L 10.359375 0 L 4.75 0 L 4.75 -33.765625 L 10.359375 -33.765625 L 10.359375 -28.96875 C 11.460938 -30.6875 12.96875 -32.019531 14.875 -32.96875 C 16.789062 -33.914062 18.898438 -34.390625 21.203125 -34.390625 Z M 21.203125 -34.390625 "/></g></g></g><g fill="#000000" fill-opacity="1"><g transform="translate(215.070252, 100.756573)"><g><path d="M 16.703125 0.546875 C 14.109375 0.546875 11.785156 0.109375 9.734375 -0.765625 C 7.679688 -1.648438 6.054688 -2.882812 4.859375 -4.46875 C 3.671875 -6.050781 3.015625 -7.867188 2.890625 -9.921875 L 8.6875 -9.921875 C 8.851562 -8.234375 9.644531 -6.851562 11.0625 -5.78125 C 12.476562 -4.71875 14.335938 -4.1875 16.640625 -4.1875 C 18.773438 -4.1875 20.457031 -4.660156 21.6875 -5.609375 C 22.925781 -6.554688 23.546875 -7.75 23.546875 -9.1875 C 23.546875 -10.664062 22.882812 -11.765625 21.5625 -12.484375 C 20.25 -13.203125 18.21875 -13.910156 15.46875 -14.609375 C 12.957031 -15.265625 10.910156 -15.929688 9.328125 -16.609375 C 7.753906 -17.285156 6.398438 -18.289062 5.265625 -19.625 C 4.140625 -20.957031 3.578125 -22.710938 3.578125 -24.890625 C 3.578125 -26.617188 4.085938 -28.203125 5.109375 -29.640625 C 6.140625 -31.078125 7.597656 -32.21875 9.484375 -33.0625 C 11.378906 -33.90625 13.535156 -34.328125 15.953125 -34.328125 C 19.691406 -34.328125 22.710938 -33.378906 25.015625 -31.484375 C 27.316406 -29.597656 28.550781 -27.007812 28.71875 -23.71875 L 23.109375 -23.71875 C 22.984375 -25.488281 22.273438 -26.90625 20.984375 -27.96875 C 19.691406 -29.039062 17.957031 -29.578125 15.78125 -29.578125 C 13.757812 -29.578125 12.15625 -29.144531 10.96875 -28.28125 C 9.78125 -27.414062 9.1875 -26.285156 9.1875 -24.890625 C 9.1875 -23.785156 9.546875 -22.875 10.265625 -22.15625 C 10.984375 -21.4375 11.882812 -20.859375 12.96875 -20.421875 C 14.0625 -19.992188 15.570312 -19.515625 17.5 -18.984375 C 19.925781 -18.328125 21.898438 -17.675781 23.421875 -17.03125 C 24.941406 -16.394531 26.242188 -15.441406 27.328125 -14.171875 C 28.421875 -12.898438 28.988281 -11.238281 29.03125 -9.1875 C 29.03125 -7.332031 28.515625 -5.664062 27.484375 -4.1875 C 26.453125 -2.707031 25.003906 -1.546875 23.140625 -0.703125 C 21.273438 0.128906 19.128906 0.546875 16.703125 0.546875 Z M 16.703125 0.546875 "/></g></g></g><g fill="#000000" fill-opacity="1"><g transform="translate(247.236264, 100.756573)"><g><path d="M 19.46875 0.546875 C 16.3125 0.546875 13.445312 -0.171875 10.875 -1.609375 C 8.3125 -3.046875 6.300781 -5.085938 4.84375 -7.734375 C 3.382812 -10.378906 2.65625 -13.453125 2.65625 -16.953125 C 2.65625 -20.398438 3.40625 -23.445312 4.90625 -26.09375 C 6.40625 -28.75 8.445312 -30.785156 11.03125 -32.203125 C 13.613281 -33.617188 16.507812 -34.328125 19.71875 -34.328125 C 22.925781 -34.328125 25.820312 -33.617188 28.40625 -32.203125 C 31 -30.785156 33.046875 -28.757812 34.546875 -26.125 C 36.046875 -23.5 36.796875 -20.441406 36.796875 -16.953125 C 36.796875 -13.453125 36.023438 -10.378906 34.484375 -7.734375 C 32.941406 -5.085938 30.851562 -3.046875 28.21875 -1.609375 C 25.59375 -0.171875 22.675781 0.546875 19.46875 0.546875 Z M 19.46875 -4.375 C 21.488281 -4.375 23.378906 -4.84375 25.140625 -5.78125 C 26.910156 -6.726562 28.335938 -8.144531 29.421875 -10.03125 C 30.515625 -11.925781 31.0625 -14.234375 31.0625 -16.953125 C 31.0625 -19.660156 30.523438 -21.957031 29.453125 -23.84375 C 28.390625 -25.738281 26.992188 -27.144531 25.265625 -28.0625 C 23.535156 -28.988281 21.664062 -29.453125 19.65625 -29.453125 C 17.601562 -29.453125 15.722656 -28.988281 14.015625 -28.0625 C 12.316406 -27.144531 10.953125 -25.738281 9.921875 -23.84375 C 8.890625 -21.957031 8.375 -19.660156 8.375 -16.953125 C 8.375 -14.191406 8.878906 -11.867188 9.890625 -9.984375 C 10.898438 -8.097656 12.242188 -6.691406 13.921875 -5.765625 C 15.609375 -4.835938 17.457031 -4.375 19.46875 -4.375 Z M 19.46875 -4.375 "/></g></g></g><g fill="#000000" fill-opacity="1"><g transform="translate(286.673519, 100.756573)"><g><path d="M 10.359375 -28.28125 C 11.335938 -30.21875 12.738281 -31.71875 14.5625 -32.78125 C 16.394531 -33.851562 18.628906 -34.390625 21.265625 -34.390625 L 21.265625 -28.59375 L 19.78125 -28.59375 C 13.5 -28.59375 10.359375 -25.179688 10.359375 -18.359375 L 10.359375 0 L 4.75 0 L 4.75 -33.765625 L 10.359375 -33.765625 Z M 10.359375 -28.28125 "/></g></g></g><g fill="#000000" fill-opacity="1"><g transform="translate(309.658039, 100.756573)"><g><path d="M 10.359375 -45.609375 L 10.359375 0 L 4.75 0 L 4.75 -45.609375 Z M 10.359375 -45.609375 "/></g></g></g><g fill="#000000" fill-opacity="1"><g transform="translate(324.816733, 100.756573)"><g><path d="M 7.640625 -39.25 C 6.578125 -39.25 5.675781 -39.617188 4.9375 -40.359375 C 4.195312 -41.097656 3.828125 -42.003906 3.828125 -43.078125 C 3.828125 -44.140625 4.195312 -45.039062 4.9375 -45.78125 C 5.675781 -46.519531 6.578125 -46.890625 7.640625 -46.890625 C 8.671875 -46.890625 9.546875 -46.519531 10.265625 -45.78125 C 10.984375 -45.039062 11.34375 -44.140625 11.34375 -43.078125 C 11.34375 -42.003906 10.984375 -41.097656 10.265625 -40.359375 C 9.546875 -39.617188 8.671875 -39.25 7.640625 -39.25 Z M 10.359375 -33.765625 L 10.359375 0 L 4.75 0 L 4.75 -33.765625 Z M 10.359375 -33.765625 "/></g></g></g><g fill="#000000" fill-opacity="1"><g transform="translate(339.975427, 100.756573)"><g><path d="M 21.203125 -34.390625 C 25.304688 -34.390625 28.628906 -33.144531 31.171875 -30.65625 C 33.722656 -28.175781 35 -24.59375 35 -19.90625 L 35 0 L 29.453125 0 L 29.453125 -19.109375 C 29.453125 -22.472656 28.609375 -25.046875 26.921875 -26.828125 C 25.242188 -28.617188 22.945312 -29.515625 20.03125 -29.515625 C 17.070312 -29.515625 14.71875 -28.585938 12.96875 -26.734375 C 11.226562 -24.890625 10.359375 -22.203125 10.359375 -18.671875 L 10.359375 0 L 4.75 0 L 4.75 -33.765625 L 10.359375 -33.765625 L 10.359375 -28.96875 C 11.460938 -30.6875 12.96875 -32.019531 14.875 -32.96875 C 16.789062 -33.914062 18.898438 -34.390625 21.203125 -34.390625 Z M 21.203125 -34.390625 "/></g></g></g><g fill="#000000" fill-opacity="1"><g transform="translate(379.412682, 100.756573)"><g><path d="M 23.609375 0 L 10.359375 -14.90625 L 10.359375 0 L 4.75 0 L 4.75 -45.609375 L 10.359375 -45.609375 L 10.359375 -18.796875 L 23.359375 -33.765625 L 31.1875 -33.765625 L 15.28125 -16.953125 L 31.25 0 Z M 23.609375 0 "/></g></g></g><g clip-path="url(#1196c3bde7)"><g clip-path="url(#556f6fab4c)"><path stroke-linecap="butt" transform="matrix(0.747627, 0, 0, 0.747627, 75.864279, 36.34602)" fill="none" stroke-linejoin="miter" d="M 11.226907 0.00218922 C 5.024989 0.00218922 -0.00133428 5.028512 -0.00133428 11.225206 C -0.00133428 17.427124 5.024989 22.453447 11.226907 22.453447 C 17.428825 22.453447 22.455148 17.427124 22.455148 11.225206 C 22.455148 5.028512 17.428825 0.00218922 11.226907 0.00218922 Z M 11.226907 0.00218922 " stroke="#545454" stroke-width="14" stroke-opacity="1" stroke-miterlimit="4"/></g></g><g clip-path="url(#1978fe22ba)"><g clip-path="url(#d9b5017674)"><path stroke-linecap="butt" transform="matrix(0.747627, 0, 0, 0.747627, 86.491169, 71.448653)" fill="none" stroke-linejoin="miter" d="M 11.224378 0.000756871 C 5.027685 0.000756871 0.00136179 5.02708 0.00136179 11.228998 C 0.00136179 17.425691 5.027685 22.452014 11.224378 22.452014 C 17.426296 22.452014 22.452619 17.425691 22.452619 11.228998 C 22.452619 5.02708 17.426296 0.000756871 11.224378 0.000756871 Z M 11.224378 0.000756871 " stroke="#545454" stroke-width="12" stroke-opacity="1" stroke-miterlimit="4"/></g></g><g clip-path="url(#d34a3a3161)"><g clip-path="url(#6642c3b7fe)"><g clip-path="url(#3771bdb3c0)"><g clip-path="url(#96f1460d1d)"><path stroke-linecap="butt" transform="matrix(-0.528652, 0.528652, -0.528652, -0.528652, 96.078479, 111.039931)" fill="none" stroke-linejoin="miter" d="M 11.227219 -0.00253856 C 5.024087 0.00115598 -0.000486952 5.02573 -0.000486952 11.225167 C -0.000486952 17.424604 5.027781 22.452873 11.227219 22.452873 C 17.426656 22.452873 22.45123 17.428299 22.454924 11.225167 C 22.454924 5.02573 17.426656 -0.00253856 11.227219 -0.00253856 Z M 11.227219 -0.00253856 " stroke="#545454" stroke-width="12" stroke-opacity="1" stroke-miterlimit="4"/></g></g></g></g><path stroke-linecap="butt" transform="matrix(0.747627, 0, 0, 0.747627, 54.594012, 109.615558)" fill="none" stroke-linejoin="miter" d="M 32.184837 3.084852 L 3.040523 3.084852 C 3.019624 3.084852 2.998724 3.063953 2.998724 3.043053 C 2.998724 3.016929 3.019624 3.001254 3.040523 3.001254 L 11.191317 3.001254 " stroke="#545454" stroke-width="6" stroke-opacity="1" stroke-miterlimit="4"/><path stroke-linecap="butt" transform="matrix(0.747627, 0, 0, 0.747627, 61.543156, 43.254608)" fill="none" stroke-linejoin="miter" d="M 22.095716 2.998136 L 16.280438 2.998136 C 13.067144 2.998136 10.46516 5.605345 10.46516 8.818639 L 10.46516 16.410372 C 10.46516 19.299724 8.119194 21.640465 5.229842 21.640465 L -0.000250557 21.640465 " stroke="#545454" stroke-width="6" stroke-opacity="1" stroke-miterlimit="4"/><path stroke-linecap="butt" transform="matrix(0.747627, 0, 0, 0.747627, 60.851966, 71.767108)" fill="none" stroke-linejoin="miter" d="M 36.061498 12.020437 L 23.594963 12.020437 C 21.107926 12.020437 19.085902 9.998413 19.085902 7.511376 C 19.085902 5.019114 17.069103 3.002315 14.576841 3.002315 L -0.000540183 3.002315 " stroke="#545454" stroke-width="6" stroke-opacity="1" stroke-miterlimit="4"/><path stroke-linecap="butt" transform="matrix(0.747627, 0, 0, 0.747627, 81.005423, 52.797406)" fill="none" stroke-linejoin="miter" d="M 17.914043 29.389171 L 17.914043 19.237253 C 17.914043 15.919462 15.228461 13.23388 11.915895 13.23388 L 9.000419 13.23388 C 5.687852 13.23388 3.00227 10.548298 3.00227 7.235731 L 3.00227 -0.000710755 " stroke="#545454" stroke-width="6" stroke-opacity="1" stroke-miterlimit="4"/><path stroke-linecap="butt" transform="matrix(0.747627, 0, 0, 0.747627, 57.734122, 84.431297)" fill="none" stroke-linejoin="miter" d="M 2.999413 -0.00215256 L 2.999413 5.954197 C 2.999413 9.240639 5.664095 11.905321 8.950537 11.905321 L 24.912509 11.905321 C 28.225075 11.905321 30.915882 14.590904 30.915882 17.90347 L 30.915882 30.140111 " stroke="#545454" stroke-width="6" stroke-opacity="1" stroke-miterlimit="4"/><path stroke-linecap="butt" transform="matrix(0.747627, 0, 0, 0.747627, 83.759119, 87.000883)" fill="none" stroke-linejoin="miter" d="M 3.002551 26.076134 L 3.002551 16.734071 C 3.002551 13.625274 5.515712 11.106888 8.624509 11.106888 L 8.692432 11.106888 C 11.75943 11.106888 14.246467 8.619851 14.246467 5.552853 L 14.246467 -0.00118145 " stroke="#545454" stroke-width="6" stroke-opacity="1" stroke-miterlimit="4"/><g clip-path="url(#c4cf4c1a11)"><g clip-path="url(#91ed423f3d)"><path stroke-linecap="butt" transform="matrix(0.747627, 0, 0, 0.747627, 74.930856, 36.757316)" fill="none" stroke-linejoin="miter" d="M 11.226679 0.000663713 C 5.02476 0.000663713 -0.00156252 5.026987 -0.00156252 11.228905 C -0.00156252 17.425598 5.02476 22.451921 11.226679 22.451921 C 17.428597 22.451921 22.45492 17.425598 22.45492 11.228905 C 22.45492 5.026987 17.428597 0.000663713 11.226679 0.000663713 Z M 11.226679 0.000663713 " stroke="#ff3131" stroke-width="12" stroke-opacity="1" stroke-miterlimit="4"/></g></g><g clip-path="url(#fd01bba1f5)"><g clip-path="url(#189de316bd)"><path stroke-linecap="butt" transform="matrix(0.747627, 0, 0, 0.747627, 85.557746, 71.859948)" fill="none" stroke-linejoin="miter" d="M 11.22415 -0.000766395 C 5.027457 -0.000766395 0.00113355 5.025557 0.00113355 11.227475 C 0.00113355 17.429393 5.027457 22.455716 11.22415 22.455716 C 17.426068 22.455716 22.452391 17.429393 22.452391 11.227475 C 22.452391 5.025557 17.426068 -0.000766395 11.22415 -0.000766395 Z M 11.22415 -0.000766395 " stroke="#cb6ce6" stroke-width="12" stroke-opacity="1" stroke-miterlimit="4"/></g></g><g clip-path="url(#f6ef4cfd09)"><g clip-path="url(#4091526acb)"><g clip-path="url(#a71f70f0b9)"><g clip-path="url(#4be085a464)"><path stroke-linecap="butt" transform="matrix(-0.528652, 0.528652, -0.528652, -0.528652, 95.145063, 111.451236)" fill="none" stroke-linejoin="miter" d="M 11.226301 -0.00128422 C 5.026863 -0.00128422 -0.00140494 5.026984 -0.00140494 11.226421 C -0.00140494 17.425859 5.026863 22.454127 11.226301 22.454127 C 17.425738 22.454127 22.454006 17.425859 22.454006 11.226421 C 22.454006 5.026984 17.425738 -0.00128422 11.226301 -0.00128422 Z M 11.226301 -0.00128422 " stroke="#0cc0df" stroke-width="12" stroke-opacity="1" stroke-miterlimit="4"/></g></g></g></g><g clip-path="url(#f8bb98173f)"><path fill="#545454" d="M 55.671875 34.0625 C 58.75 34.617188 61.269531 36.296875 63.078125 38.828125 L 63.09375 38.84375 C 63.164062 38.925781 63.199219 39.035156 63.199219 39.144531 C 63.199219 40.796875 63.199219 42.460938 63.199219 44.113281 C 63.199219 51.160156 63.199219 58.195312 63.199219 65.242188 C 63.199219 82.085938 63.199219 98.941406 63.199219 115.785156 L 63.199219 115.90625 C 63.199219 116.039062 63.140625 116.171875 63.03125 116.253906 C 61.113281 117.871094 58.953125 119.285156 56.589844 120.152344 L 56.589844 120.164062 C 56.5625 120.164062 56.550781 120.175781 56.527344 120.175781 C 54.910156 120.769531 53.222656 121.082031 51.496094 121.070312 C 47.03125 121.023438 43.136719 118.742188 39.902344 115.832031 L 39.855469 115.796875 L 39.804688 115.796875 C 36.59375 116.425781 33.277344 116.21875 30.25 114.929688 C 28.101562 114 26.207031 112.574219 24.746094 110.753906 C 23.289062 108.957031 22.296875 106.820312 21.828125 104.550781 C 21.234375 101.703125 21.488281 98.761719 22.464844 96.035156 L 22.527344 95.890625 L 22.371094 95.878906 C 22.1875 95.863281 22.007812 95.839844 21.828125 95.828125 L 21.71875 95.816406 C 21.621094 95.804688 21.527344 95.769531 21.453125 95.707031 C 20.332031 94.730469 19.316406 93.632812 18.507812 92.378906 C 17.0625 90.121094 16.433594 87.585938 16.820312 84.921875 C 17.167969 82.519531 18.328125 80.300781 19.910156 78.476562 C 20.730469 77.523438 21.683594 76.667969 22.730469 75.945312 L 22.804688 75.894531 L 22.769531 75.8125 C 22.03125 74.050781 21.417969 72.203125 21.066406 70.320312 C 20.621094 67.882812 20.644531 65.265625 21.753906 62.996094 C 22.863281 60.730469 24.820312 59.234375 27.101562 58.242188 C 28.355469 57.699219 29.695312 57.328125 31.046875 57.050781 L 31.152344 57.027344 L 31.128906 56.917969 C 30.730469 54.925781 30.757812 52.898438 31.285156 50.945312 C 31.925781 48.613281 33.242188 46.5625 35.015625 44.949219 C 36.414062 43.667969 38.261719 42.558594 40.117188 42.113281 C 40.6875 41.980469 41.300781 41.894531 41.878906 41.929688 L 42 41.941406 L 42 41.835938 C 42.097656 40.300781 42.871094 38.925781 43.882812 37.816406 C 44.582031 37.054688 45.402344 36.417969 46.285156 35.886719 C 46.296875 35.875 46.296875 35.875 46.308594 35.859375 L 46.320312 35.859375 C 47.175781 35.34375 48.09375 34.921875 49.046875 34.605469 C 51.160156 33.894531 53.464844 33.664062 55.671875 34.0625 Z M 99.464844 103.199219 C 100.722656 103.199219 101.746094 104.214844 101.746094 105.480469 C 101.746094 106.734375 100.722656 107.761719 99.464844 107.761719 C 98.210938 107.761719 97.1875 106.734375 97.1875 105.480469 C 97.1875 104.214844 98.210938 103.199219 99.464844 103.199219 Z M 77.90625 93.414062 C 79.160156 93.414062 80.183594 94.441406 80.183594 95.695312 C 80.183594 96.949219 79.160156 97.976562 77.90625 97.976562 C 76.648438 97.976562 75.625 96.949219 75.625 95.695312 C 75.625 94.441406 76.648438 93.414062 77.90625 93.414062 Z M 82.597656 106.507812 C 83.867188 106.507812 84.878906 107.519531 84.878906 108.785156 C 84.878906 110.042969 83.867188 111.054688 82.597656 111.054688 C 81.34375 111.054688 80.328125 110.042969 80.328125 108.785156 C 80.328125 107.519531 81.34375 106.507812 82.597656 106.507812 Z M 98.851562 94.1875 C 100.105469 94.1875 101.132812 95.199219 101.132812 96.457031 C 101.132812 97.722656 100.105469 98.734375 98.851562 98.734375 C 97.59375 98.734375 96.570312 97.722656 96.570312 96.457031 C 96.570312 95.199219 97.59375 94.1875 98.851562 94.1875 Z M 97.523438 73.785156 C 98.777344 73.785156 99.804688 74.808594 99.804688 76.066406 C 99.804688 77.320312 98.777344 78.34375 97.523438 78.34375 C 96.257812 78.34375 95.242188 77.320312 95.242188 76.066406 C 95.242188 74.808594 96.257812 73.785156 97.523438 73.785156 Z M 84.539062 84.257812 C 85.796875 84.257812 86.808594 85.285156 86.808594 86.539062 C 86.808594 87.792969 85.796875 88.816406 84.539062 88.816406 C 83.273438 88.816406 82.261719 87.792969 82.261719 86.539062 C 82.261719 85.285156 83.273438 84.257812 84.539062 84.257812 Z M 76.746094 62.320312 C 78 62.320312 79.015625 63.335938 79.015625 64.589844 C 79.015625 65.855469 78 66.871094 76.746094 66.871094 C 75.480469 66.871094 74.464844 65.855469 74.464844 64.589844 C 74.464844 63.335938 75.480469 62.320312 76.746094 62.320312 Z M 87.425781 61.984375 C 88.679688 61.984375 89.707031 63.007812 89.707031 64.265625 C 89.707031 65.519531 88.679688 66.542969 87.425781 66.542969 C 86.167969 66.542969 85.144531 65.519531 85.144531 64.265625 C 85.144531 63.007812 86.167969 61.984375 87.425781 61.984375 Z M 91.066406 52.367188 C 92.324219 52.367188 93.335938 53.382812 93.335938 54.648438 C 93.335938 55.902344 92.324219 56.929688 91.066406 56.929688 C 89.800781 56.929688 88.789062 55.902344 88.789062 54.648438 C 88.789062 53.382812 89.800781 52.367188 91.066406 52.367188 Z M 80.210938 46.660156 C 81.464844 46.660156 82.488281 47.675781 82.488281 48.941406 C 82.488281 50.195312 81.464844 51.210938 80.210938 51.210938 C 78.953125 51.210938 77.929688 50.195312 77.929688 48.941406 C 77.929688 47.675781 78.953125 46.660156 80.210938 46.660156 Z M 88.0625 53.914062 C 88.136719 53.609375 88.257812 53.320312 88.425781 53.054688 C 86.652344 52.03125 84.890625 50.992188 83.117188 49.953125 C 83.019531 50.246094 82.875 50.519531 82.695312 50.761719 C 84.480469 51.8125 86.277344 52.863281 88.0625 53.914062 Z M 79.824219 64.589844 C 81.332031 64.515625 82.839844 64.433594 84.347656 64.359375 C 84.347656 64.324219 84.347656 64.300781 84.347656 64.265625 C 84.347656 63.988281 84.382812 63.710938 84.457031 63.433594 C 82.863281 63.515625 81.269531 63.601562 79.679688 63.671875 C 79.773438 63.972656 79.824219 64.277344 79.824219 64.589844 Z M 80.847656 106.253906 C 81.101562 106.074219 81.378906 105.941406 81.679688 105.84375 C 80.871094 103.382812 80.054688 100.933594 79.242188 98.46875 C 78.96875 98.605469 78.675781 98.699219 78.363281 98.75 C 79.195312 101.246094 80.015625 103.742188 80.847656 106.253906 Z M 83.042969 89.242188 C 82.78125 89.082031 82.527344 88.902344 82.320312 88.671875 C 81.34375 90.121094 80.367188 91.558594 79.386719 93.003906 C 79.667969 93.148438 79.90625 93.34375 80.125 93.558594 C 81.101562 92.125 82.078125 90.675781 83.042969 89.242188 Z M 96.628906 98.589844 C 96.414062 98.375 96.234375 98.121094 96.101562 97.84375 C 92.324219 100.761719 88.546875 103.683594 84.769531 106.589844 C 84.988281 106.808594 85.179688 107.0625 85.324219 107.328125 C 89.089844 104.417969 92.855469 101.511719 96.628906 98.589844 Z M 98.378906 93.414062 C 97.5 91.160156 96.617188 88.914062 95.738281 86.660156 L 95.726562 86.632812 L 95.738281 86.597656 C 96.328125 84.113281 96.90625 81.628906 97.5 79.140625 C 97.1875 79.140625 96.882812 79.09375 96.582031 78.996094 C 95.992188 81.519531 95.402344 84.039062 94.808594 86.5625 C 94.785156 86.644531 94.785156 86.742188 94.820312 86.828125 C 95.714844 89.121094 96.605469 91.398438 97.5 93.691406 C 97.777344 93.558594 98.078125 93.464844 98.378906 93.414062 Z M 87.171875 88.128906 C 87.015625 88.394531 86.808594 88.636719 86.578125 88.84375 C 89.765625 90.882812 92.964844 92.921875 96.160156 94.960938 C 96.316406 94.683594 96.5 94.441406 96.726562 94.234375 C 93.542969 92.195312 90.355469 90.167969 87.171875 88.128906 Z M 90.574219 57.6875 C 90.261719 57.640625 89.96875 57.542969 89.691406 57.398438 C 89.125 58.679688 88.570312 59.957031 88.015625 61.234375 C 88.316406 61.296875 88.605469 61.40625 88.882812 61.550781 C 89.4375 60.257812 90.007812 58.980469 90.574219 57.6875 Z M 96.605469 106.386719 C 96.507812 106.097656 96.460938 105.785156 96.460938 105.480469 L 85.554688 107.90625 C 85.640625 108.183594 85.6875 108.484375 85.6875 108.785156 C 85.6875 108.785156 85.6875 108.800781 85.6875 108.8125 Z M 92.046875 57.566406 C 94.964844 62.5625 97.875 67.570312 100.792969 72.566406 L 100.84375 72.648438 L 100.769531 72.710938 C 100.371094 73.0625 99.972656 73.421875 99.585938 73.773438 C 99.816406 73.976562 100.007812 74.21875 100.164062 74.484375 C 100.515625 74.171875 100.867188 73.855469 101.203125 73.554688 L 101.3125 73.460938 L 101.386719 73.578125 C 101.648438 74.023438 101.902344 74.472656 102.167969 74.929688 C 104.558594 79.972656 106.945312 85.003906 109.335938 90.050781 L 109.359375 90.109375 L 109.324219 90.15625 C 108.164062 91.8125 107.019531 93.464844 105.871094 95.117188 L 105.835938 95.164062 L 105.789062 95.164062 C 104.449219 95.273438 103.109375 95.394531 101.78125 95.503906 C 101.878906 95.804688 101.925781 96.105469 101.925781 96.417969 C 102.929688 96.335938 103.917969 96.25 104.910156 96.167969 L 105.160156 96.140625 L 100.589844 102.695312 C 100.878906 102.816406 101.144531 102.972656 101.386719 103.164062 L 106.34375 96.046875 L 106.402344 96.035156 C 106.632812 96.023438 106.851562 95.996094 107.082031 95.972656 L 107.164062 95.972656 L 107.199219 96.046875 C 108.203125 98.699219 108.503906 101.582031 107.925781 104.371094 C 107.476562 106.492188 106.550781 108.484375 105.183594 110.175781 C 104.738281 110.742188 104.242188 111.261719 103.714844 111.742188 L 103.605469 111.839844 L 101.3125 107.847656 C 101.070312 108.039062 100.804688 108.183594 100.515625 108.292969 L 102.882812 112.417969 L 102.808594 112.480469 C 101.953125 113.117188 101.011719 113.660156 100.035156 114.082031 C 97.089844 115.339844 93.84375 115.496094 90.742188 114.84375 C 90.597656 114.820312 90.441406 114.855469 90.332031 114.953125 C 87.242188 117.800781 83.453125 120.105469 79.136719 120.152344 C 77.785156 120.164062 76.445312 119.960938 75.15625 119.5625 L 74.996094 119.511719 L 75.09375 119.378906 C 77.085938 116.738281 79.074219 114.097656 81.066406 111.453125 C 80.800781 111.296875 80.558594 111.101562 80.355469 110.886719 C 78.28125 113.625 76.203125 116.375 74.140625 119.113281 L 74.078125 119.1875 L 73.996094 119.152344 C 71.96875 118.34375 70.085938 117.125 68.410156 115.726562 L 68.359375 115.6875 L 68.359375 115.640625 C 68.359375 109.570312 68.359375 103.503906 68.359375 97.445312 L 68.359375 97.335938 L 68.46875 97.324219 C 70.640625 97.121094 72.8125 96.914062 74.996094 96.710938 C 74.886719 96.417969 74.839844 96.117188 74.828125 95.804688 C 72.714844 96.007812 70.605469 96.203125 68.492188 96.40625 L 68.359375 96.417969 L 68.359375 96.285156 C 68.359375 94.078125 68.359375 91.882812 68.359375 89.675781 L 68.359375 89.359375 L 68.566406 89.601562 C 68.664062 89.710938 68.792969 89.769531 68.941406 89.757812 C 72.742188 89.53125 76.527344 89.3125 80.316406 89.082031 C 80.5 89.070312 80.65625 88.953125 80.714844 88.78125 C 80.96875 88.105469 81.210938 87.429688 81.464844 86.753906 C 81.453125 86.683594 81.453125 86.609375 81.453125 86.539062 C 81.453125 85.730469 81.765625 84.96875 82.320312 84.390625 C 82.371094 84.28125 82.40625 84.160156 82.453125 84.039062 L 82.5625 83.75 L 82.671875 84.039062 C 82.671875 84.050781 82.671875 84.0625 82.683594 84.074219 C 82.925781 83.894531 83.203125 83.738281 83.492188 83.640625 C 83.347656 83.242188 83.203125 82.859375 83.058594 82.460938 L 83.042969 82.421875 L 83.058594 82.386719 C 83.480469 81.203125 83.914062 80.035156 84.335938 78.863281 L 84.347656 78.839844 L 84.359375 78.828125 C 86.265625 76.632812 88.171875 74.421875 90.078125 72.226562 L 90.140625 72.15625 L 90.222656 72.203125 C 90.308594 72.25 90.394531 72.300781 90.488281 72.359375 L 90.523438 72.371094 L 90.539062 72.410156 C 91.019531 73.589844 91.515625 74.761719 92.007812 75.933594 L 92.035156 75.992188 L 91.984375 76.050781 C 89.96875 78.621094 87.941406 81.203125 85.914062 83.785156 C 86.195312 83.917969 86.449219 84.101562 86.675781 84.316406 C 88.75 81.664062 90.839844 79.007812 92.925781 76.355469 C 93.023438 76.222656 93.046875 76.027344 92.976562 75.871094 C 92.636719 75.0625 92.300781 74.253906 91.960938 73.445312 L 91.828125 73.132812 L 92.128906 73.3125 C 92.988281 73.808594 93.84375 74.304688 94.710938 74.796875 C 94.832031 74.519531 95.003906 74.253906 95.207031 74.023438 C 93.902344 73.277344 92.589844 72.519531 91.285156 71.757812 L 91.25 71.734375 L 91.238281 71.695312 C 90.550781 70.066406 89.875 68.425781 89.1875 66.796875 C 88.933594 66.96875 88.65625 67.113281 88.367188 67.207031 C 88.882812 68.464844 89.414062 69.730469 89.933594 70.984375 L 89.984375 71.09375 L 89.875 71.140625 C 89.800781 71.167969 89.730469 71.214844 89.679688 71.273438 L 89.679688 71.285156 C 87.652344 73.628906 85.625 75.96875 83.597656 78.308594 C 83.5625 78.34375 83.539062 78.394531 83.515625 78.453125 C 83.226562 79.238281 82.949219 80.023438 82.660156 80.804688 L 82.550781 81.097656 L 82.441406 80.804688 C 81.441406 78.117188 80.4375 75.425781 79.4375 72.734375 L 79.414062 72.664062 L 79.472656 72.613281 C 81.429688 70.585938 83.382812 68.558594 85.351562 66.542969 C 85.121094 66.328125 84.925781 66.085938 84.769531 65.820312 C 82.707031 67.945312 80.65625 70.054688 78.605469 72.179688 L 78.59375 72.191406 L 78.582031 72.191406 C 75.589844 74.109375 72.59375 76.027344 69.617188 77.945312 L 69.21875 78.199219 L 69.445312 77.789062 C 71.425781 74.316406 73.402344 70.839844 75.371094 67.351562 C 75.09375 67.222656 74.839844 67.039062 74.621094 66.824219 C 72.609375 70.371094 70.59375 73.917969 68.578125 77.464844 L 68.359375 77.851562 L 68.359375 77.417969 C 68.359375 73.53125 68.359375 69.632812 68.359375 65.75 L 68.359375 65.652344 L 68.46875 65.640625 C 70.207031 65.445312 71.957031 65.253906 73.695312 65.074219 C 73.671875 64.914062 73.65625 64.746094 73.65625 64.589844 C 73.65625 64.445312 73.671875 64.289062 73.695312 64.144531 C 72.546875 64.265625 71.402344 64.398438 70.253906 64.515625 L 69.773438 64.566406 L 70.183594 64.3125 C 72.835938 62.585938 75.503906 60.863281 78.15625 59.148438 L 78.15625 59.136719 C 78.28125 59.074219 78.363281 58.96875 78.386719 58.835938 C 78.882812 56.554688 79.375 54.273438 79.871094 51.992188 C 79.558594 51.957031 79.257812 51.882812 78.976562 51.765625 C 78.496094 53.972656 78.011719 56.191406 77.542969 58.414062 L 77.53125 58.460938 L 77.496094 58.484375 C 74.503906 60.414062 71.523438 62.34375 68.542969 64.277344 L 68.359375 64.398438 L 68.359375 64.179688 C 68.359375 57.773438 68.359375 51.355469 68.359375 44.949219 L 68.359375 44.777344 L 68.519531 44.839844 C 71.425781 45.9375 74.332031 47.035156 77.242188 48.132812 C 77.3125 47.832031 77.445312 47.554688 77.601562 47.289062 C 74.550781 46.128906 71.5 44.984375 68.433594 43.824219 L 68.359375 43.800781 L 68.359375 43.714844 C 68.359375 42.257812 68.359375 40.785156 68.359375 39.324219 L 68.359375 39.289062 L 68.386719 39.253906 C 70.050781 36.972656 72.355469 35.464844 75.140625 34.96875 C 77.191406 34.59375 79.339844 34.8125 81.308594 35.476562 C 82.054688 35.730469 82.792969 36.042969 83.480469 36.429688 L 83.5625 36.476562 L 83.527344 36.5625 C 82.539062 39.664062 81.535156 42.761719 80.535156 45.875 C 80.847656 45.898438 81.152344 45.984375 81.429688 46.105469 C 82.296875 43.390625 83.164062 40.6875 84.046875 37.972656 L 84.140625 37.660156 L 84.261719 37.972656 C 86.011719 42.640625 87.761719 47.3125 89.5 51.980469 C 89.765625 51.824219 90.054688 51.714844 90.355469 51.644531 C 88.644531 47.058594 86.929688 42.472656 85.207031 37.902344 L 85.046875 37.464844 L 85.398438 37.769531 C 85.625 37.984375 85.867188 38.203125 86.074219 38.445312 C 87.085938 39.53125 87.835938 40.941406 87.714844 42.460938 C 87.703125 42.714844 87.894531 42.929688 88.136719 42.957031 C 88.207031 42.957031 88.269531 42.945312 88.328125 42.929688 L 88.328125 42.921875 L 88.339844 42.921875 C 88.957031 42.761719 89.691406 42.859375 90.308594 43.003906 C 91.949219 43.390625 93.566406 44.355469 94.832031 45.464844 L 94.894531 45.515625 L 94.859375 45.597656 C 94.84375 45.621094 94.832031 45.648438 94.820312 45.683594 C 93.941406 47.710938 93.046875 49.738281 92.152344 51.765625 C 92.457031 51.882812 92.746094 52.042969 92.988281 52.246094 C 93.84375 50.28125 94.6875 48.3125 95.53125 46.359375 L 95.605469 46.191406 L 95.726562 46.324219 C 97.015625 47.699219 97.96875 49.351562 98.476562 51.183594 C 99.019531 53.1875 98.972656 55.261719 98.488281 57.277344 C 98.429688 57.519531 98.585938 57.773438 98.839844 57.832031 C 98.851562 57.832031 98.875 57.84375 98.886719 57.84375 L 98.898438 57.84375 C 100.359375 58.109375 101.820312 58.507812 103.183594 59.101562 C 105.246094 59.980469 107.054688 61.332031 108.070312 63.394531 C 108.40625 64.097656 108.648438 64.84375 108.78125 65.617188 L 108.804688 65.75 L 108.671875 65.75 C 108.5625 65.761719 108.46875 65.796875 108.382812 65.871094 C 106.140625 67.882812 103.894531 69.898438 101.636719 71.925781 L 101.542969 72.023438 L 101.46875 71.902344 C 98.597656 66.980469 95.726562 62.070312 92.867188 57.144531 C 92.613281 57.328125 92.335938 57.472656 92.046875 57.566406 Z M 107.355469 94.597656 C 108.324219 93.199219 109.300781 91.8125 110.265625 90.410156 C 110.363281 90.265625 110.375 90.085938 110.289062 89.929688 C 107.863281 84.789062 105.425781 79.660156 102.988281 74.519531 C 102.988281 74.507812 102.976562 74.496094 102.964844 74.472656 C 102.664062 73.953125 102.363281 73.433594 102.058594 72.914062 L 102.011719 72.832031 L 102.085938 72.769531 C 104.292969 70.78125 106.511719 68.789062 108.722656 66.796875 L 108.902344 66.628906 L 108.914062 66.871094 C 108.972656 67.96875 108.867188 69.078125 108.671875 70.152344 C 108.308594 72.121094 107.636719 74.0625 106.839844 75.882812 C 106.753906 76.101562 106.839844 76.355469 107.03125 76.464844 L 107.042969 76.476562 C 108.152344 77.1875 109.179688 78.066406 110.046875 79.070312 C 111.507812 80.757812 112.582031 82.820312 112.90625 85.054688 C 113.269531 87.492188 112.679688 89.820312 111.363281 91.882812 C 110.640625 93.003906 109.734375 94.007812 108.730469 94.886719 L 108.707031 94.910156 L 108.660156 94.921875 C 108.382812 94.949219 108.105469 94.972656 107.828125 94.984375 L 107.769531 94.996094 L 107.730469 94.949219 C 107.660156 94.851562 107.550781 94.789062 107.429688 94.777344 L 107.25 94.753906 Z M 68.421875 79.804688 C 71.789062 77.644531 75.164062 75.484375 78.53125 73.324219 L 78.652344 73.242188 L 78.699219 73.375 C 79.824219 76.378906 80.933594 79.382812 82.054688 82.386719 L 82.066406 82.421875 L 82.054688 82.460938 C 81.367188 84.34375 80.679688 86.234375 79.992188 88.117188 L 79.96875 88.191406 L 79.882812 88.191406 C 76.226562 88.410156 72.558594 88.625 68.890625 88.84375 C 68.757812 88.855469 68.648438 88.914062 68.566406 89.011719 L 68.359375 89.253906 L 68.359375 88.9375 C 68.359375 85.921875 68.359375 82.917969 68.359375 79.902344 L 68.359375 79.839844 Z M 108.816406 95.828125 L 108.925781 95.816406 C 109.023438 95.804688 109.117188 95.769531 109.191406 95.707031 C 110.3125 94.730469 111.328125 93.632812 112.136719 92.378906 C 113.582031 90.121094 114.210938 87.585938 113.824219 84.921875 C 113.476562 82.519531 112.316406 80.300781 110.734375 78.476562 C 109.914062 77.523438 108.960938 76.667969 107.914062 75.945312 L 107.839844 75.894531 L 107.875 75.8125 C 108.613281 74.050781 109.226562 72.203125 109.578125 70.320312 C 110.023438 67.882812 110 65.265625 108.890625 62.996094 C 107.78125 60.730469 105.824219 59.234375 103.542969 58.242188 C 102.289062 57.699219 100.949219 57.328125 99.597656 57.050781 L 99.492188 57.023438 L 99.515625 56.917969 C 99.914062 54.925781 99.886719 52.898438 99.359375 50.945312 C 98.71875 48.613281 97.402344 46.5625 95.628906 44.949219 C 94.230469 43.667969 92.382812 42.558594 90.523438 42.113281 C 89.960938 41.980469 89.34375 41.894531 88.765625 41.929688 L 88.644531 41.941406 L 88.644531 41.835938 C 88.546875 40.300781 87.773438 38.925781 86.761719 37.816406 C 86.0625 37.054688 85.242188 36.417969 84.359375 35.886719 C 84.347656 35.875 84.347656 35.875 84.335938 35.859375 L 84.324219 35.859375 C 83.46875 35.34375 82.550781 34.921875 81.597656 34.605469 C 79.484375 33.894531 77.179688 33.664062 74.972656 34.0625 C 71.894531 34.617188 69.375 36.296875 67.566406 38.828125 L 67.550781 38.84375 C 67.480469 38.925781 67.445312 39.035156 67.445312 39.144531 C 67.445312 40.796875 67.445312 42.460938 67.445312 44.113281 C 67.445312 51.160156 67.445312 58.195312 67.445312 65.242188 C 67.445312 82.085938 67.445312 98.941406 67.445312 115.785156 L 67.445312 115.90625 C 67.445312 116.039062 67.503906 116.171875 67.613281 116.253906 C 69.53125 117.871094 71.691406 119.285156 74.054688 120.152344 L 74.054688 120.164062 C 74.078125 120.164062 74.089844 120.175781 74.117188 120.175781 C 75.734375 120.769531 77.421875 121.082031 79.148438 121.070312 C 83.613281 121.023438 87.507812 118.742188 90.742188 115.832031 L 90.792969 115.796875 L 90.839844 115.796875 C 94.046875 116.425781 97.367188 116.21875 100.394531 114.929688 C 102.542969 114 104.4375 112.574219 105.898438 110.753906 C 107.355469 108.957031 108.347656 106.820312 108.816406 104.550781 C 109.410156 101.703125 109.15625 98.761719 108.179688 96.035156 L 108.117188 95.890625 L 108.273438 95.878906 C 108.457031 95.863281 108.636719 95.839844 108.816406 95.828125 " fill-opacity="1" fill-rule="evenodd"/></g><g clip-path="url(#52c0372b4c)"><path fill="#ffffff" d="M 52.261719 42.515625 C 54.835938 42.984375 56.949219 44.386719 58.464844 46.511719 L 58.476562 46.519531 C 58.535156 46.589844 58.566406 46.679688 58.566406 46.773438 C 58.566406 48.15625 58.566406 49.550781 58.566406 50.9375 C 58.566406 56.839844 58.566406 62.730469 58.566406 68.632812 C 58.566406 82.742188 58.566406 96.859375 58.566406 110.96875 L 58.566406 111.070312 C 58.566406 111.183594 58.515625 111.292969 58.425781 111.363281 C 56.816406 112.71875 55.007812 113.902344 53.027344 114.628906 L 53.027344 114.640625 C 53.007812 114.640625 52.996094 114.648438 52.976562 114.648438 C 51.625 115.144531 50.207031 115.40625 48.761719 115.398438 C 45.023438 115.355469 41.757812 113.445312 39.050781 111.011719 L 39.011719 110.980469 L 38.96875 110.980469 C 36.28125 111.507812 33.503906 111.335938 30.964844 110.253906 C 29.167969 109.472656 27.578125 108.28125 26.355469 106.757812 C 25.132812 105.25 24.304688 103.460938 23.910156 101.5625 C 23.414062 99.175781 23.628906 96.710938 24.445312 94.425781 L 24.496094 94.304688 L 24.367188 94.292969 C 24.214844 94.285156 24.0625 94.265625 23.910156 94.253906 L 23.820312 94.246094 C 23.738281 94.234375 23.660156 94.203125 23.597656 94.152344 C 22.65625 93.332031 21.808594 92.414062 21.132812 91.363281 C 19.917969 89.472656 19.394531 87.351562 19.714844 85.117188 C 20.011719 83.105469 20.980469 81.246094 22.304688 79.71875 C 22.992188 78.921875 23.789062 78.203125 24.667969 77.597656 L 24.730469 77.558594 L 24.699219 77.488281 C 24.082031 76.011719 23.566406 74.464844 23.273438 72.886719 C 22.898438 70.847656 22.921875 68.652344 23.851562 66.753906 C 24.78125 64.855469 26.417969 63.601562 28.328125 62.773438 C 29.378906 62.316406 30.5 62.003906 31.632812 61.769531 L 31.722656 61.75 L 31.703125 61.660156 C 31.371094 59.992188 31.390625 58.292969 31.835938 56.65625 C 32.371094 54.707031 33.472656 52.988281 34.957031 51.632812 C 36.128906 50.5625 37.675781 49.632812 39.234375 49.257812 C 39.707031 49.148438 40.222656 49.078125 40.707031 49.105469 L 40.808594 49.117188 L 40.808594 49.027344 C 40.890625 47.742188 41.535156 46.589844 42.386719 45.660156 C 42.972656 45.023438 43.660156 44.488281 44.398438 44.042969 C 44.40625 44.035156 44.40625 44.035156 44.417969 44.023438 L 44.425781 44.023438 C 45.144531 43.589844 45.914062 43.234375 46.710938 42.972656 C 48.480469 42.375 50.410156 42.183594 52.261719 42.515625 Z M 88.945312 100.429688 C 89.996094 100.429688 90.855469 101.277344 90.855469 102.339844 C 90.855469 103.390625 89.996094 104.25 88.945312 104.25 C 87.894531 104.25 87.035156 103.390625 87.035156 102.339844 C 87.035156 101.277344 87.894531 100.429688 88.945312 100.429688 Z M 70.882812 92.230469 C 71.933594 92.230469 72.792969 93.089844 72.792969 94.144531 C 72.792969 95.195312 71.933594 96.054688 70.882812 96.054688 C 69.832031 96.054688 68.972656 95.195312 68.972656 94.144531 C 68.972656 93.089844 69.832031 92.230469 70.882812 92.230469 Z M 74.816406 103.199219 C 75.875 103.199219 76.726562 104.046875 76.726562 105.109375 C 76.726562 106.160156 75.875 107.007812 74.816406 107.007812 C 73.761719 107.007812 72.914062 106.160156 72.914062 105.109375 C 72.914062 104.046875 73.761719 103.199219 74.816406 103.199219 Z M 88.429688 92.878906 C 89.480469 92.878906 90.339844 93.726562 90.339844 94.777344 C 90.339844 95.839844 89.480469 96.691406 88.429688 96.691406 C 87.378906 96.691406 86.519531 95.839844 86.519531 94.777344 C 86.519531 93.726562 87.378906 92.878906 88.429688 92.878906 Z M 87.316406 75.789062 C 88.367188 75.789062 89.226562 76.648438 89.226562 77.699219 C 89.226562 78.75 88.367188 79.609375 87.316406 79.609375 C 86.253906 79.609375 85.40625 78.75 85.40625 77.699219 C 85.40625 76.648438 86.253906 75.789062 87.316406 75.789062 Z M 76.441406 84.5625 C 77.492188 84.5625 78.34375 85.421875 78.34375 86.472656 C 78.34375 87.523438 77.492188 88.382812 76.441406 88.382812 C 75.378906 88.382812 74.53125 87.523438 74.53125 86.472656 C 74.53125 85.421875 75.378906 84.5625 76.441406 84.5625 Z M 69.914062 66.1875 C 70.964844 66.1875 71.8125 67.035156 71.8125 68.085938 C 71.8125 69.148438 70.964844 69.996094 69.914062 69.996094 C 68.851562 69.996094 68.003906 69.148438 68.003906 68.085938 C 68.003906 67.035156 68.851562 66.1875 69.914062 66.1875 Z M 78.859375 65.90625 C 79.910156 65.90625 80.769531 66.765625 80.769531 67.816406 C 80.769531 68.867188 79.910156 69.726562 78.859375 69.726562 C 77.804688 69.726562 76.945312 68.867188 76.945312 67.816406 C 76.945312 66.765625 77.804688 65.90625 78.859375 65.90625 Z M 81.910156 57.847656 C 82.960938 57.847656 83.808594 58.699219 83.808594 59.757812 C 83.808594 60.8125 82.960938 61.671875 81.910156 61.671875 C 80.847656 61.671875 80 60.8125 80 59.757812 C 80 58.699219 80.847656 57.847656 81.910156 57.847656 Z M 72.8125 53.070312 C 73.867188 53.070312 74.722656 53.917969 74.722656 54.980469 C 74.722656 56.03125 73.867188 56.878906 72.8125 56.878906 C 71.761719 56.878906 70.902344 56.03125 70.902344 54.980469 C 70.902344 53.917969 71.761719 53.070312 72.8125 53.070312 Z M 79.394531 59.144531 C 79.453125 58.890625 79.554688 58.648438 79.695312 58.425781 C 78.210938 57.566406 76.734375 56.699219 75.25 55.828125 C 75.167969 56.070312 75.046875 56.304688 74.894531 56.503906 C 76.390625 57.386719 77.898438 58.265625 79.394531 59.144531 Z M 72.492188 68.085938 C 73.753906 68.027344 75.015625 67.957031 76.28125 67.894531 C 76.28125 67.867188 76.28125 67.84375 76.28125 67.816406 C 76.28125 67.582031 76.3125 67.351562 76.371094 67.117188 C 75.039062 67.1875 73.703125 67.257812 72.367188 67.320312 C 72.449219 67.570312 72.492188 67.824219 72.492188 68.085938 Z M 73.347656 102.984375 C 73.5625 102.835938 73.792969 102.722656 74.046875 102.640625 C 73.371094 100.582031 72.683594 98.527344 72.003906 96.46875 C 71.773438 96.578125 71.53125 96.660156 71.265625 96.699219 C 71.964844 98.792969 72.652344 100.882812 73.347656 102.984375 Z M 75.1875 88.734375 C 74.96875 88.605469 74.753906 88.453125 74.582031 88.261719 C 73.761719 89.472656 72.945312 90.675781 72.125 91.890625 C 72.359375 92.011719 72.5625 92.171875 72.742188 92.351562 C 73.5625 91.152344 74.378906 89.9375 75.1875 88.734375 Z M 86.570312 96.570312 C 86.386719 96.386719 86.234375 96.175781 86.125 95.941406 C 82.960938 98.386719 79.796875 100.832031 76.632812 103.269531 C 76.816406 103.449219 76.976562 103.664062 77.097656 103.886719 C 80.253906 101.449219 83.40625 99.015625 86.570312 96.570312 Z M 88.035156 92.230469 C 87.296875 90.34375 86.558594 88.460938 85.820312 86.574219 L 85.8125 86.550781 L 85.820312 86.523438 C 86.316406 84.441406 86.800781 82.359375 87.296875 80.277344 C 87.035156 80.277344 86.78125 80.234375 86.527344 80.15625 C 86.035156 82.265625 85.539062 84.378906 85.042969 86.492188 C 85.023438 86.5625 85.023438 86.644531 85.054688 86.714844 C 85.800781 88.632812 86.546875 90.542969 87.296875 92.464844 C 87.527344 92.351562 87.78125 92.273438 88.035156 92.230469 Z M 78.644531 87.804688 C 78.515625 88.027344 78.34375 88.230469 78.148438 88.402344 C 80.816406 90.109375 83.496094 91.816406 86.175781 93.527344 C 86.304688 93.292969 86.457031 93.089844 86.648438 92.917969 C 83.980469 91.210938 81.3125 89.515625 78.644531 87.804688 Z M 81.496094 62.308594 C 81.234375 62.265625 80.988281 62.1875 80.757812 62.0625 C 80.28125 63.136719 79.816406 64.207031 79.351562 65.277344 C 79.605469 65.328125 79.847656 65.417969 80.082031 65.539062 C 80.546875 64.460938 81.019531 63.386719 81.496094 62.308594 Z M 86.546875 103.097656 C 86.46875 102.855469 86.425781 102.59375 86.425781 102.339844 L 77.292969 104.371094 C 77.363281 104.601562 77.402344 104.855469 77.402344 105.109375 C 77.402344 105.109375 77.402344 105.117188 77.402344 105.128906 Z M 82.730469 62.207031 C 85.175781 66.390625 87.609375 70.582031 90.054688 74.769531 L 90.097656 74.839844 L 90.035156 74.890625 C 89.703125 75.183594 89.367188 75.484375 89.046875 75.777344 C 89.238281 75.949219 89.398438 76.152344 89.53125 76.375 C 89.824219 76.113281 90.117188 75.847656 90.398438 75.597656 L 90.492188 75.515625 L 90.550781 75.617188 C 90.773438 75.992188 90.984375 76.367188 91.207031 76.75 C 93.207031 80.972656 95.210938 85.1875 97.210938 89.414062 L 97.230469 89.464844 L 97.203125 89.503906 C 96.230469 90.886719 95.269531 92.273438 94.308594 93.65625 L 94.28125 93.699219 L 94.238281 93.699219 C 93.117188 93.789062 91.996094 93.890625 90.882812 93.980469 C 90.964844 94.234375 91.003906 94.488281 91.003906 94.75 C 91.84375 94.679688 92.671875 94.609375 93.503906 94.535156 L 93.714844 94.515625 L 89.882812 100.003906 C 90.125 100.105469 90.347656 100.238281 90.550781 100.398438 L 94.703125 94.4375 L 94.753906 94.425781 C 94.945312 94.414062 95.128906 94.394531 95.320312 94.375 L 95.390625 94.375 L 95.421875 94.4375 C 96.261719 96.660156 96.511719 99.074219 96.027344 101.410156 C 95.65625 103.1875 94.875 104.855469 93.734375 106.269531 C 93.359375 106.746094 92.945312 107.179688 92.5 107.585938 L 92.410156 107.664062 L 90.492188 104.320312 C 90.289062 104.480469 90.066406 104.601562 89.824219 104.695312 L 91.804688 108.148438 L 91.742188 108.203125 C 91.027344 108.738281 90.238281 109.191406 89.417969 109.546875 C 86.953125 110.597656 84.234375 110.726562 81.636719 110.183594 C 81.515625 110.160156 81.382812 110.191406 81.292969 110.273438 C 78.707031 112.65625 75.53125 114.589844 71.914062 114.628906 C 70.78125 114.640625 69.660156 114.464844 68.578125 114.132812 L 68.449219 114.09375 L 68.527344 113.980469 C 70.195312 111.769531 71.863281 109.554688 73.53125 107.34375 C 73.308594 107.210938 73.105469 107.046875 72.933594 106.867188 C 71.195312 109.160156 69.457031 111.464844 67.730469 113.757812 L 67.679688 113.820312 L 67.609375 113.789062 C 65.910156 113.113281 64.335938 112.09375 62.929688 110.921875 L 62.890625 110.890625 L 62.890625 110.847656 C 62.890625 105.765625 62.890625 100.683594 62.890625 95.609375 L 62.890625 95.515625 L 62.980469 95.507812 C 64.800781 95.335938 66.617188 95.164062 68.449219 94.992188 C 68.355469 94.75 68.316406 94.496094 68.304688 94.234375 C 66.539062 94.40625 64.769531 94.566406 63 94.738281 L 62.890625 94.75 L 62.890625 94.636719 C 62.890625 92.789062 62.890625 90.949219 62.890625 89.097656 L 62.890625 88.835938 L 63.0625 89.039062 C 63.140625 89.128906 63.253906 89.179688 63.375 89.167969 C 66.558594 88.976562 69.730469 88.796875 72.90625 88.605469 C 73.054688 88.59375 73.1875 88.492188 73.238281 88.351562 C 73.449219 87.785156 73.652344 87.21875 73.867188 86.652344 C 73.855469 86.59375 73.855469 86.53125 73.855469 86.472656 C 73.855469 85.792969 74.117188 85.15625 74.582031 84.671875 C 74.621094 84.582031 74.652344 84.480469 74.695312 84.378906 L 74.785156 84.136719 L 74.875 84.378906 C 74.875 84.390625 74.875 84.398438 74.886719 84.410156 C 75.089844 84.257812 75.320312 84.128906 75.5625 84.046875 C 75.441406 83.710938 75.320312 83.390625 75.199219 83.054688 L 75.1875 83.023438 L 75.199219 82.996094 C 75.554688 82.003906 75.917969 81.023438 76.269531 80.042969 L 76.28125 80.023438 L 76.289062 80.015625 C 77.886719 78.175781 79.484375 76.324219 81.082031 74.484375 L 81.132812 74.425781 L 81.203125 74.464844 C 81.273438 74.503906 81.34375 74.546875 81.425781 74.597656 L 81.453125 74.605469 L 81.464844 74.636719 C 81.871094 75.628906 82.285156 76.609375 82.699219 77.589844 L 82.71875 77.636719 L 82.675781 77.6875 C 80.988281 79.839844 79.292969 82.003906 77.59375 84.167969 C 77.828125 84.277344 78.039062 84.429688 78.230469 84.613281 C 79.96875 82.386719 81.71875 80.164062 83.464844 77.941406 C 83.546875 77.832031 83.566406 77.667969 83.507812 77.539062 C 83.222656 76.859375 82.941406 76.183594 82.65625 75.507812 L 82.546875 75.242188 L 82.800781 75.394531 C 83.515625 75.808594 84.234375 76.222656 84.960938 76.636719 C 85.0625 76.40625 85.203125 76.183594 85.375 75.992188 C 84.285156 75.363281 83.183594 74.726562 82.089844 74.089844 L 82.0625 74.070312 L 82.050781 74.039062 C 81.476562 72.675781 80.910156 71.300781 80.332031 69.9375 C 80.121094 70.078125 79.886719 70.199219 79.644531 70.28125 C 80.082031 71.332031 80.527344 72.394531 80.960938 73.445312 L 81 73.535156 L 80.910156 73.574219 C 80.847656 73.597656 80.789062 73.636719 80.746094 73.6875 L 80.746094 73.695312 C 79.050781 75.65625 77.351562 77.617188 75.652344 79.578125 C 75.625 79.609375 75.601562 79.648438 75.582031 79.699219 C 75.339844 80.355469 75.109375 81.015625 74.863281 81.671875 L 74.773438 81.914062 L 74.683594 81.671875 C 73.84375 79.417969 73.007812 77.164062 72.167969 74.910156 L 72.148438 74.847656 L 72.195312 74.808594 C 73.835938 73.109375 75.472656 71.414062 77.121094 69.726562 C 76.925781 69.542969 76.765625 69.339844 76.632812 69.117188 C 74.90625 70.898438 73.1875 72.664062 71.46875 74.445312 L 71.460938 74.453125 L 71.449219 74.453125 C 68.941406 76.0625 66.4375 77.667969 63.941406 79.277344 L 63.605469 79.488281 L 63.796875 79.144531 C 65.457031 76.234375 67.113281 73.324219 68.761719 70.402344 C 68.527344 70.292969 68.316406 70.140625 68.132812 69.957031 C 66.445312 72.929688 64.757812 75.902344 63.070312 78.871094 L 62.890625 79.195312 L 62.890625 78.832031 C 62.890625 75.578125 62.890625 72.3125 62.890625 69.058594 L 62.890625 68.976562 L 62.980469 68.96875 C 64.433594 68.804688 65.902344 68.644531 67.355469 68.492188 C 67.335938 68.359375 67.324219 68.21875 67.324219 68.085938 C 67.324219 67.964844 67.335938 67.835938 67.355469 67.714844 C 66.394531 67.816406 65.4375 67.925781 64.476562 68.027344 L 64.070312 68.066406 L 64.414062 67.855469 C 66.636719 66.410156 68.871094 64.964844 71.09375 63.53125 L 71.09375 63.519531 C 71.195312 63.46875 71.265625 63.378906 71.289062 63.265625 C 71.703125 61.355469 72.117188 59.445312 72.53125 57.535156 C 72.269531 57.507812 72.015625 57.445312 71.78125 57.34375 C 71.378906 59.195312 70.972656 61.054688 70.582031 62.914062 L 70.570312 62.953125 L 70.539062 62.972656 C 68.035156 64.589844 65.535156 66.207031 63.042969 67.824219 L 62.890625 67.925781 L 62.890625 67.746094 C 62.890625 62.378906 62.890625 57 62.890625 51.632812 L 62.890625 51.492188 L 63.019531 51.542969 C 65.457031 52.464844 67.890625 53.382812 70.328125 54.300781 C 70.386719 54.050781 70.5 53.816406 70.628906 53.59375 C 68.074219 52.625 65.515625 51.664062 62.949219 50.695312 L 62.890625 50.671875 L 62.890625 50.601562 C 62.890625 49.378906 62.890625 48.148438 62.890625 46.925781 L 62.890625 46.894531 L 62.910156 46.863281 C 64.304688 44.953125 66.234375 43.691406 68.570312 43.277344 C 70.285156 42.960938 72.085938 43.144531 73.734375 43.699219 C 74.359375 43.914062 74.976562 44.175781 75.554688 44.5 L 75.625 44.539062 L 75.59375 44.609375 C 74.765625 47.207031 73.925781 49.804688 73.085938 52.414062 C 73.347656 52.433594 73.601562 52.503906 73.835938 52.605469 C 74.5625 50.332031 75.289062 48.066406 76.027344 45.792969 L 76.109375 45.53125 L 76.210938 45.792969 C 77.675781 49.703125 79.140625 53.613281 80.59375 57.527344 C 80.816406 57.394531 81.0625 57.304688 81.3125 57.242188 C 79.878906 53.402344 78.441406 49.5625 77 45.730469 L 76.867188 45.367188 L 77.160156 45.621094 C 77.351562 45.800781 77.554688 45.984375 77.726562 46.1875 C 78.574219 47.097656 79.203125 48.277344 79.101562 49.550781 C 79.089844 49.765625 79.25 49.945312 79.453125 49.964844 C 79.515625 49.964844 79.566406 49.957031 79.613281 49.945312 L 79.613281 49.9375 L 79.625 49.9375 C 80.140625 49.804688 80.757812 49.886719 81.273438 50.007812 C 82.648438 50.332031 84 51.136719 85.0625 52.070312 L 85.113281 52.109375 L 85.082031 52.179688 C 85.074219 52.199219 85.0625 52.21875 85.054688 52.25 C 84.316406 53.949219 83.566406 55.648438 82.820312 57.34375 C 83.070312 57.445312 83.316406 57.578125 83.515625 57.75 C 84.234375 56.101562 84.941406 54.453125 85.648438 52.816406 L 85.710938 52.675781 L 85.8125 52.785156 C 86.894531 53.9375 87.691406 55.324219 88.117188 56.859375 C 88.570312 58.535156 88.53125 60.273438 88.125 61.960938 C 88.074219 62.164062 88.207031 62.378906 88.417969 62.429688 C 88.429688 62.429688 88.449219 62.4375 88.457031 62.4375 L 88.46875 62.4375 C 89.691406 62.660156 90.914062 62.992188 92.058594 63.488281 C 93.785156 64.226562 95.300781 65.359375 96.148438 67.085938 C 96.433594 67.671875 96.636719 68.300781 96.746094 68.945312 L 96.765625 69.058594 L 96.65625 69.058594 C 96.566406 69.066406 96.484375 69.097656 96.414062 69.160156 C 94.535156 70.847656 92.652344 72.535156 90.761719 74.234375 L 90.683594 74.3125 L 90.621094 74.210938 C 88.214844 70.089844 85.8125 65.976562 83.414062 61.851562 C 83.203125 62.003906 82.972656 62.125 82.730469 62.207031 Z M 95.554688 93.222656 C 96.363281 92.050781 97.179688 90.886719 97.988281 89.714844 C 98.070312 89.59375 98.082031 89.441406 98.007812 89.3125 C 95.976562 85.007812 93.9375 80.710938 91.894531 76.40625 C 91.894531 76.394531 91.886719 76.386719 91.875 76.367188 C 91.621094 75.929688 91.371094 75.496094 91.117188 75.0625 L 91.078125 74.992188 L 91.136719 74.941406 C 92.988281 73.273438 94.847656 71.605469 96.695312 69.9375 L 96.847656 69.796875 L 96.859375 69.996094 C 96.90625 70.917969 96.816406 71.847656 96.65625 72.746094 C 96.351562 74.394531 95.785156 76.023438 95.121094 77.546875 C 95.046875 77.730469 95.121094 77.941406 95.28125 78.03125 L 95.289062 78.042969 C 96.222656 78.640625 97.078125 79.375 97.808594 80.214844 C 99.03125 81.632812 99.929688 83.359375 100.203125 85.230469 C 100.507812 87.269531 100.011719 89.21875 98.910156 90.949219 C 98.304688 91.890625 97.546875 92.726562 96.707031 93.464844 L 96.6875 93.484375 L 96.644531 93.496094 C 96.414062 93.515625 96.179688 93.535156 95.949219 93.546875 L 95.898438 93.554688 L 95.867188 93.515625 C 95.804688 93.433594 95.714844 93.386719 95.613281 93.375 L 95.464844 93.355469 Z M 62.9375 80.832031 C 65.757812 79.023438 68.589844 77.214844 71.410156 75.40625 L 71.511719 75.335938 L 71.550781 75.445312 C 72.492188 77.960938 73.421875 80.476562 74.359375 82.996094 L 74.371094 83.023438 L 74.359375 83.054688 C 73.785156 84.632812 73.207031 86.21875 72.632812 87.796875 L 72.613281 87.855469 L 72.539062 87.855469 C 69.480469 88.039062 66.40625 88.21875 63.332031 88.402344 C 63.222656 88.414062 63.132812 88.460938 63.0625 88.542969 L 62.890625 88.746094 L 62.890625 88.484375 C 62.890625 85.957031 62.890625 83.441406 62.890625 80.914062 L 62.890625 80.863281 Z M 96.777344 94.253906 L 96.867188 94.242188 C 96.949219 94.234375 97.027344 94.203125 97.089844 94.152344 C 98.03125 93.332031 98.878906 92.414062 99.554688 91.363281 C 100.769531 89.472656 101.292969 87.351562 100.972656 85.117188 C 100.679688 83.105469 99.707031 81.246094 98.382812 79.71875 C 97.695312 78.921875 96.898438 78.203125 96.019531 77.597656 L 95.957031 77.558594 L 95.988281 77.488281 C 96.605469 76.011719 97.121094 74.464844 97.414062 72.886719 C 97.789062 70.847656 97.765625 68.652344 96.835938 66.753906 C 95.90625 64.855469 94.269531 63.601562 92.359375 62.773438 C 91.308594 62.316406 90.1875 62.003906 89.054688 61.769531 L 88.964844 61.75 L 88.984375 61.660156 C 89.316406 59.992188 89.296875 58.292969 88.851562 56.65625 C 88.316406 54.707031 87.214844 52.988281 85.730469 51.632812 C 84.558594 50.5625 83.011719 49.632812 81.453125 49.257812 C 80.980469 49.148438 80.464844 49.078125 79.980469 49.105469 L 79.878906 49.117188 L 79.878906 49.027344 C 79.796875 47.742188 79.152344 46.589844 78.300781 45.660156 C 77.714844 45.023438 77.027344 44.488281 76.289062 44.042969 C 76.28125 44.035156 76.28125 44.035156 76.269531 44.023438 L 76.261719 44.023438 C 75.542969 43.589844 74.773438 43.234375 73.976562 42.972656 C 72.207031 42.375 70.277344 42.183594 68.425781 42.515625 C 65.851562 42.984375 63.738281 44.386719 62.222656 46.511719 L 62.210938 46.519531 C 62.152344 46.589844 62.121094 46.679688 62.121094 46.773438 C 62.121094 48.15625 62.121094 49.550781 62.121094 50.9375 C 62.121094 56.839844 62.121094 62.730469 62.121094 68.632812 C 62.121094 82.742188 62.121094 96.859375 62.121094 110.96875 L 62.121094 111.070312 C 62.121094 111.183594 62.171875 111.292969 62.261719 111.363281 C 63.871094 112.71875 65.679688 113.902344 67.660156 114.628906 L 67.660156 114.640625 C 67.679688 114.640625 67.691406 114.648438 67.710938 114.648438 C 69.0625 115.144531 70.480469 115.40625 71.925781 115.398438 C 75.664062 115.355469 78.929688 113.445312 81.636719 111.011719 L 81.675781 110.980469 L 81.71875 110.980469 C 84.40625 111.507812 87.183594 111.335938 89.722656 110.253906 C 91.519531 109.472656 93.109375 108.28125 94.332031 106.757812 C 95.554688 105.25 96.382812 103.460938 96.777344 101.5625 C 97.273438 99.175781 97.058594 96.710938 96.242188 94.425781 L 96.191406 94.304688 L 96.320312 94.292969 C 96.472656 94.285156 96.625 94.265625 96.777344 94.253906 " fill-opacity="1" fill-rule="evenodd"/></g><path stroke-linecap="butt" transform="matrix(0.747627, 0, 0, 0.747627, 53.557533, 105.372104)" fill="none" stroke-linejoin="miter" d="M 28.02761 8.718954 L 5.858496 8.718954 C 3.449831 8.718954 1.500956 6.764853 1.500956 4.361414 L 1.500956 -0.00135072 " stroke="#d9d9d9" stroke-width="3" stroke-opacity="1" stroke-miterlimit="4"/><path stroke-linecap="butt" transform="matrix(0.747627, 0, 0, 0.747627, 52.114767, 45.026992)" fill="none" stroke-linejoin="miter" d="M 30.067128 1.500007 L 26.79636 1.500007 C 25.929032 1.500007 25.098278 1.844848 24.481744 2.456158 C 23.870434 3.072692 23.525593 3.903446 23.525593 4.770775 L 23.525593 14.285259 C 23.525593 17.597825 20.840011 20.283407 17.52222 20.283407 L -0.00198737 20.283407 " stroke="#d9d9d9" stroke-width="3" stroke-opacity="1" stroke-miterlimit="4"/><path stroke-linecap="butt" transform="matrix(0.747627, 0, 0, 0.747627, 52.784375, 72.416326)" fill="none" stroke-linejoin="miter" d="M 42.040333 10.519857 L 34.887488 10.519857 C 32.395226 10.519857 30.378427 8.497833 30.378427 6.010796 C 30.378427 3.518534 28.361628 1.501735 25.869366 1.501735 L 0.00104512 1.501735 " stroke="#d9d9d9" stroke-width="3" stroke-opacity="1" stroke-miterlimit="4"/><path stroke-linecap="butt" transform="matrix(0.747627, 0, 0, 0.747627, 46.051023, 83.971914)" fill="none" stroke-linejoin="miter" d="M -0.000323217 1.500529 L 4.430365 1.500529 C 6.875603 1.500529 8.855828 3.480754 8.855828 5.925993 L 8.855828 7.122487 C 8.855828 10.226059 11.374214 12.73922 14.477786 12.73922 L 41.709798 12.73922 C 43.219784 12.73922 44.667073 13.34008 45.732946 14.405953 C 46.798819 15.471826 47.394454 16.919115 47.394454 18.423877 L 47.394454 24.113758 " stroke="#d9d9d9" stroke-width="3" stroke-opacity="1" stroke-miterlimit="4"/><g clip-path="url(#13bdbff20b)"><path fill="#d9d9d9" d="M 49.992188 49.667969 C 52.257812 50.078125 54.117188 51.316406 55.453125 53.183594 L 55.460938 53.191406 C 55.515625 53.253906 55.542969 53.332031 55.542969 53.414062 C 55.542969 54.632812 55.542969 55.859375 55.542969 57.078125 C 55.542969 62.273438 55.542969 67.457031 55.542969 72.652344 C 55.542969 85.066406 55.542969 97.492188 55.542969 109.910156 L 55.542969 110 C 55.542969 110.097656 55.496094 110.195312 55.417969 110.257812 C 54.003906 111.449219 52.410156 112.488281 50.667969 113.128906 L 50.667969 113.136719 C 50.648438 113.136719 50.640625 113.148438 50.621094 113.148438 C 49.429688 113.582031 48.1875 113.8125 46.914062 113.804688 C 43.625 113.769531 40.75 112.089844 38.367188 109.945312 L 38.332031 109.917969 L 38.296875 109.917969 C 35.929688 110.378906 33.484375 110.230469 31.25 109.277344 C 29.667969 108.59375 28.273438 107.542969 27.195312 106.199219 C 26.121094 104.875 25.390625 103.300781 25.042969 101.628906 C 24.605469 99.53125 24.792969 97.359375 25.515625 95.347656 L 25.558594 95.242188 L 25.445312 95.234375 C 25.308594 95.226562 25.175781 95.207031 25.042969 95.199219 L 24.964844 95.191406 C 24.890625 95.179688 24.820312 95.152344 24.765625 95.109375 C 23.941406 94.386719 23.191406 93.578125 22.597656 92.65625 C 21.53125 90.992188 21.066406 89.125 21.351562 87.15625 C 21.609375 85.386719 22.464844 83.75 23.628906 82.410156 C 24.234375 81.707031 24.9375 81.074219 25.710938 80.542969 L 25.765625 80.503906 L 25.738281 80.441406 C 25.195312 79.144531 24.742188 77.785156 24.484375 76.394531 C 24.152344 74.597656 24.171875 72.667969 24.988281 70.996094 C 25.808594 69.324219 27.25 68.222656 28.929688 67.492188 C 29.855469 67.09375 30.84375 66.816406 31.839844 66.613281 L 31.917969 66.59375 L 31.902344 66.515625 C 31.605469 65.046875 31.625 63.550781 32.015625 62.113281 C 32.488281 60.394531 33.457031 58.882812 34.765625 57.691406 C 35.796875 56.75 37.15625 55.929688 38.527344 55.601562 C 38.945312 55.503906 39.398438 55.441406 39.824219 55.46875 L 39.914062 55.476562 L 39.914062 55.398438 C 39.984375 54.265625 40.554688 53.253906 41.300781 52.433594 C 41.816406 51.875 42.421875 51.402344 43.070312 51.011719 C 43.082031 51.003906 43.082031 51.003906 43.089844 50.996094 L 43.097656 50.996094 C 43.730469 50.613281 44.40625 50.300781 45.109375 50.070312 C 46.664062 49.546875 48.363281 49.375 49.992188 49.667969 Z M 82.273438 100.632812 C 83.199219 100.632812 83.953125 101.378906 83.953125 102.3125 C 83.953125 103.238281 83.199219 103.996094 82.273438 103.996094 C 81.347656 103.996094 80.59375 103.238281 80.59375 102.3125 C 80.59375 101.378906 81.347656 100.632812 82.273438 100.632812 Z M 66.378906 93.417969 C 67.304688 93.417969 68.0625 94.175781 68.0625 95.101562 C 68.0625 96.027344 67.304688 96.78125 66.378906 96.78125 C 65.453125 96.78125 64.699219 96.027344 64.699219 95.101562 C 64.699219 94.175781 65.453125 93.417969 66.378906 93.417969 Z M 69.839844 103.070312 C 70.773438 103.070312 71.519531 103.816406 71.519531 104.75 C 71.519531 105.675781 70.773438 106.421875 69.839844 106.421875 C 68.914062 106.421875 68.167969 105.675781 68.167969 104.75 C 68.167969 103.816406 68.914062 103.070312 69.839844 103.070312 Z M 81.820312 93.988281 C 82.746094 93.988281 83.5 94.734375 83.5 95.660156 C 83.5 96.59375 82.746094 97.339844 81.820312 97.339844 C 80.894531 97.339844 80.140625 96.59375 80.140625 95.660156 C 80.140625 94.734375 80.894531 93.988281 81.820312 93.988281 Z M 80.839844 78.949219 C 81.765625 78.949219 82.523438 79.703125 82.523438 80.628906 C 82.523438 81.554688 81.765625 82.3125 80.839844 82.3125 C 79.910156 82.3125 79.160156 81.554688 79.160156 80.628906 C 79.160156 79.703125 79.910156 78.949219 80.839844 78.949219 Z M 71.273438 86.667969 C 72.195312 86.667969 72.945312 87.425781 72.945312 88.351562 C 72.945312 89.273438 72.195312 90.03125 71.273438 90.03125 C 70.335938 90.03125 69.589844 89.273438 69.589844 88.351562 C 69.589844 87.425781 70.335938 86.667969 71.273438 86.667969 Z M 65.527344 70.5 C 66.453125 70.5 67.199219 71.246094 67.199219 72.171875 C 67.199219 73.105469 66.453125 73.851562 65.527344 73.851562 C 64.59375 73.851562 63.84375 73.105469 63.84375 72.171875 C 63.84375 71.246094 64.59375 70.5 65.527344 70.5 Z M 73.398438 70.25 C 74.324219 70.25 75.078125 71.007812 75.078125 71.929688 C 75.078125 72.855469 74.324219 73.613281 73.398438 73.613281 C 72.472656 73.613281 71.714844 72.855469 71.714844 71.929688 C 71.714844 71.007812 72.472656 70.25 73.398438 70.25 Z M 76.082031 63.160156 C 77.007812 63.160156 77.753906 63.910156 77.753906 64.84375 C 77.753906 65.765625 77.007812 66.523438 76.082031 66.523438 C 75.148438 66.523438 74.402344 65.765625 74.402344 64.84375 C 74.402344 63.910156 75.148438 63.160156 76.082031 63.160156 Z M 68.078125 58.953125 C 69.003906 58.953125 69.761719 59.703125 69.761719 60.636719 C 69.761719 61.558594 69.003906 62.308594 68.078125 62.308594 C 67.152344 62.308594 66.398438 61.558594 66.398438 60.636719 C 66.398438 59.703125 67.152344 58.953125 68.078125 58.953125 Z M 73.871094 64.300781 C 73.921875 64.078125 74.011719 63.863281 74.136719 63.667969 C 72.828125 62.914062 71.53125 62.148438 70.222656 61.382812 C 70.152344 61.597656 70.042969 61.800781 69.910156 61.980469 C 71.226562 62.753906 72.554688 63.527344 73.871094 64.300781 Z M 67.792969 72.171875 C 68.90625 72.117188 70.019531 72.054688 71.128906 72.003906 C 71.128906 71.976562 71.128906 71.957031 71.128906 71.929688 C 71.128906 71.726562 71.15625 71.523438 71.210938 71.316406 C 70.035156 71.378906 68.863281 71.441406 67.6875 71.496094 C 67.757812 71.71875 67.792969 71.941406 67.792969 72.171875 Z M 68.550781 102.882812 C 68.738281 102.75 68.941406 102.652344 69.164062 102.582031 C 68.566406 100.765625 67.964844 98.960938 67.367188 97.144531 C 67.164062 97.242188 66.949219 97.316406 66.71875 97.351562 C 67.332031 99.191406 67.9375 101.03125 68.550781 102.882812 Z M 70.167969 90.34375 C 69.972656 90.226562 69.785156 90.09375 69.636719 89.921875 C 68.914062 90.992188 68.195312 92.050781 67.472656 93.117188 C 67.679688 93.222656 67.855469 93.367188 68.015625 93.527344 C 68.738281 92.46875 69.457031 91.398438 70.167969 90.34375 Z M 80.183594 97.234375 C 80.023438 97.074219 79.890625 96.886719 79.792969 96.683594 C 77.007812 98.835938 74.226562 100.988281 71.441406 103.132812 C 71.601562 103.292969 71.742188 103.480469 71.851562 103.675781 C 74.625 101.53125 77.398438 99.386719 80.183594 97.234375 Z M 81.472656 93.417969 C 80.824219 91.757812 80.175781 90.101562 79.527344 88.4375 L 79.515625 88.421875 L 79.527344 88.394531 C 79.960938 86.5625 80.386719 84.730469 80.824219 82.898438 C 80.59375 82.898438 80.371094 82.863281 80.148438 82.789062 C 79.710938 84.648438 79.277344 86.507812 78.839844 88.367188 C 78.824219 88.429688 78.824219 88.5 78.851562 88.5625 C 79.507812 90.253906 80.167969 91.933594 80.824219 93.625 C 81.027344 93.527344 81.25 93.457031 81.472656 93.417969 Z M 73.210938 89.523438 C 73.09375 89.71875 72.945312 89.898438 72.773438 90.046875 C 75.125 91.550781 77.480469 93.054688 79.835938 94.558594 C 79.953125 94.351562 80.085938 94.175781 80.253906 94.023438 C 77.90625 92.519531 75.558594 91.027344 73.210938 89.523438 Z M 75.71875 67.082031 C 75.488281 67.046875 75.273438 66.976562 75.070312 66.871094 C 74.652344 67.8125 74.242188 68.757812 73.832031 69.699219 C 74.054688 69.742188 74.269531 69.824219 74.472656 69.929688 C 74.882812 68.976562 75.300781 68.035156 75.71875 67.082031 Z M 80.167969 102.980469 C 80.09375 102.765625 80.058594 102.535156 80.058594 102.3125 L 72.019531 104.101562 C 72.082031 104.304688 72.117188 104.527344 72.117188 104.75 C 72.117188 104.75 72.117188 104.757812 72.117188 104.769531 Z M 76.804688 66.996094 C 78.957031 70.675781 81.101562 74.367188 83.253906 78.050781 L 83.289062 78.113281 L 83.234375 78.15625 C 82.941406 78.414062 82.648438 78.683594 82.363281 78.9375 C 82.53125 79.089844 82.675781 79.269531 82.789062 79.464844 C 83.046875 79.234375 83.304688 79 83.554688 78.78125 L 83.636719 78.707031 L 83.6875 78.796875 C 83.882812 79.125 84.070312 79.457031 84.265625 79.792969 C 86.027344 83.511719 87.789062 87.21875 89.550781 90.9375 L 89.566406 90.984375 L 89.539062 91.019531 C 88.6875 92.238281 87.839844 93.457031 86.996094 94.671875 L 86.96875 94.710938 L 86.933594 94.710938 C 85.945312 94.789062 84.960938 94.878906 83.980469 94.957031 C 84.050781 95.179688 84.089844 95.402344 84.089844 95.632812 C 84.828125 95.570312 85.554688 95.507812 86.285156 95.445312 L 86.472656 95.429688 L 83.101562 100.257812 C 83.3125 100.347656 83.511719 100.464844 83.6875 100.605469 L 87.34375 95.359375 L 87.386719 95.347656 C 87.558594 95.339844 87.71875 95.324219 87.886719 95.304688 L 87.949219 95.304688 L 87.976562 95.359375 C 88.714844 97.316406 88.933594 99.441406 88.507812 101.496094 C 88.179688 103.058594 87.496094 104.527344 86.488281 105.773438 C 86.160156 106.191406 85.796875 106.574219 85.40625 106.929688 L 85.324219 107 L 83.636719 104.054688 C 83.457031 104.199219 83.261719 104.304688 83.046875 104.386719 L 84.792969 107.425781 L 84.738281 107.472656 C 84.105469 107.941406 83.414062 108.34375 82.691406 108.65625 C 80.523438 109.578125 78.128906 109.695312 75.84375 109.214844 C 75.738281 109.199219 75.621094 109.222656 75.542969 109.296875 C 73.265625 111.394531 70.472656 113.09375 67.289062 113.128906 C 66.292969 113.136719 65.304688 112.984375 64.351562 112.691406 L 64.238281 112.65625 L 64.308594 112.558594 C 65.777344 110.613281 67.242188 108.664062 68.710938 106.714844 C 68.515625 106.601562 68.335938 106.457031 68.1875 106.296875 C 66.65625 108.316406 65.125 110.34375 63.605469 112.363281 L 63.5625 112.417969 L 63.5 112.390625 C 62.003906 111.792969 60.617188 110.894531 59.378906 109.863281 L 59.34375 109.835938 L 59.34375 109.800781 C 59.34375 105.328125 59.34375 100.855469 59.34375 96.390625 L 59.34375 96.308594 L 59.425781 96.300781 C 61.027344 96.148438 62.628906 96 64.238281 95.847656 C 64.15625 95.632812 64.121094 95.410156 64.113281 95.179688 C 62.554688 95.332031 61 95.472656 59.441406 95.625 L 59.34375 95.632812 L 59.34375 95.535156 C 59.34375 93.910156 59.34375 92.289062 59.34375 90.660156 L 59.34375 90.429688 L 59.496094 90.609375 C 59.566406 90.6875 59.664062 90.734375 59.773438 90.722656 C 62.574219 90.554688 65.367188 90.394531 68.160156 90.226562 C 68.292969 90.21875 68.40625 90.128906 68.453125 90.003906 C 68.640625 89.503906 68.816406 89.007812 69.003906 88.511719 C 68.996094 88.457031 68.996094 88.402344 68.996094 88.351562 C 68.996094 87.753906 69.226562 87.195312 69.636719 86.765625 C 69.671875 86.6875 69.699219 86.597656 69.734375 86.507812 L 69.8125 86.292969 L 69.894531 86.507812 C 69.894531 86.519531 69.894531 86.527344 69.902344 86.535156 C 70.082031 86.402344 70.285156 86.285156 70.5 86.214844 C 70.390625 85.921875 70.285156 85.636719 70.179688 85.34375 L 70.167969 85.316406 L 70.179688 85.289062 C 70.488281 84.417969 70.808594 83.554688 71.121094 82.691406 L 71.128906 82.675781 L 71.136719 82.667969 C 72.542969 81.046875 73.949219 79.421875 75.355469 77.800781 L 75.398438 77.746094 L 75.460938 77.785156 C 75.523438 77.820312 75.585938 77.855469 75.65625 77.898438 L 75.683594 77.90625 L 75.691406 77.933594 C 76.046875 78.804688 76.414062 79.667969 76.777344 80.53125 L 76.796875 80.578125 L 76.757812 80.621094 C 75.273438 82.515625 73.78125 84.417969 72.285156 86.320312 C 72.492188 86.417969 72.675781 86.554688 72.847656 86.714844 C 74.375 84.757812 75.914062 82.800781 77.453125 80.84375 C 77.523438 80.746094 77.542969 80.601562 77.488281 80.488281 C 77.238281 79.890625 76.992188 79.296875 76.742188 78.699219 L 76.644531 78.46875 L 76.867188 78.601562 C 77.5 78.964844 78.128906 79.332031 78.769531 79.695312 C 78.859375 79.492188 78.984375 79.296875 79.132812 79.125 C 78.175781 78.574219 77.203125 78.015625 76.242188 77.453125 L 76.21875 77.4375 L 76.207031 77.410156 C 75.703125 76.210938 75.203125 75 74.695312 73.800781 C 74.507812 73.921875 74.304688 74.03125 74.089844 74.101562 C 74.472656 75.027344 74.867188 75.960938 75.246094 76.886719 L 75.28125 76.964844 L 75.203125 77 C 75.148438 77.019531 75.097656 77.054688 75.0625 77.097656 L 75.0625 77.105469 C 73.566406 78.832031 72.074219 80.558594 70.578125 82.285156 C 70.550781 82.3125 70.535156 82.347656 70.515625 82.390625 C 70.300781 82.96875 70.097656 83.546875 69.882812 84.125 L 69.804688 84.339844 L 69.722656 84.125 C 68.984375 82.140625 68.25 80.15625 67.511719 78.175781 L 67.492188 78.121094 L 67.535156 78.085938 C 68.976562 76.589844 70.417969 75.097656 71.867188 73.613281 C 71.699219 73.453125 71.554688 73.273438 71.441406 73.078125 C 69.921875 74.644531 68.40625 76.199219 66.894531 77.765625 L 66.886719 77.773438 L 66.878906 77.773438 C 64.671875 79.1875 62.464844 80.601562 60.269531 82.015625 L 59.976562 82.203125 L 60.144531 81.902344 C 61.605469 79.339844 63.0625 76.777344 64.511719 74.207031 C 64.308594 74.109375 64.121094 73.976562 63.960938 73.816406 C 62.476562 76.429688 60.992188 79.046875 59.503906 81.660156 L 59.34375 81.945312 L 59.34375 81.625 C 59.34375 78.761719 59.34375 75.890625 59.34375 73.023438 L 59.34375 72.953125 L 59.425781 72.945312 C 60.707031 72.800781 61.996094 72.660156 63.277344 72.527344 C 63.257812 72.410156 63.25 72.285156 63.25 72.171875 C 63.25 72.0625 63.257812 71.949219 63.277344 71.84375 C 62.429688 71.929688 61.585938 72.027344 60.742188 72.117188 L 60.386719 72.152344 L 60.6875 71.964844 C 62.644531 70.695312 64.609375 69.421875 66.566406 68.160156 L 66.566406 68.152344 C 66.65625 68.105469 66.71875 68.027344 66.734375 67.929688 C 67.101562 66.25 67.464844 64.566406 67.828125 62.886719 C 67.597656 62.859375 67.375 62.804688 67.171875 62.714844 C 66.816406 64.34375 66.460938 65.980469 66.113281 67.617188 L 66.105469 67.652344 L 66.078125 67.671875 C 63.871094 69.09375 61.675781 70.515625 59.480469 71.941406 L 59.34375 72.027344 L 59.34375 71.867188 C 59.34375 67.144531 59.34375 62.414062 59.34375 57.691406 L 59.34375 57.566406 L 59.460938 57.613281 C 61.605469 58.421875 63.746094 59.230469 65.890625 60.039062 C 65.945312 59.816406 66.042969 59.613281 66.15625 59.417969 C 63.90625 58.5625 61.65625 57.71875 59.398438 56.863281 L 59.34375 56.847656 L 59.34375 56.785156 C 59.34375 55.707031 59.34375 54.625 59.34375 53.546875 L 59.34375 53.519531 L 59.363281 53.492188 C 60.589844 51.8125 62.289062 50.699219 64.34375 50.335938 C 65.855469 50.0625 67.4375 50.222656 68.886719 50.710938 C 69.441406 50.898438 69.984375 51.128906 70.488281 51.414062 L 70.550781 51.449219 L 70.523438 51.511719 C 69.796875 53.796875 69.058594 56.082031 68.320312 58.375 C 68.550781 58.394531 68.773438 58.457031 68.976562 58.546875 C 69.617188 56.542969 70.257812 54.550781 70.90625 52.550781 L 70.976562 52.320312 L 71.066406 52.550781 C 72.355469 55.992188 73.648438 59.433594 74.925781 62.875 C 75.125 62.761719 75.335938 62.679688 75.558594 62.628906 C 74.296875 59.246094 73.03125 55.867188 71.761719 52.496094 L 71.644531 52.175781 L 71.902344 52.398438 C 72.074219 52.558594 72.25 52.71875 72.402344 52.898438 C 73.148438 53.699219 73.699219 54.738281 73.609375 55.859375 C 73.601562 56.046875 73.746094 56.207031 73.921875 56.222656 C 73.976562 56.222656 74.019531 56.214844 74.0625 56.207031 L 74.0625 56.199219 L 74.074219 56.199219 C 74.527344 56.082031 75.070312 56.152344 75.523438 56.261719 C 76.734375 56.542969 77.925781 57.253906 78.859375 58.074219 L 78.902344 58.109375 L 78.875 58.171875 C 78.867188 58.191406 78.859375 58.207031 78.851562 58.234375 C 78.199219 59.726562 77.542969 61.222656 76.882812 62.714844 C 77.105469 62.804688 77.320312 62.921875 77.5 63.074219 C 78.128906 61.621094 78.753906 60.171875 79.375 58.730469 L 79.429688 58.609375 L 79.515625 58.707031 C 80.46875 59.71875 81.171875 60.9375 81.542969 62.289062 C 81.945312 63.765625 81.910156 65.296875 81.554688 66.78125 C 81.507812 66.960938 81.625 67.144531 81.8125 67.191406 C 81.820312 67.191406 81.839844 67.199219 81.847656 67.199219 L 81.855469 67.199219 C 82.933594 67.394531 84.007812 67.6875 85.011719 68.125 C 86.535156 68.773438 87.867188 69.769531 88.617188 71.292969 C 88.863281 71.808594 89.042969 72.359375 89.140625 72.925781 L 89.160156 73.023438 L 89.058594 73.023438 C 88.980469 73.035156 88.910156 73.0625 88.847656 73.113281 C 87.191406 74.597656 85.539062 76.085938 83.875 77.578125 L 83.804688 77.648438 L 83.75 77.5625 C 81.632812 73.933594 79.515625 70.3125 77.410156 66.683594 C 77.222656 66.816406 77.015625 66.925781 76.804688 66.996094 Z M 88.089844 94.289062 C 88.800781 93.257812 89.523438 92.238281 90.234375 91.203125 C 90.304688 91.097656 90.3125 90.964844 90.25 90.847656 C 88.464844 87.058594 86.667969 83.28125 84.871094 79.492188 C 84.871094 79.480469 84.863281 79.472656 84.855469 79.457031 C 84.628906 79.074219 84.410156 78.691406 84.1875 78.308594 L 84.152344 78.246094 L 84.203125 78.199219 C 85.832031 76.734375 87.46875 75.265625 89.097656 73.800781 L 89.230469 73.675781 L 89.238281 73.851562 C 89.28125 74.660156 89.203125 75.480469 89.058594 76.273438 C 88.792969 77.722656 88.296875 79.152344 87.707031 80.496094 C 87.644531 80.65625 87.707031 80.84375 87.851562 80.921875 L 87.859375 80.933594 C 88.679688 81.457031 89.433594 82.105469 90.074219 82.84375 C 91.152344 84.089844 91.941406 85.609375 92.183594 87.253906 C 92.449219 89.050781 92.011719 90.769531 91.042969 92.289062 C 90.511719 93.117188 89.84375 93.855469 89.105469 94.503906 L 89.085938 94.523438 L 89.050781 94.53125 C 88.847656 94.550781 88.640625 94.566406 88.4375 94.574219 L 88.394531 94.585938 L 88.367188 94.550781 C 88.3125 94.476562 88.234375 94.433594 88.144531 94.425781 L 88.011719 94.40625 Z M 59.390625 83.386719 C 61.871094 81.796875 64.359375 80.203125 66.84375 78.609375 L 66.933594 78.546875 L 66.96875 78.644531 C 67.792969 80.859375 68.613281 83.074219 69.441406 85.289062 L 69.449219 85.316406 L 69.441406 85.34375 C 68.933594 86.730469 68.425781 88.128906 67.917969 89.515625 L 67.902344 89.566406 L 67.839844 89.566406 C 65.144531 89.726562 62.441406 89.886719 59.734375 90.046875 C 59.640625 90.058594 59.558594 90.101562 59.496094 90.171875 L 59.34375 90.351562 L 59.34375 90.121094 C 59.34375 87.894531 59.34375 85.679688 59.34375 83.457031 L 59.34375 83.414062 Z M 89.167969 95.199219 L 89.246094 95.1875 C 89.320312 95.179688 89.390625 95.152344 89.441406 95.109375 C 90.269531 94.386719 91.015625 93.578125 91.613281 92.65625 C 92.679688 90.992188 93.144531 89.125 92.859375 87.15625 C 92.601562 85.386719 91.746094 83.75 90.582031 82.410156 C 89.976562 81.707031 89.273438 81.074219 88.5 80.542969 L 88.445312 80.503906 L 88.472656 80.441406 C 89.015625 79.144531 89.46875 77.785156 89.726562 76.394531 C 90.054688 74.597656 90.039062 72.667969 89.21875 70.996094 C 88.402344 69.324219 86.960938 68.222656 85.28125 67.492188 C 84.355469 67.09375 83.367188 66.816406 82.371094 66.613281 L 82.292969 66.59375 L 82.308594 66.515625 C 82.601562 65.046875 82.585938 63.550781 82.195312 62.113281 C 81.722656 60.394531 80.753906 58.882812 79.445312 57.691406 C 78.414062 56.75 77.054688 55.929688 75.683594 55.601562 C 75.265625 55.503906 74.8125 55.441406 74.386719 55.46875 L 74.296875 55.476562 L 74.296875 55.398438 C 74.226562 54.265625 73.65625 53.253906 72.910156 52.433594 C 72.394531 51.875 71.789062 51.402344 71.136719 51.011719 C 71.128906 51.003906 71.128906 51.003906 71.121094 50.996094 L 71.113281 50.996094 C 70.480469 50.613281 69.804688 50.300781 69.101562 50.070312 C 67.546875 49.546875 65.847656 49.375 64.21875 49.667969 C 61.949219 50.078125 60.09375 51.316406 58.757812 53.183594 L 58.75 53.191406 C 58.695312 53.253906 58.667969 53.332031 58.667969 53.414062 C 58.667969 54.632812 58.667969 55.859375 58.667969 57.078125 C 58.667969 62.273438 58.667969 67.457031 58.667969 72.652344 C 58.667969 85.066406 58.667969 97.492188 58.667969 109.910156 L 58.667969 110 C 58.667969 110.097656 58.714844 110.195312 58.792969 110.257812 C 60.207031 111.449219 61.800781 112.488281 63.542969 113.128906 L 63.542969 113.136719 C 63.5625 113.136719 63.570312 113.148438 63.585938 113.148438 C 64.777344 113.582031 66.023438 113.8125 67.296875 113.804688 C 70.585938 113.769531 73.460938 112.089844 75.84375 109.945312 L 75.878906 109.917969 L 75.914062 109.917969 C 78.28125 110.378906 80.726562 110.230469 82.960938 109.277344 C 84.542969 108.59375 85.9375 107.542969 87.015625 106.199219 C 88.089844 104.875 88.820312 103.300781 89.167969 101.628906 C 89.601562 99.53125 89.414062 97.359375 88.695312 95.347656 L 88.652344 95.242188 L 88.765625 95.234375 C 88.898438 95.226562 89.035156 95.207031 89.167969 95.199219 " fill-opacity="1" fill-rule="evenodd"/></g></svg>