<svg xmlns="http://www.w3.org/2000/svg" xmlns:xlink="http://www.w3.org/1999/xlink" width="40" zoomAndPan="magnify" viewBox="0 0 30 30.000001" height="40" preserveAspectRatio="xMidYMid meet" version="1.0"><defs><clipPath id="ac0932ddeb"><path d="M 19.734375 0.867188 L 24.816406 0.867188 L 24.816406 5.949219 L 19.734375 5.949219 Z M 19.734375 0.867188 " clip-rule="nonzero"/></clipPath><clipPath id="c39e7e103b"><path d="M 22.449219 0.867188 C 20.949219 0.867188 19.734375 2.082031 19.734375 3.582031 C 19.734375 5.082031 20.949219 6.300781 22.449219 6.300781 C 23.949219 6.300781 25.167969 5.082031 25.167969 3.582031 C 25.167969 2.082031 23.949219 0.867188 22.449219 0.867188 Z M 22.449219 0.867188 " clip-rule="nonzero"/></clipPath><clipPath id="6bd9041f66"><path d="M 23.175781 12.234375 L 28.253906 12.234375 L 28.253906 17.3125 L 23.175781 17.3125 Z M 23.175781 12.234375 " clip-rule="nonzero"/></clipPath><clipPath id="f6f898befb"><path d="M 25.890625 12.234375 C 24.390625 12.234375 23.175781 13.449219 23.175781 14.949219 C 23.175781 16.449219 24.390625 17.664062 25.890625 17.664062 C 27.390625 17.664062 28.605469 16.449219 28.605469 14.949219 C 28.605469 13.449219 27.390625 12.234375 25.890625 12.234375 Z M 25.890625 12.234375 " clip-rule="nonzero"/></clipPath><clipPath id="3c92f9d46d"><path d="M 19 22 L 26 22 L 26 28 L 19 28 Z M 19 22 " clip-rule="nonzero"/></clipPath><clipPath id="893789c528"><path d="M 26.273438 25.050781 L 22.683594 28.644531 L 19.089844 25.050781 L 22.683594 21.457031 Z M 26.273438 25.050781 " clip-rule="nonzero"/></clipPath><clipPath id="0bcc5a50d8"><path d="M 26.273438 25.050781 L 22.433594 28.890625 L 18.59375 25.050781 L 22.433594 21.210938 Z M 26.273438 25.050781 " clip-rule="nonzero"/></clipPath><clipPath id="9b5421b992"><path d="M 24.355469 26.972656 C 25.414062 25.910156 25.414062 24.191406 24.355469 23.128906 C 23.292969 22.070312 21.574219 22.070312 20.511719 23.128906 C 19.453125 24.191406 19.453125 25.910156 20.511719 26.972656 C 21.574219 28.03125 23.292969 28.03125 24.355469 26.972656 Z M 24.355469 26.972656 " clip-rule="nonzero"/></clipPath><clipPath id="1022242274"><path d="M 5 17 L 29 17 L 29 29.03125 L 5 29.03125 Z M 5 17 " clip-rule="nonzero"/></clipPath><clipPath id="214e2f6087"><path d="M 6 4 L 29.515625 4 L 29.515625 24 L 6 24 Z M 6 4 " clip-rule="nonzero"/></clipPath><clipPath id="72ded1d8cc"><path d="M 13 0 L 29.515625 0 L 29.515625 22 L 13 22 Z M 13 0 " clip-rule="nonzero"/></clipPath><clipPath id="1d93c1f872"><path d="M 6 8 L 29.515625 8 L 29.515625 29.03125 L 6 29.03125 Z M 6 8 " clip-rule="nonzero"/></clipPath><clipPath id="9dd75f46f5"><path d="M 14 9 L 29.515625 9 L 29.515625 29.03125 L 14 29.03125 Z M 14 9 " clip-rule="nonzero"/></clipPath><clipPath id="6f41e5167a"><path d="M 19.433594 1 L 24.511719 1 L 24.511719 6.082031 L 19.433594 6.082031 Z M 19.433594 1 " clip-rule="nonzero"/></clipPath><clipPath id="b5acde4fa0"><path d="M 22.148438 1 C 20.648438 1 19.433594 2.214844 19.433594 3.714844 C 19.433594 5.214844 20.648438 6.433594 22.148438 6.433594 C 23.648438 6.433594 24.863281 5.214844 24.863281 3.714844 C 24.863281 2.214844 23.648438 1 22.148438 1 Z M 22.148438 1 " clip-rule="nonzero"/></clipPath><clipPath id="d3c7754f1d"><path d="M 22.871094 12.367188 L 27.953125 12.367188 L 27.953125 17.445312 L 22.871094 17.445312 Z M 22.871094 12.367188 " clip-rule="nonzero"/></clipPath><clipPath id="f045e9b9dd"><path d="M 25.589844 12.367188 C 24.089844 12.367188 22.871094 13.582031 22.871094 15.082031 C 22.871094 16.582031 24.089844 17.796875 25.589844 17.796875 C 27.089844 17.796875 28.304688 16.582031 28.304688 15.082031 C 28.304688 13.582031 27.089844 12.367188 25.589844 12.367188 Z M 25.589844 12.367188 " clip-rule="nonzero"/></clipPath><clipPath id="888a22ecaf"><path d="M 19 22 L 25 22 L 25 28 L 19 28 Z M 19 22 " clip-rule="nonzero"/></clipPath><clipPath id="36412dfdfb"><path d="M 25.972656 25.183594 L 22.378906 28.777344 L 18.789062 25.183594 L 22.378906 21.589844 Z M 25.972656 25.183594 " clip-rule="nonzero"/></clipPath><clipPath id="f7481cbb29"><path d="M 25.972656 25.183594 L 22.132812 29.023438 L 18.289062 25.183594 L 22.132812 21.34375 Z M 25.972656 25.183594 " clip-rule="nonzero"/></clipPath><clipPath id="241efd1da1"><path d="M 24.050781 27.105469 C 25.113281 26.042969 25.113281 24.324219 24.050781 23.261719 C 22.992188 22.203125 21.273438 22.203125 20.210938 23.261719 C 19.152344 24.324219 19.152344 26.042969 20.210938 27.105469 C 21.273438 28.164062 22.992188 28.164062 24.050781 27.105469 Z M 24.050781 27.105469 " clip-rule="nonzero"/></clipPath><clipPath id="d027875acf"><path d="M 0.484375 0 L 15.726562 0 L 15.726562 28.304688 L 0.484375 28.304688 Z M 0.484375 0 " clip-rule="nonzero"/></clipPath><clipPath id="42eb6b882f"><path d="M 1.441406 2.757812 L 14.507812 2.757812 L 14.507812 26.710938 L 1.441406 26.710938 Z M 1.441406 2.757812 " clip-rule="nonzero"/></clipPath><clipPath id="68dd030e03"><path d="M 8 19 L 24 19 L 24 29.03125 L 8 29.03125 Z M 8 19 " clip-rule="nonzero"/></clipPath><clipPath id="9e5cc79d80"><path d="M 1.636719 5.085938 L 13.25 5.085938 L 13.25 26 L 1.636719 26 Z M 1.636719 5.085938 " clip-rule="nonzero"/></clipPath></defs><g clip-path="url(#ac0932ddeb)"><g clip-path="url(#c39e7e103b)"><path stroke-linecap="butt" transform="matrix(0.725806, 0, 0, 0.725806, 19.73393, 0.866789)" fill="none" stroke-linejoin="miter" d="M 3.741064 0.000548658 C 1.674398 0.000548658 0.000612914 1.674333 0.000612914 3.741 C 0.000612914 5.807667 1.674398 7.486833 3.741064 7.486833 C 5.807731 7.486833 7.486898 5.807667 7.486898 3.741 C 7.486898 1.674333 5.807731 0.000548658 3.741064 0.000548658 Z M 3.741064 0.000548658 " stroke="#d9d9d9" stroke-width="4" stroke-opacity="1" stroke-miterlimit="4"/></g></g><g clip-path="url(#6bd9041f66)"><g clip-path="url(#f6f898befb)"><path stroke-linecap="butt" transform="matrix(0.725806, 0, 0, 0.725806, 23.174823, 12.23271)" fill="none" stroke-linejoin="miter" d="M 3.741771 0.00229355 C 1.675105 0.00229355 0.00131977 1.676078 0.00131977 3.742745 C 0.00131977 5.809412 1.675105 7.483196 3.741771 7.483196 C 5.808438 7.483196 7.482223 5.809412 7.482223 3.742745 C 7.482223 1.676078 5.808438 0.00229355 3.741771 0.00229355 Z M 3.741771 0.00229355 " stroke="#d9d9d9" stroke-width="4" stroke-opacity="1" stroke-miterlimit="4"/></g></g><g clip-path="url(#3c92f9d46d)"><g clip-path="url(#893789c528)"><g clip-path="url(#0bcc5a50d8)"><g clip-path="url(#9b5421b992)"><path stroke-linecap="butt" transform="matrix(-0.513223, 0.513223, -0.513223, -0.513223, 26.275333, 25.050453)" fill="none" stroke-linejoin="miter" d="M 3.743081 -0.00227835 C 1.676635 0.00152726 0.00216668 1.675995 -0.00163893 3.742441 C 0.00216668 5.808887 1.676635 7.483355 3.743081 7.487161 C 5.809527 7.483355 7.483995 5.808887 7.4878 3.742441 C 7.483995 1.675995 5.809527 0.00152726 3.743081 -0.00227835 Z M 3.743081 -0.00227835 " stroke="#d9d9d9" stroke-width="4" stroke-opacity="1" stroke-miterlimit="4"/></g></g></g></g><g clip-path="url(#1022242274)"><path stroke-linecap="butt" transform="matrix(0.725806, 0, 0, 0.725806, 12.847225, 24.591233)" fill="none" stroke-linejoin="miter" d="M 10.732192 1.026037 L 1.0124 1.026037 C 1.0124 1.026037 1.007018 1.026037 1.001636 1.026037 C 1.001636 1.020655 1.001636 1.015273 1.001636 1.015273 C 1.001636 1.009891 1.001636 1.004509 1.001636 1.004509 C 1.007018 0.999127 1.0124 0.999127 1.0124 0.999127 L 3.730282 0.999127 " stroke="#d9d9d9" stroke-width="2" stroke-opacity="1" stroke-miterlimit="4"/></g><path stroke-linecap="butt" transform="matrix(0.725806, 0, 0, 0.725806, 15.096878, 3.104147)" fill="none" stroke-linejoin="miter" d="M 7.368954 0.997481 L 5.431454 0.997481 C 4.914787 0.997481 4.419648 1.201995 4.059058 1.567967 C 3.693086 1.933939 3.488572 2.423696 3.488572 2.940363 L 3.488572 5.475259 C 3.488572 5.938106 3.305586 6.379425 2.977287 6.707724 C 2.648988 7.036022 2.207669 7.219009 1.744822 7.219009 L 0.00107169 7.219009 " stroke="#d9d9d9" stroke-width="2" stroke-opacity="1" stroke-miterlimit="4"/><g clip-path="url(#214e2f6087)"><path stroke-linecap="butt" transform="matrix(0.725806, 0, 0, 0.725806, 14.873078, 12.336241)" fill="none" stroke-linejoin="miter" d="M 12.025912 4.00913 L 7.871051 4.00913 C 7.042231 4.00913 6.364106 3.336387 6.364106 2.502185 C 6.364106 1.673366 5.691363 1.000623 4.862544 1.000623 L 0.00264805 1.000623 " stroke="#d9d9d9" stroke-width="2" stroke-opacity="1" stroke-miterlimit="4"/></g><g clip-path="url(#72ded1d8cc)"><path stroke-linecap="butt" transform="matrix(0.725806, 0, 0, 0.725806, 21.399007, 6.193603)" fill="none" stroke-linejoin="miter" d="M 5.973173 9.802876 L 5.973173 6.412251 C 5.973173 5.308952 5.07977 4.415549 3.976472 4.415549 L 3.00234 4.415549 C 1.893659 4.415549 1.000256 3.516765 1.000256 2.413466 L 1.000256 0.00235489 " stroke="#d9d9d9" stroke-width="2" stroke-opacity="1" stroke-miterlimit="4"/></g><g clip-path="url(#1d93c1f872)"><path stroke-linecap="butt" transform="matrix(0.725806, 0, 0, 0.725806, 13.863965, 16.436374)" fill="none" stroke-linejoin="miter" d="M 1.000099 0.00155094 L 1.000099 1.987488 C 1.000099 3.080023 1.88812 3.968044 2.986037 3.968044 L 8.30878 3.968044 C 9.412078 3.968044 10.310863 4.866829 10.310863 5.970127 L 10.310863 10.049641 " stroke="#d9d9d9" stroke-width="2" stroke-opacity="1" stroke-miterlimit="4"/></g><g clip-path="url(#9dd75f46f5)"><path stroke-linecap="butt" transform="matrix(0.725806, 0, 0, 0.725806, 22.290628, 17.268387)" fill="none" stroke-linejoin="miter" d="M 0.998885 8.698799 L 0.998885 5.582653 C 0.998885 4.543938 1.838469 3.704355 2.877184 3.704355 L 2.898712 3.704355 C 3.921281 3.704355 4.750101 2.875535 4.750101 1.852966 L 4.750101 0.0015768 " stroke="#d9d9d9" stroke-width="2" stroke-opacity="1" stroke-miterlimit="4"/></g><g clip-path="url(#6f41e5167a)"><g clip-path="url(#b5acde4fa0)"><path stroke-linecap="butt" transform="matrix(0.725806, 0, 0, 0.725806, 19.431696, 0.999964)" fill="none" stroke-linejoin="miter" d="M 3.743066 0.0000499066 C 1.676399 0.0000499066 0.00261439 1.673835 0.00261439 3.740501 C 0.00261439 5.807168 1.676399 7.486335 3.743066 7.486335 C 5.809732 7.486335 7.483517 5.807168 7.483517 3.740501 C 7.483517 1.673835 5.809732 0.0000499066 3.743066 0.0000499066 Z M 3.743066 0.0000499066 " stroke="#ff3131" stroke-width="4" stroke-opacity="1" stroke-miterlimit="4"/></g></g><g clip-path="url(#d3c7754f1d)"><g clip-path="url(#f045e9b9dd)"><path stroke-linecap="butt" transform="matrix(0.725806, 0, 0, 0.725806, 22.872589, 12.365885)" fill="none" stroke-linejoin="miter" d="M 3.743773 0.00179455 C 1.677106 0.00179455 -0.0020607 1.675579 -0.0020607 3.742246 C -0.0020607 5.808913 1.677106 7.482697 3.743773 7.482697 C 5.810439 7.482697 7.484224 5.808913 7.484224 3.742246 C 7.484224 1.675579 5.810439 0.00179455 3.743773 0.00179455 Z M 3.743773 0.00179455 " stroke="#cb6ce6" stroke-width="4" stroke-opacity="1" stroke-miterlimit="4"/></g></g><g clip-path="url(#888a22ecaf)"><g clip-path="url(#36412dfdfb)"><g clip-path="url(#f7481cbb29)"><g clip-path="url(#241efd1da1)"><path stroke-linecap="butt" transform="matrix(-0.513223, 0.513223, -0.513223, -0.513223, 25.973101, 25.183625)" fill="none" stroke-linejoin="miter" d="M 3.745123 0.000463947 C 1.674871 0.000463947 0.000403102 1.674932 0.000403102 3.745184 C 0.000403102 5.807824 1.674871 7.482292 3.741317 7.486098 C 5.807763 7.482292 7.482231 5.807824 7.486037 3.741378 C 7.482231 1.674932 5.807763 0.000463947 3.745123 0.000463947 Z M 3.745123 0.000463947 " stroke="#0cc0df" stroke-width="4" stroke-opacity="1" stroke-miterlimit="4"/></g></g></g></g><g clip-path="url(#d027875acf)"><path fill="#d9d9d9" d="M 13.191406 0.128906 C 14.1875 0.308594 15.003906 0.851562 15.589844 1.671875 L 15.59375 1.675781 C 15.617188 1.703125 15.628906 1.738281 15.628906 1.773438 C 15.628906 2.308594 15.628906 2.847656 15.628906 3.382812 C 15.628906 5.664062 15.628906 7.941406 15.628906 10.222656 C 15.628906 15.679688 15.628906 21.136719 15.628906 26.589844 L 15.628906 26.628906 C 15.628906 26.671875 15.609375 26.714844 15.574219 26.742188 C 14.953125 27.265625 14.253906 27.722656 13.488281 28.003906 L 13.488281 28.007812 C 13.480469 28.007812 13.476562 28.011719 13.46875 28.011719 C 12.945312 28.203125 12.398438 28.304688 11.839844 28.300781 C 10.394531 28.285156 9.132812 27.546875 8.085938 26.605469 L 8.070312 26.59375 L 8.054688 26.59375 C 7.015625 26.796875 5.941406 26.730469 4.960938 26.3125 C 4.265625 26.011719 3.652344 25.550781 3.179688 24.960938 C 2.707031 24.378906 2.386719 23.6875 2.234375 22.953125 C 2.039062 22.03125 2.121094 21.078125 2.441406 20.195312 L 2.460938 20.148438 L 2.410156 20.144531 C 2.351562 20.140625 2.292969 20.132812 2.234375 20.128906 L 2.199219 20.125 C 2.167969 20.121094 2.136719 20.109375 2.109375 20.089844 C 1.746094 19.773438 1.417969 19.417969 1.15625 19.011719 C 0.6875 18.28125 0.484375 17.460938 0.609375 16.597656 C 0.722656 15.820312 1.097656 15.101562 1.609375 14.511719 C 1.875 14.203125 2.183594 13.925781 2.527344 13.691406 L 2.550781 13.671875 L 2.539062 13.644531 C 2.300781 13.074219 2.101562 12.476562 1.984375 11.867188 C 1.839844 11.078125 1.847656 10.230469 2.210938 9.496094 C 2.570312 8.761719 3.203125 8.277344 3.941406 7.957031 C 4.347656 7.78125 4.78125 7.660156 5.21875 7.570312 L 5.253906 7.5625 L 5.246094 7.527344 C 5.117188 6.882812 5.125 6.226562 5.296875 5.59375 C 5.503906 4.839844 5.929688 4.175781 6.503906 3.652344 C 6.957031 3.238281 7.554688 2.878906 8.15625 2.734375 C 8.339844 2.691406 8.539062 2.664062 8.726562 2.675781 L 8.765625 2.679688 L 8.765625 2.644531 C 8.796875 2.148438 9.046875 1.703125 9.375 1.34375 C 9.601562 1.097656 9.867188 0.890625 10.152344 0.71875 C 10.15625 0.714844 10.15625 0.714844 10.160156 0.710938 L 10.164062 0.710938 C 10.441406 0.542969 10.738281 0.40625 11.046875 0.304688 C 11.730469 0.0742188 12.476562 0 13.191406 0.128906 Z M 27.375 22.515625 C 27.78125 22.515625 28.113281 22.84375 28.113281 23.253906 C 28.113281 23.660156 27.78125 23.992188 27.375 23.992188 C 26.96875 23.992188 26.636719 23.660156 26.636719 23.253906 C 26.636719 22.84375 26.96875 22.515625 27.375 22.515625 Z M 20.390625 19.347656 C 20.796875 19.347656 21.128906 19.679688 21.128906 20.085938 C 21.128906 20.492188 20.796875 20.824219 20.390625 20.824219 C 19.984375 20.824219 19.652344 20.492188 19.652344 20.085938 C 19.652344 19.679688 19.984375 19.347656 20.390625 19.347656 Z M 21.910156 23.585938 C 22.320312 23.585938 22.648438 23.914062 22.648438 24.324219 C 22.648438 24.730469 22.320312 25.058594 21.910156 25.058594 C 21.503906 25.058594 21.175781 24.730469 21.175781 24.324219 C 21.175781 23.914062 21.503906 23.585938 21.910156 23.585938 Z M 27.175781 19.597656 C 27.582031 19.597656 27.914062 19.925781 27.914062 20.332031 C 27.914062 20.742188 27.582031 21.070312 27.175781 21.070312 C 26.769531 21.070312 26.4375 20.742188 26.4375 20.332031 C 26.4375 19.925781 26.769531 19.597656 27.175781 19.597656 Z M 26.746094 12.988281 C 27.152344 12.988281 27.484375 13.320312 27.484375 13.730469 C 27.484375 14.136719 27.152344 14.46875 26.746094 14.46875 C 26.335938 14.46875 26.007812 14.136719 26.007812 13.730469 C 26.007812 13.320312 26.335938 12.988281 26.746094 12.988281 Z M 22.539062 16.382812 C 22.945312 16.382812 23.273438 16.714844 23.273438 17.121094 C 23.273438 17.527344 22.945312 17.859375 22.539062 17.859375 C 22.128906 17.859375 21.800781 17.527344 21.800781 17.121094 C 21.800781 16.714844 22.128906 16.382812 22.539062 16.382812 Z M 20.015625 9.277344 C 20.421875 9.277344 20.75 9.605469 20.75 10.011719 C 20.75 10.421875 20.421875 10.75 20.015625 10.75 C 19.605469 10.75 19.277344 10.421875 19.277344 10.011719 C 19.277344 9.605469 19.605469 9.277344 20.015625 9.277344 Z M 23.472656 9.167969 C 23.878906 9.167969 24.210938 9.5 24.210938 9.90625 C 24.210938 10.3125 23.878906 10.644531 23.472656 10.644531 C 23.066406 10.644531 22.734375 10.3125 22.734375 9.90625 C 22.734375 9.5 23.066406 9.167969 23.472656 9.167969 Z M 24.652344 6.054688 C 25.058594 6.054688 25.390625 6.382812 25.390625 6.792969 C 25.390625 7.199219 25.058594 7.53125 24.652344 7.53125 C 24.242188 7.53125 23.914062 7.199219 23.914062 6.792969 C 23.914062 6.382812 24.242188 6.054688 24.652344 6.054688 Z M 21.136719 4.207031 C 21.542969 4.207031 21.875 4.535156 21.875 4.945312 C 21.875 5.351562 21.542969 5.679688 21.136719 5.679688 C 20.730469 5.679688 20.398438 5.351562 20.398438 4.945312 C 20.398438 4.535156 20.730469 4.207031 21.136719 4.207031 Z M 23.679688 6.554688 C 23.703125 6.457031 23.742188 6.363281 23.796875 6.277344 C 23.222656 5.945312 22.652344 5.609375 22.078125 5.273438 C 22.046875 5.367188 22 5.457031 21.941406 5.535156 C 22.519531 5.875 23.101562 6.214844 23.679688 6.554688 Z M 21.011719 10.011719 C 21.5 9.988281 21.988281 9.960938 22.476562 9.9375 C 22.476562 9.925781 22.476562 9.917969 22.476562 9.90625 C 22.476562 9.816406 22.488281 9.726562 22.511719 9.636719 C 21.996094 9.664062 21.480469 9.691406 20.964844 9.714844 C 20.996094 9.8125 21.011719 9.910156 21.011719 10.011719 Z M 21.34375 23.503906 C 21.425781 23.445312 21.515625 23.402344 21.613281 23.371094 C 21.351562 22.574219 21.085938 21.78125 20.824219 20.984375 C 20.734375 21.027344 20.640625 21.058594 20.539062 21.074219 C 20.808594 21.882812 21.074219 22.691406 21.34375 23.503906 Z M 22.054688 17.996094 C 21.96875 17.945312 21.886719 17.886719 21.820312 17.8125 C 21.503906 18.28125 21.1875 18.746094 20.871094 19.214844 C 20.960938 19.261719 21.039062 19.324219 21.109375 19.394531 C 21.425781 18.929688 21.742188 18.460938 22.054688 17.996094 Z M 26.457031 21.023438 C 26.386719 20.953125 26.328125 20.871094 26.285156 20.78125 C 25.058594 21.726562 23.835938 22.671875 22.613281 23.613281 C 22.683594 23.683594 22.746094 23.765625 22.792969 23.851562 C 24.011719 22.910156 25.234375 21.96875 26.457031 21.023438 Z M 27.023438 19.347656 C 26.738281 18.617188 26.453125 17.890625 26.167969 17.160156 L 26.164062 17.152344 L 26.167969 17.140625 C 26.359375 16.335938 26.546875 15.53125 26.738281 14.726562 C 26.636719 14.726562 26.539062 14.710938 26.441406 14.679688 C 26.25 15.496094 26.058594 16.3125 25.867188 17.128906 C 25.859375 17.15625 25.859375 17.1875 25.871094 17.214844 C 26.160156 17.957031 26.449219 18.695312 26.738281 19.4375 C 26.828125 19.394531 26.925781 19.363281 27.023438 19.347656 Z M 23.390625 17.636719 C 23.339844 17.722656 23.273438 17.800781 23.199219 17.867188 C 24.230469 18.527344 25.269531 19.1875 26.304688 19.847656 C 26.355469 19.757812 26.414062 19.679688 26.488281 19.613281 C 25.457031 18.953125 24.421875 18.296875 23.390625 17.636719 Z M 24.492188 7.777344 C 24.390625 7.761719 24.296875 7.730469 24.207031 7.683594 C 24.023438 8.097656 23.84375 8.511719 23.664062 8.925781 C 23.761719 8.945312 23.855469 8.980469 23.945312 9.027344 C 24.125 8.609375 24.308594 8.195312 24.492188 7.777344 Z M 26.449219 23.546875 C 26.417969 23.453125 26.402344 23.351562 26.402344 23.253906 L 22.867188 24.039062 C 22.894531 24.128906 22.910156 24.226562 22.910156 24.324219 C 22.910156 24.324219 22.910156 24.328125 22.910156 24.332031 Z M 24.972656 7.738281 C 25.917969 9.355469 26.859375 10.976562 27.804688 12.59375 L 27.820312 12.621094 L 27.796875 12.640625 C 27.667969 12.753906 27.539062 12.871094 27.414062 12.984375 C 27.488281 13.050781 27.550781 13.132812 27.601562 13.214844 C 27.714844 13.113281 27.828125 13.011719 27.9375 12.914062 L 27.972656 12.886719 L 27.996094 12.921875 C 28.082031 13.066406 28.164062 13.214844 28.25 13.363281 C 29.023438 14.996094 29.796875 16.625 30.570312 18.257812 L 30.578125 18.277344 L 30.566406 18.292969 C 30.191406 18.828125 29.820312 19.363281 29.449219 19.898438 L 29.4375 19.914062 L 29.421875 19.914062 C 28.988281 19.949219 28.554688 19.988281 28.125 20.023438 C 28.15625 20.121094 28.171875 20.21875 28.171875 20.320312 C 28.496094 20.292969 28.816406 20.265625 29.136719 20.238281 L 29.21875 20.230469 L 27.738281 22.351562 C 27.832031 22.390625 27.917969 22.441406 27.996094 22.503906 L 29.601562 20.199219 L 29.621094 20.195312 C 29.695312 20.191406 29.765625 20.183594 29.839844 20.175781 L 29.867188 20.175781 L 29.878906 20.199219 C 30.203125 21.058594 30.300781 21.992188 30.113281 22.894531 C 29.96875 23.582031 29.667969 24.226562 29.226562 24.773438 C 29.082031 24.957031 28.921875 25.125 28.75 25.28125 L 28.714844 25.3125 L 27.972656 24.019531 C 27.894531 24.082031 27.808594 24.128906 27.714844 24.164062 L 28.480469 25.5 L 28.457031 25.519531 C 28.179688 25.726562 27.875 25.902344 27.558594 26.039062 C 26.605469 26.445312 25.554688 26.496094 24.546875 26.285156 C 24.5 26.277344 24.449219 26.289062 24.417969 26.320312 C 23.414062 27.242188 22.1875 27.988281 20.789062 28.003906 C 20.351562 28.007812 19.917969 27.941406 19.5 27.8125 L 19.449219 27.796875 L 19.480469 27.753906 C 20.125 26.898438 20.769531 26.042969 21.414062 25.1875 C 21.328125 25.136719 21.25 25.074219 21.183594 25.003906 C 20.511719 25.890625 19.839844 26.78125 19.171875 27.667969 L 19.152344 27.691406 L 19.125 27.679688 C 18.46875 27.417969 17.859375 27.023438 17.316406 26.570312 L 17.300781 26.558594 L 17.300781 26.542969 C 17.300781 24.578125 17.300781 22.613281 17.300781 20.652344 L 17.300781 20.617188 L 17.335938 20.613281 C 18.039062 20.546875 18.742188 20.480469 19.449219 20.414062 C 19.414062 20.320312 19.398438 20.222656 19.394531 20.121094 C 18.710938 20.1875 18.027344 20.25 17.34375 20.316406 L 17.300781 20.320312 L 17.300781 20.277344 C 17.300781 19.5625 17.300781 18.851562 17.300781 18.136719 L 17.300781 18.035156 L 17.367188 18.113281 C 17.398438 18.148438 17.441406 18.167969 17.488281 18.164062 C 18.71875 18.089844 19.945312 18.019531 21.171875 17.945312 C 21.230469 17.941406 21.28125 17.902344 21.300781 17.847656 C 21.382812 17.628906 21.460938 17.410156 21.542969 17.191406 C 21.539062 17.167969 21.539062 17.144531 21.539062 17.121094 C 21.539062 16.859375 21.640625 16.613281 21.820312 16.425781 C 21.835938 16.390625 21.847656 16.351562 21.863281 16.3125 L 21.898438 16.21875 L 21.933594 16.3125 C 21.933594 16.316406 21.933594 16.320312 21.9375 16.324219 C 22.015625 16.265625 22.105469 16.214844 22.199219 16.183594 C 22.152344 16.054688 22.105469 15.929688 22.058594 15.800781 L 22.054688 15.789062 L 22.058594 15.777344 C 22.195312 15.394531 22.335938 15.015625 22.472656 14.636719 L 22.476562 14.628906 L 22.480469 14.625 C 23.097656 13.914062 23.714844 13.195312 24.332031 12.484375 L 24.351562 12.460938 L 24.378906 12.476562 C 24.40625 12.492188 24.433594 12.507812 24.464844 12.527344 L 24.476562 12.53125 L 24.480469 12.542969 C 24.636719 12.929688 24.800781 13.308594 24.957031 13.6875 L 24.96875 13.707031 L 24.949219 13.726562 C 24.296875 14.558594 23.640625 15.394531 22.984375 16.230469 C 23.074219 16.273438 23.15625 16.332031 23.230469 16.402344 C 23.902344 15.542969 24.578125 14.683594 25.253906 13.824219 C 25.285156 13.78125 25.296875 13.71875 25.273438 13.667969 C 25.160156 13.40625 25.050781 13.140625 24.945312 12.882812 L 24.902344 12.777344 L 25 12.835938 C 25.277344 12.996094 25.554688 13.160156 25.835938 13.316406 C 25.875 13.230469 25.929688 13.140625 25.996094 13.066406 C 25.574219 12.824219 25.148438 12.578125 24.722656 12.332031 L 24.710938 12.324219 L 24.707031 12.3125 C 24.484375 11.785156 24.265625 11.253906 24.042969 10.726562 C 23.960938 10.78125 23.871094 10.828125 23.777344 10.859375 C 23.945312 11.265625 24.117188 11.675781 24.285156 12.082031 L 24.300781 12.117188 L 24.265625 12.132812 C 24.242188 12.140625 24.21875 12.15625 24.203125 12.175781 L 24.203125 12.179688 C 23.546875 12.9375 22.890625 13.699219 22.234375 14.457031 C 22.222656 14.46875 22.214844 14.484375 22.207031 14.503906 C 22.113281 14.757812 22.023438 15.011719 21.929688 15.265625 L 21.894531 15.359375 L 21.859375 15.265625 C 21.535156 14.394531 21.210938 13.519531 20.886719 12.648438 L 20.878906 12.625 L 20.898438 12.609375 C 21.53125 11.953125 22.164062 11.296875 22.800781 10.644531 C 22.726562 10.574219 22.664062 10.496094 22.613281 10.410156 C 21.945312 11.097656 21.28125 11.78125 20.617188 12.46875 L 20.613281 12.472656 L 20.609375 12.472656 C 19.640625 13.09375 18.671875 13.71875 17.707031 14.339844 L 17.578125 14.421875 L 17.652344 14.289062 C 18.292969 13.164062 18.933594 12.035156 19.570312 10.90625 C 19.480469 10.863281 19.398438 10.804688 19.328125 10.734375 C 18.675781 11.882812 18.023438 13.035156 17.371094 14.183594 L 17.300781 14.308594 L 17.300781 14.167969 C 17.300781 12.910156 17.300781 11.644531 17.300781 10.386719 L 17.300781 10.355469 L 17.335938 10.351562 C 17.898438 10.289062 18.464844 10.226562 19.027344 10.167969 C 19.019531 10.117188 19.015625 10.0625 19.015625 10.011719 C 19.015625 9.964844 19.019531 9.914062 19.027344 9.867188 C 18.65625 9.90625 18.285156 9.949219 17.914062 9.988281 L 17.757812 10.003906 L 17.890625 9.921875 C 18.75 9.363281 19.613281 8.804688 20.472656 8.25 L 20.472656 8.246094 C 20.511719 8.226562 20.539062 8.191406 20.546875 8.148438 C 20.707031 7.410156 20.867188 6.671875 21.027344 5.933594 C 20.925781 5.921875 20.828125 5.898438 20.738281 5.859375 C 20.582031 6.574219 20.425781 7.292969 20.273438 8.011719 L 20.269531 8.027344 L 20.257812 8.035156 C 19.289062 8.660156 18.324219 9.285156 17.359375 9.910156 L 17.300781 9.949219 L 17.300781 9.878906 C 17.300781 7.804688 17.300781 5.726562 17.300781 3.652344 L 17.300781 3.597656 L 17.351562 3.617188 C 18.292969 3.972656 19.234375 4.328125 20.175781 4.683594 C 20.199219 4.585938 20.242188 4.496094 20.292969 4.410156 C 19.304688 4.035156 18.316406 3.664062 17.324219 3.289062 L 17.300781 3.28125 L 17.300781 3.253906 C 17.300781 2.78125 17.300781 2.304688 17.300781 1.832031 L 17.300781 1.820312 L 17.308594 1.808594 C 17.847656 1.070312 18.59375 0.582031 19.496094 0.421875 C 20.160156 0.300781 20.855469 0.371094 21.492188 0.585938 C 21.734375 0.667969 21.972656 0.769531 22.195312 0.894531 L 22.222656 0.910156 L 22.210938 0.9375 C 21.890625 1.941406 21.566406 2.945312 21.242188 3.953125 C 21.34375 3.960938 21.441406 3.988281 21.53125 4.027344 C 21.8125 3.148438 22.09375 2.273438 22.378906 1.394531 L 22.410156 1.292969 L 22.449219 1.394531 C 23.015625 2.90625 23.582031 4.417969 24.144531 5.929688 C 24.230469 5.878906 24.324219 5.84375 24.421875 5.820312 C 23.867188 4.335938 23.3125 2.851562 22.753906 1.371094 L 22.703125 1.230469 L 22.816406 1.328125 C 22.890625 1.398438 22.96875 1.46875 23.035156 1.546875 C 23.363281 1.898438 23.605469 2.355469 23.566406 2.847656 C 23.5625 2.929688 23.625 3 23.703125 3.007812 C 23.726562 3.007812 23.746094 3.003906 23.765625 3 L 23.765625 2.996094 L 23.769531 2.996094 C 23.96875 2.945312 24.207031 2.976562 24.40625 3.023438 C 24.9375 3.148438 25.464844 3.460938 25.875 3.820312 L 25.894531 3.835938 L 25.882812 3.863281 C 25.878906 3.871094 25.875 3.878906 25.871094 3.890625 C 25.585938 4.546875 25.296875 5.203125 25.003906 5.859375 C 25.101562 5.898438 25.199219 5.949219 25.277344 6.015625 C 25.554688 5.378906 25.828125 4.742188 26.101562 4.109375 L 26.125 4.054688 L 26.164062 4.097656 C 26.582031 4.542969 26.890625 5.078125 27.054688 5.671875 C 27.230469 6.320312 27.214844 6.992188 27.058594 7.644531 C 27.039062 7.722656 27.089844 7.804688 27.171875 7.824219 C 27.175781 7.824219 27.183594 7.828125 27.1875 7.828125 L 27.191406 7.828125 C 27.664062 7.914062 28.136719 8.042969 28.578125 8.234375 C 29.246094 8.519531 29.832031 8.957031 30.160156 9.625 C 30.269531 9.851562 30.347656 10.09375 30.390625 10.34375 L 30.398438 10.386719 L 30.355469 10.386719 C 30.320312 10.390625 30.289062 10.402344 30.261719 10.425781 C 29.535156 11.078125 28.808594 11.730469 28.078125 12.386719 L 28.046875 12.417969 L 28.023438 12.378906 C 27.09375 10.785156 26.164062 9.195312 25.238281 7.601562 C 25.152344 7.660156 25.0625 7.707031 24.972656 7.738281 Z M 29.929688 19.730469 C 30.242188 19.277344 30.558594 18.828125 30.871094 18.375 C 30.902344 18.328125 30.90625 18.269531 30.878906 18.21875 C 30.09375 16.554688 29.304688 14.894531 28.515625 13.230469 C 28.515625 13.222656 28.511719 13.21875 28.507812 13.214844 C 28.410156 13.042969 28.3125 12.875 28.214844 12.707031 L 28.199219 12.683594 L 28.222656 12.660156 C 28.9375 12.015625 29.65625 11.371094 30.371094 10.726562 L 30.429688 10.671875 L 30.433594 10.75 C 30.453125 11.105469 30.417969 11.464844 30.355469 11.8125 C 30.238281 12.449219 30.019531 13.078125 29.761719 13.667969 C 29.734375 13.742188 29.761719 13.824219 29.824219 13.859375 L 29.828125 13.863281 C 30.1875 14.09375 30.519531 14.378906 30.800781 14.703125 C 31.273438 15.25 31.621094 15.917969 31.726562 16.640625 C 31.84375 17.429688 31.652344 18.183594 31.226562 18.851562 C 30.992188 19.214844 30.699219 19.539062 30.375 19.824219 L 30.367188 19.832031 L 30.351562 19.835938 C 30.261719 19.84375 30.171875 19.851562 30.082031 19.855469 L 30.0625 19.859375 L 30.050781 19.84375 C 30.027344 19.8125 29.992188 19.792969 29.953125 19.789062 L 29.894531 19.78125 Z M 17.320312 14.941406 C 18.410156 14.242188 19.503906 13.539062 20.59375 12.839844 L 20.632812 12.8125 L 20.648438 12.855469 C 21.011719 13.832031 21.371094 14.804688 21.734375 15.777344 L 21.738281 15.789062 L 21.734375 15.800781 C 21.511719 16.410156 21.289062 17.023438 21.066406 17.632812 L 21.058594 17.65625 L 21.03125 17.65625 C 19.847656 17.726562 18.660156 17.796875 17.472656 17.867188 C 17.429688 17.871094 17.394531 17.890625 17.367188 17.921875 L 17.300781 18 L 17.300781 17.898438 C 17.300781 16.921875 17.300781 15.949219 17.300781 14.972656 L 17.300781 14.953125 Z M 30.402344 20.128906 L 30.4375 20.125 C 30.46875 20.121094 30.5 20.109375 30.523438 20.089844 C 30.886719 19.773438 31.214844 19.417969 31.476562 19.011719 C 31.945312 18.28125 32.148438 17.460938 32.023438 16.597656 C 31.910156 15.820312 31.535156 15.101562 31.023438 14.511719 C 30.757812 14.203125 30.449219 13.925781 30.109375 13.691406 L 30.085938 13.671875 L 30.097656 13.644531 C 30.335938 13.074219 30.535156 12.476562 30.648438 11.867188 C 30.792969 11.078125 30.785156 10.230469 30.425781 9.496094 C 30.066406 8.761719 29.433594 8.277344 28.695312 7.957031 C 28.289062 7.78125 27.855469 7.660156 27.417969 7.570312 L 27.382812 7.5625 L 27.390625 7.527344 C 27.519531 6.882812 27.511719 6.226562 27.339844 5.59375 C 27.132812 4.839844 26.707031 4.175781 26.132812 3.652344 C 25.679688 3.238281 25.078125 2.878906 24.476562 2.734375 C 24.296875 2.691406 24.09375 2.664062 23.90625 2.675781 L 23.867188 2.679688 L 23.867188 2.644531 C 23.835938 2.148438 23.585938 1.703125 23.257812 1.34375 C 23.03125 1.097656 22.765625 0.890625 22.480469 0.71875 C 22.476562 0.714844 22.476562 0.714844 22.472656 0.710938 L 22.46875 0.710938 C 22.191406 0.542969 21.894531 0.40625 21.585938 0.304688 C 20.902344 0.0742188 20.15625 0 19.441406 0.128906 C 18.445312 0.308594 17.628906 0.851562 17.042969 1.671875 L 17.039062 1.675781 C 17.015625 1.703125 17.003906 1.738281 17.003906 1.773438 C 17.003906 2.308594 17.003906 2.847656 17.003906 3.382812 C 17.003906 5.664062 17.003906 7.941406 17.003906 10.222656 C 17.003906 15.679688 17.003906 21.136719 17.003906 26.589844 L 17.003906 26.628906 C 17.003906 26.671875 17.023438 26.714844 17.058594 26.742188 C 17.679688 27.265625 18.378906 27.722656 19.144531 28.003906 L 19.144531 28.007812 C 19.152344 28.007812 19.15625 28.011719 19.164062 28.011719 C 19.6875 28.203125 20.234375 28.304688 20.792969 28.300781 C 22.238281 28.285156 23.5 27.546875 24.546875 26.605469 L 24.5625 26.59375 L 24.578125 26.59375 C 25.621094 26.796875 26.695312 26.730469 27.675781 26.3125 C 28.371094 26.011719 28.984375 25.550781 29.457031 24.960938 C 29.929688 24.378906 30.25 23.6875 30.402344 22.953125 C 30.59375 22.03125 30.511719 21.078125 30.195312 20.195312 L 30.175781 20.148438 L 30.226562 20.144531 C 30.285156 20.140625 30.34375 20.132812 30.402344 20.128906 " fill-opacity="1" fill-rule="evenodd"/></g><g clip-path="url(#42eb6b882f)"><path fill="#a6a6a6" d="M 12.089844 2.863281 C 12.925781 3.015625 13.609375 3.46875 14.097656 4.15625 L 14.101562 4.160156 C 14.121094 4.183594 14.132812 4.214844 14.132812 4.242188 C 14.132812 4.691406 14.132812 5.140625 14.132812 5.589844 C 14.132812 7.5 14.132812 9.410156 14.132812 11.320312 C 14.132812 15.886719 14.132812 20.457031 14.132812 25.023438 L 14.132812 25.054688 C 14.132812 25.09375 14.113281 25.128906 14.085938 25.152344 C 13.566406 25.589844 12.980469 25.972656 12.339844 26.207031 L 12.339844 26.210938 C 12.332031 26.210938 12.328125 26.214844 12.320312 26.214844 C 11.882812 26.375 11.425781 26.460938 10.957031 26.457031 C 9.746094 26.445312 8.691406 25.824219 7.8125 25.035156 L 7.800781 25.027344 L 7.789062 25.027344 C 6.917969 25.195312 6.019531 25.140625 5.195312 24.792969 C 4.613281 24.539062 4.101562 24.152344 3.703125 23.660156 C 3.308594 23.171875 3.039062 22.59375 2.914062 21.976562 C 2.753906 21.207031 2.820312 20.40625 3.085938 19.667969 L 3.101562 19.628906 L 3.058594 19.625 C 3.011719 19.621094 2.960938 19.617188 2.914062 19.613281 L 2.882812 19.609375 C 2.855469 19.605469 2.832031 19.597656 2.8125 19.578125 C 2.507812 19.316406 2.234375 19.015625 2.011719 18.675781 C 1.621094 18.066406 1.449219 17.378906 1.554688 16.65625 C 1.648438 16.003906 1.964844 15.402344 2.394531 14.90625 C 2.617188 14.648438 2.875 14.417969 3.160156 14.222656 L 3.179688 14.207031 L 3.167969 14.183594 C 2.96875 13.707031 2.800781 13.207031 2.707031 12.695312 C 2.585938 12.035156 2.59375 11.324219 2.894531 10.710938 C 3.195312 10.09375 3.722656 9.691406 4.34375 9.421875 C 4.683594 9.273438 5.046875 9.171875 5.414062 9.097656 L 5.441406 9.089844 L 5.433594 9.0625 C 5.328125 8.523438 5.335938 7.972656 5.476562 7.441406 C 5.652344 6.8125 6.007812 6.253906 6.488281 5.816406 C 6.867188 5.46875 7.367188 5.167969 7.871094 5.046875 C 8.027344 5.011719 8.195312 4.988281 8.351562 5 L 8.382812 5 L 8.382812 4.972656 C 8.410156 4.554688 8.617188 4.183594 8.894531 3.882812 C 9.082031 3.675781 9.304688 3.503906 9.542969 3.359375 C 9.546875 3.355469 9.546875 3.355469 9.550781 3.351562 L 9.554688 3.351562 C 9.785156 3.210938 10.035156 3.097656 10.292969 3.011719 C 10.867188 2.820312 11.492188 2.757812 12.089844 2.863281 Z M 23.964844 21.613281 C 24.304688 21.613281 24.582031 21.886719 24.582031 22.230469 C 24.582031 22.570312 24.304688 22.847656 23.964844 22.847656 C 23.625 22.847656 23.347656 22.570312 23.347656 22.230469 C 23.347656 21.886719 23.625 21.613281 23.964844 21.613281 Z M 18.117188 18.957031 C 18.457031 18.957031 18.738281 19.234375 18.738281 19.578125 C 18.738281 19.917969 18.457031 20.195312 18.117188 20.195312 C 17.777344 20.195312 17.5 19.917969 17.5 19.578125 C 17.5 19.234375 17.777344 18.957031 18.117188 18.957031 Z M 19.390625 22.507812 C 19.734375 22.507812 20.007812 22.78125 20.007812 23.125 C 20.007812 23.464844 19.734375 23.742188 19.390625 23.742188 C 19.050781 23.742188 18.777344 23.464844 18.777344 23.125 C 18.777344 22.78125 19.050781 22.507812 19.390625 22.507812 Z M 23.796875 19.167969 C 24.136719 19.167969 24.417969 19.441406 24.417969 19.78125 C 24.417969 20.125 24.136719 20.402344 23.796875 20.402344 C 23.457031 20.402344 23.179688 20.125 23.179688 19.78125 C 23.179688 19.441406 23.457031 19.167969 23.796875 19.167969 Z M 23.4375 13.636719 C 23.777344 13.636719 24.054688 13.914062 24.054688 14.253906 C 24.054688 14.59375 23.777344 14.871094 23.4375 14.871094 C 23.09375 14.871094 22.820312 14.59375 22.820312 14.253906 C 22.820312 13.914062 23.09375 13.636719 23.4375 13.636719 Z M 19.917969 16.476562 C 20.257812 16.476562 20.53125 16.753906 20.53125 17.09375 C 20.53125 17.433594 20.257812 17.710938 19.917969 17.710938 C 19.574219 17.710938 19.300781 17.433594 19.300781 17.09375 C 19.300781 16.753906 19.574219 16.476562 19.917969 16.476562 Z M 17.804688 10.527344 C 18.144531 10.527344 18.417969 10.800781 18.417969 11.140625 C 18.417969 11.484375 18.144531 11.761719 17.804688 11.761719 C 17.460938 11.761719 17.1875 11.484375 17.1875 11.140625 C 17.1875 10.800781 17.460938 10.527344 17.804688 10.527344 Z M 20.699219 10.4375 C 21.039062 10.4375 21.316406 10.714844 21.316406 11.054688 C 21.316406 11.394531 21.039062 11.671875 20.699219 11.671875 C 20.359375 11.671875 20.082031 11.394531 20.082031 11.054688 C 20.082031 10.714844 20.359375 10.4375 20.699219 10.4375 Z M 21.6875 7.828125 C 22.027344 7.828125 22.300781 8.101562 22.300781 8.445312 C 22.300781 8.785156 22.027344 9.066406 21.6875 9.066406 C 21.34375 9.066406 21.070312 8.785156 21.070312 8.445312 C 21.070312 8.101562 21.34375 7.828125 21.6875 7.828125 Z M 18.742188 6.28125 C 19.082031 6.28125 19.363281 6.554688 19.363281 6.898438 C 19.363281 7.238281 19.082031 7.515625 18.742188 7.515625 C 18.402344 7.515625 18.125 7.238281 18.125 6.898438 C 18.125 6.554688 18.402344 6.28125 18.742188 6.28125 Z M 20.875 8.246094 C 20.894531 8.164062 20.925781 8.085938 20.972656 8.015625 C 20.488281 7.738281 20.011719 7.457031 19.53125 7.171875 C 19.503906 7.253906 19.464844 7.328125 19.417969 7.394531 C 19.902344 7.679688 20.390625 7.960938 20.875 8.246094 Z M 18.636719 11.140625 C 19.046875 11.121094 19.457031 11.101562 19.867188 11.082031 C 19.867188 11.070312 19.867188 11.0625 19.867188 11.054688 C 19.867188 10.980469 19.875 10.902344 19.894531 10.828125 C 19.464844 10.851562 19.03125 10.875 18.597656 10.894531 C 18.625 10.976562 18.636719 11.058594 18.636719 11.140625 Z M 18.917969 22.4375 C 18.984375 22.390625 19.0625 22.355469 19.140625 22.328125 C 18.921875 21.660156 18.699219 20.996094 18.480469 20.328125 C 18.40625 20.363281 18.328125 20.390625 18.242188 20.40625 C 18.46875 21.082031 18.691406 21.757812 18.917969 22.4375 Z M 19.511719 17.828125 C 19.441406 17.785156 19.371094 17.734375 19.316406 17.671875 C 19.050781 18.066406 18.785156 18.453125 18.519531 18.847656 C 18.597656 18.886719 18.660156 18.9375 18.71875 18.996094 C 18.984375 18.609375 19.25 18.214844 19.511719 17.828125 Z M 23.195312 20.363281 C 23.136719 20.304688 23.089844 20.234375 23.050781 20.160156 C 22.027344 20.949219 21.003906 21.742188 19.980469 22.53125 C 20.039062 22.589844 20.089844 22.660156 20.128906 22.730469 C 21.152344 21.941406 22.171875 21.152344 23.195312 20.363281 Z M 23.671875 18.957031 C 23.429688 18.347656 23.191406 17.738281 22.953125 17.125 L 22.949219 17.121094 L 22.953125 17.109375 C 23.113281 16.4375 23.269531 15.761719 23.429688 15.089844 C 23.347656 15.089844 23.265625 15.074219 23.183594 15.046875 C 23.023438 15.730469 22.863281 16.417969 22.703125 17.101562 C 22.695312 17.121094 22.695312 17.148438 22.703125 17.171875 C 22.949219 17.792969 23.1875 18.410156 23.429688 19.035156 C 23.507812 18.996094 23.589844 18.972656 23.671875 18.957031 Z M 20.632812 17.523438 C 20.589844 17.597656 20.53125 17.664062 20.46875 17.71875 C 21.335938 18.269531 22.203125 18.824219 23.066406 19.375 C 23.109375 19.300781 23.160156 19.234375 23.222656 19.179688 C 22.359375 18.628906 21.496094 18.078125 20.632812 17.523438 Z M 21.554688 9.269531 C 21.46875 9.257812 21.390625 9.230469 21.316406 9.191406 C 21.160156 9.539062 21.011719 9.886719 20.859375 10.234375 C 20.941406 10.25 21.019531 10.277344 21.09375 10.316406 C 21.246094 9.96875 21.398438 9.621094 21.554688 9.269531 Z M 23.1875 22.476562 C 23.164062 22.398438 23.148438 22.3125 23.148438 22.230469 L 20.191406 22.886719 C 20.214844 22.960938 20.226562 23.042969 20.226562 23.125 C 20.226562 23.125 20.226562 23.128906 20.226562 23.132812 Z M 21.953125 9.238281 C 22.746094 10.59375 23.53125 11.949219 24.324219 13.304688 L 24.335938 13.328125 L 24.316406 13.34375 C 24.210938 13.4375 24.101562 13.539062 23.996094 13.632812 C 24.058594 13.6875 24.113281 13.753906 24.15625 13.824219 C 24.25 13.738281 24.34375 13.65625 24.4375 13.574219 L 24.464844 13.546875 L 24.484375 13.578125 C 24.558594 13.699219 24.625 13.820312 24.699219 13.945312 C 25.34375 15.3125 25.992188 16.679688 26.640625 18.046875 L 26.648438 18.0625 L 26.636719 18.074219 C 26.324219 18.523438 26.011719 18.972656 25.703125 19.417969 L 25.691406 19.433594 L 25.679688 19.433594 C 25.316406 19.460938 24.953125 19.496094 24.59375 19.523438 C 24.617188 19.605469 24.632812 19.6875 24.632812 19.773438 C 24.902344 19.75 25.171875 19.726562 25.441406 19.703125 L 25.507812 19.699219 L 24.269531 21.472656 C 24.347656 21.507812 24.417969 21.550781 24.484375 21.601562 L 25.828125 19.671875 L 25.847656 19.667969 C 25.90625 19.664062 25.96875 19.660156 26.027344 19.652344 L 26.050781 19.652344 L 26.0625 19.671875 C 26.332031 20.390625 26.414062 21.171875 26.257812 21.929688 C 26.136719 22.503906 25.886719 23.042969 25.515625 23.503906 C 25.394531 23.65625 25.261719 23.796875 25.117188 23.929688 L 25.085938 23.953125 L 24.464844 22.871094 C 24.398438 22.921875 24.328125 22.960938 24.25 22.992188 L 24.890625 24.109375 L 24.871094 24.128906 C 24.640625 24.300781 24.382812 24.449219 24.117188 24.5625 C 23.320312 24.902344 22.441406 24.945312 21.597656 24.769531 C 21.558594 24.761719 21.515625 24.773438 21.488281 24.796875 C 20.652344 25.570312 19.625 26.195312 18.453125 26.207031 C 18.085938 26.210938 17.722656 26.15625 17.371094 26.046875 L 17.328125 26.035156 L 17.355469 26 C 17.894531 25.28125 18.4375 24.566406 18.976562 23.847656 C 18.902344 23.808594 18.839844 23.753906 18.78125 23.695312 C 18.21875 24.4375 17.65625 25.183594 17.097656 25.925781 L 17.082031 25.945312 L 17.058594 25.9375 C 16.507812 25.71875 16 25.386719 15.542969 25.007812 L 15.53125 24.996094 L 15.53125 24.984375 C 15.53125 23.339844 15.53125 21.691406 15.53125 20.050781 L 15.53125 20.019531 L 15.558594 20.019531 C 16.148438 19.960938 16.738281 19.90625 17.328125 19.851562 C 17.300781 19.773438 17.289062 19.691406 17.285156 19.605469 C 16.710938 19.660156 16.140625 19.714844 15.566406 19.769531 L 15.53125 19.773438 L 15.53125 19.738281 C 15.53125 19.136719 15.53125 18.542969 15.53125 17.945312 L 15.53125 17.859375 L 15.585938 17.925781 C 15.613281 17.953125 15.648438 17.96875 15.6875 17.964844 C 16.71875 17.90625 17.746094 17.847656 18.773438 17.785156 C 18.820312 17.78125 18.863281 17.746094 18.878906 17.703125 C 18.949219 17.519531 19.015625 17.335938 19.082031 17.152344 C 19.082031 17.132812 19.082031 17.113281 19.082031 17.09375 C 19.082031 16.875 19.164062 16.667969 19.316406 16.511719 C 19.328125 16.480469 19.339844 16.449219 19.351562 16.417969 L 19.382812 16.335938 L 19.410156 16.417969 C 19.410156 16.417969 19.410156 16.421875 19.414062 16.425781 C 19.480469 16.378906 19.554688 16.335938 19.632812 16.308594 C 19.59375 16.199219 19.554688 16.09375 19.515625 15.988281 L 19.511719 15.976562 L 19.515625 15.96875 C 19.628906 15.648438 19.746094 15.328125 19.863281 15.011719 L 19.867188 15.007812 L 19.867188 15.003906 C 20.386719 14.40625 20.902344 13.808594 21.417969 13.214844 L 21.4375 13.195312 L 21.457031 13.207031 C 21.480469 13.21875 21.503906 13.234375 21.53125 13.25 L 21.539062 13.253906 L 21.542969 13.261719 C 21.675781 13.582031 21.808594 13.898438 21.941406 14.21875 L 21.949219 14.234375 L 21.9375 14.25 C 21.390625 14.945312 20.839844 15.648438 20.289062 16.347656 C 20.367188 16.382812 20.433594 16.433594 20.496094 16.492188 C 21.058594 15.773438 21.625 15.050781 22.191406 14.332031 C 22.21875 14.296875 22.222656 14.242188 22.203125 14.203125 C 22.113281 13.980469 22.019531 13.761719 21.929688 13.542969 L 21.894531 13.457031 L 21.976562 13.507812 C 22.207031 13.640625 22.441406 13.777344 22.675781 13.910156 C 22.707031 13.835938 22.753906 13.761719 22.808594 13.699219 C 22.457031 13.496094 22.101562 13.292969 21.746094 13.085938 L 21.738281 13.078125 L 21.734375 13.070312 C 21.546875 12.628906 21.363281 12.183594 21.175781 11.742188 C 21.109375 11.785156 21.035156 11.824219 20.953125 11.851562 C 21.09375 12.191406 21.238281 12.535156 21.378906 12.875 L 21.394531 12.90625 L 21.363281 12.917969 C 21.34375 12.925781 21.324219 12.9375 21.3125 12.953125 L 21.3125 12.957031 C 20.761719 13.59375 20.210938 14.226562 19.664062 14.863281 C 19.652344 14.871094 19.644531 14.886719 19.640625 14.902344 C 19.5625 15.113281 19.484375 15.328125 19.40625 15.539062 L 19.378906 15.617188 L 19.347656 15.539062 C 19.078125 14.808594 18.804688 14.082031 18.535156 13.351562 L 18.527344 13.332031 L 18.542969 13.316406 C 19.074219 12.769531 19.605469 12.21875 20.136719 11.671875 C 20.074219 11.613281 20.023438 11.546875 19.980469 11.476562 C 19.421875 12.050781 18.863281 12.625 18.308594 13.199219 L 18.304688 13.203125 L 18.300781 13.203125 C 17.488281 13.722656 16.679688 14.242188 15.871094 14.765625 L 15.761719 14.832031 L 15.824219 14.722656 C 16.359375 13.78125 16.898438 12.835938 17.429688 11.890625 C 17.355469 11.855469 17.289062 11.804688 17.226562 11.746094 C 16.683594 12.710938 16.136719 13.671875 15.589844 14.632812 L 15.53125 14.738281 L 15.53125 14.621094 C 15.53125 13.566406 15.53125 12.511719 15.53125 11.457031 L 15.53125 11.429688 L 15.558594 11.425781 C 16.03125 11.375 16.503906 11.324219 16.976562 11.273438 C 16.96875 11.230469 16.964844 11.183594 16.964844 11.140625 C 16.964844 11.101562 16.96875 11.058594 16.976562 11.019531 C 16.664062 11.054688 16.355469 11.089844 16.042969 11.121094 L 15.914062 11.136719 L 16.023438 11.066406 C 16.746094 10.597656 17.46875 10.132812 18.1875 9.667969 L 18.1875 9.664062 C 18.21875 9.648438 18.242188 9.617188 18.25 9.582031 C 18.382812 8.964844 18.515625 8.34375 18.652344 7.726562 C 18.566406 7.71875 18.484375 7.695312 18.410156 7.664062 C 18.277344 8.261719 18.148438 8.867188 18.019531 9.46875 L 18.015625 9.480469 L 18.007812 9.488281 C 17.195312 10.011719 16.386719 10.535156 15.578125 11.058594 L 15.53125 11.089844 L 15.53125 11.03125 C 15.53125 9.292969 15.53125 7.554688 15.53125 5.816406 L 15.53125 5.769531 L 15.574219 5.785156 C 16.359375 6.085938 17.148438 6.382812 17.9375 6.679688 C 17.957031 6.597656 17.992188 6.523438 18.035156 6.449219 C 17.207031 6.136719 16.382812 5.824219 15.550781 5.511719 L 15.53125 5.503906 L 15.53125 5.480469 C 15.53125 5.085938 15.53125 4.6875 15.53125 4.292969 L 15.53125 4.28125 L 15.539062 4.273438 C 15.988281 3.652344 16.613281 3.246094 17.371094 3.109375 C 17.925781 3.007812 18.507812 3.066406 19.042969 3.246094 C 19.242188 3.316406 19.445312 3.402344 19.628906 3.507812 L 19.652344 3.519531 L 19.644531 3.542969 C 19.375 4.382812 19.101562 5.222656 18.832031 6.066406 C 18.917969 6.074219 19 6.097656 19.074219 6.128906 C 19.308594 5.394531 19.542969 4.660156 19.785156 3.925781 L 19.808594 3.839844 L 19.84375 3.925781 C 20.316406 5.191406 20.792969 6.457031 21.261719 7.722656 C 21.335938 7.679688 21.414062 7.652344 21.496094 7.632812 C 21.03125 6.386719 20.566406 5.144531 20.097656 3.90625 L 20.054688 3.789062 L 20.148438 3.871094 C 20.210938 3.929688 20.277344 3.988281 20.332031 4.054688 C 20.609375 4.347656 20.8125 4.730469 20.777344 5.140625 C 20.773438 5.210938 20.828125 5.269531 20.894531 5.277344 C 20.914062 5.277344 20.929688 5.273438 20.945312 5.269531 L 20.945312 5.265625 L 20.949219 5.265625 C 21.113281 5.222656 21.316406 5.25 21.480469 5.289062 C 21.925781 5.394531 22.363281 5.65625 22.707031 5.957031 L 22.726562 5.96875 L 22.714844 5.992188 C 22.710938 6 22.707031 6.007812 22.703125 6.015625 C 22.464844 6.566406 22.222656 7.113281 21.980469 7.664062 C 22.0625 7.695312 22.140625 7.738281 22.207031 7.796875 C 22.441406 7.261719 22.667969 6.730469 22.898438 6.199219 L 22.917969 6.152344 L 22.949219 6.1875 C 23.300781 6.5625 23.558594 7.011719 23.695312 7.507812 C 23.84375 8.050781 23.832031 8.613281 23.699219 9.160156 C 23.683594 9.226562 23.726562 9.292969 23.792969 9.308594 C 23.796875 9.308594 23.804688 9.3125 23.808594 9.3125 L 23.8125 9.3125 C 24.207031 9.386719 24.601562 9.492188 24.972656 9.652344 C 25.53125 9.894531 26.023438 10.257812 26.296875 10.820312 C 26.390625 11.007812 26.453125 11.210938 26.492188 11.421875 L 26.496094 11.457031 L 26.460938 11.457031 C 26.429688 11.460938 26.40625 11.46875 26.382812 11.488281 C 25.773438 12.035156 25.164062 12.582031 24.554688 13.132812 L 24.527344 13.15625 L 24.507812 13.125 C 23.730469 11.789062 22.949219 10.457031 22.175781 9.125 C 22.105469 9.171875 22.03125 9.210938 21.953125 9.238281 Z M 26.105469 19.277344 C 26.367188 18.898438 26.632812 18.523438 26.894531 18.144531 C 26.917969 18.105469 26.921875 18.054688 26.898438 18.011719 C 26.242188 16.617188 25.582031 15.230469 24.921875 13.835938 C 24.921875 13.832031 24.917969 13.828125 24.914062 13.820312 C 24.832031 13.679688 24.75 13.539062 24.667969 13.398438 L 24.65625 13.378906 L 24.675781 13.359375 C 25.273438 12.820312 25.875 12.28125 26.472656 11.742188 L 26.523438 11.695312 L 26.527344 11.761719 C 26.542969 12.058594 26.511719 12.359375 26.460938 12.652344 C 26.363281 13.183594 26.179688 13.710938 25.964844 14.203125 C 25.941406 14.261719 25.964844 14.332031 26.015625 14.363281 L 26.019531 14.363281 C 26.320312 14.558594 26.597656 14.796875 26.832031 15.070312 C 27.230469 15.527344 27.519531 16.085938 27.609375 16.691406 C 27.707031 17.351562 27.546875 17.984375 27.191406 18.542969 C 26.996094 18.847656 26.75 19.117188 26.476562 19.355469 L 26.472656 19.363281 L 26.457031 19.367188 C 26.382812 19.375 26.308594 19.378906 26.230469 19.382812 L 26.214844 19.386719 L 26.207031 19.375 C 26.1875 19.347656 26.15625 19.332031 26.125 19.328125 L 26.074219 19.320312 Z M 15.546875 15.269531 C 16.460938 14.683594 17.375 14.097656 18.289062 13.511719 L 18.320312 13.488281 L 18.335938 13.523438 C 18.636719 14.339844 18.9375 15.152344 19.242188 15.96875 L 19.246094 15.976562 L 19.242188 15.988281 C 19.058594 16.496094 18.871094 17.011719 18.683594 17.523438 L 18.679688 17.542969 L 18.65625 17.542969 C 17.664062 17.601562 16.667969 17.660156 15.675781 17.71875 C 15.636719 17.722656 15.609375 17.738281 15.585938 17.765625 L 15.53125 17.828125 L 15.53125 17.746094 C 15.53125 16.925781 15.53125 16.113281 15.53125 15.292969 L 15.53125 15.277344 Z M 26.5 19.613281 L 26.53125 19.609375 C 26.554688 19.605469 26.582031 19.597656 26.601562 19.578125 C 26.90625 19.316406 27.179688 19.015625 27.398438 18.675781 C 27.792969 18.066406 27.960938 17.378906 27.859375 16.65625 C 27.761719 16.003906 27.449219 15.402344 27.019531 14.90625 C 26.796875 14.648438 26.539062 14.417969 26.253906 14.222656 L 26.234375 14.207031 L 26.246094 14.183594 C 26.445312 13.707031 26.613281 13.207031 26.707031 12.695312 C 26.828125 12.035156 26.820312 11.324219 26.519531 10.710938 C 26.21875 10.09375 25.6875 9.691406 25.070312 9.421875 C 24.730469 9.273438 24.367188 9.171875 24 9.097656 L 23.972656 9.089844 L 23.976562 9.0625 C 24.085938 8.523438 24.078125 7.972656 23.933594 7.441406 C 23.761719 6.8125 23.40625 6.253906 22.925781 5.816406 C 22.542969 5.46875 22.042969 5.167969 21.539062 5.046875 C 21.386719 5.011719 21.21875 4.988281 21.0625 5 L 21.03125 5 L 21.03125 4.972656 C 21.003906 4.554688 20.792969 4.183594 20.519531 3.882812 C 20.328125 3.675781 20.109375 3.503906 19.867188 3.359375 C 19.867188 3.355469 19.867188 3.355469 19.863281 3.351562 L 19.859375 3.351562 C 19.625 3.210938 19.378906 3.097656 19.121094 3.011719 C 18.546875 2.820312 17.921875 2.757812 17.324219 2.863281 C 16.488281 3.015625 15.804688 3.46875 15.316406 4.15625 L 15.3125 4.160156 C 15.292969 4.183594 15.28125 4.214844 15.28125 4.242188 C 15.28125 4.691406 15.28125 5.140625 15.28125 5.589844 C 15.28125 7.5 15.28125 9.410156 15.28125 11.320312 C 15.28125 15.886719 15.28125 20.457031 15.28125 25.023438 L 15.28125 25.054688 C 15.28125 25.09375 15.296875 25.128906 15.328125 25.152344 C 15.847656 25.589844 16.433594 25.972656 17.074219 26.207031 L 17.074219 26.210938 C 17.082031 26.210938 17.085938 26.214844 17.089844 26.214844 C 17.53125 26.375 17.988281 26.460938 18.457031 26.457031 C 19.664062 26.445312 20.722656 25.824219 21.597656 25.035156 L 21.613281 25.027344 L 21.625 25.027344 C 22.496094 25.195312 23.394531 25.140625 24.214844 24.792969 C 24.800781 24.539062 25.3125 24.152344 25.707031 23.660156 C 26.105469 23.171875 26.371094 22.59375 26.5 21.976562 C 26.660156 21.207031 26.589844 20.40625 26.328125 19.667969 L 26.308594 19.628906 L 26.351562 19.625 C 26.402344 19.621094 26.453125 19.617188 26.5 19.613281 " fill-opacity="1" fill-rule="evenodd"/></g><g clip-path="url(#68dd030e03)"><path stroke-linecap="butt" transform="matrix(0.725806, 0, 0, 0.725806, 12.158912, 23.216822)" fill="none" stroke-linejoin="miter" d="M 9.350152 2.908906 L 1.95536 2.908906 C 1.56786 2.908906 1.196506 2.752829 0.927409 2.483732 C 0.65293 2.209253 0.502235 1.837899 0.502235 1.455781 L 0.502235 0.00265586 " stroke="#545454" stroke-width="1" stroke-opacity="1" stroke-miterlimit="4"/></g><path stroke-linecap="butt" transform="matrix(0.725806, 0, 0, 0.725806, 10.335112, 3.715371)" fill="none" stroke-linejoin="miter" d="M 12.132041 0.499795 L 10.878048 0.499795 C 10.549749 0.499795 10.232214 0.634343 9.995409 0.865767 C 9.758603 1.102573 9.629437 1.420107 9.629437 1.753788 L 9.629437 4.826878 C 9.629437 5.935559 8.730652 6.828961 7.627353 6.828961 L 0.916069 6.828961 C 0.80843 6.828961 0.700791 6.872017 0.620062 6.952746 C 0.544714 7.028093 0.501659 7.135732 0.501659 7.243371 L 0.501659 7.663163 " stroke="#545454" stroke-width="1" stroke-opacity="1" stroke-miterlimit="4"/><path stroke-linecap="butt" transform="matrix(0.725806, 0, 0, 0.725806, 11.908364, 12.546242)" fill="none" stroke-linejoin="miter" d="M 14.022434 3.509901 L 11.638233 3.509901 C 10.804032 3.509901 10.131289 2.837158 10.131289 2.002956 C 10.131289 1.174137 9.458545 0.501394 8.629726 0.501394 L 0.00246898 0.501394 " stroke="#545454" stroke-width="1" stroke-opacity="1" stroke-miterlimit="4"/><path stroke-linecap="butt" transform="matrix(0.725806, 0, 0, 0.725806, 9.698999, 16.162143)" fill="none" stroke-linejoin="miter" d="M 0.000303121 0.497783 L 1.474956 0.497783 C 2.293011 0.497783 2.954991 1.159762 2.954991 1.977818 L 2.954991 2.376082 C 2.954991 2.871221 3.148741 3.350214 3.503949 3.70004 C 3.853775 4.049867 4.332768 4.248998 4.827907 4.248998 L 13.91263 4.248998 C 14.41315 4.248998 14.897525 4.44813 15.252734 4.803339 C 15.607942 5.158547 15.807074 5.642922 15.807074 6.143443 L 15.807074 8.043269 " stroke="#545454" stroke-width="1" stroke-opacity="1" stroke-miterlimit="4"/><g clip-path="url(#9e5cc79d80)"><path fill="#545454" d="M 11.003906 5.179688 C 11.738281 5.3125 12.339844 5.714844 12.769531 6.316406 L 12.773438 6.320312 C 12.792969 6.339844 12.800781 6.367188 12.800781 6.394531 C 12.800781 6.785156 12.800781 7.183594 12.800781 7.578125 C 12.800781 9.261719 12.800781 10.9375 12.800781 12.621094 C 12.800781 16.636719 12.800781 20.660156 12.800781 24.679688 L 12.800781 24.707031 C 12.800781 24.738281 12.785156 24.769531 12.761719 24.789062 C 12.300781 25.175781 11.785156 25.511719 11.222656 25.71875 L 11.222656 25.722656 C 11.21875 25.722656 11.214844 25.726562 11.207031 25.726562 C 10.824219 25.867188 10.417969 25.941406 10.007812 25.9375 C 8.941406 25.925781 8.011719 25.382812 7.242188 24.691406 L 7.230469 24.679688 L 7.21875 24.679688 C 6.453125 24.832031 5.660156 24.78125 4.9375 24.472656 C 4.425781 24.253906 3.972656 23.914062 3.625 23.476562 C 3.277344 23.046875 3.042969 22.539062 2.929688 21.996094 C 2.789062 21.320312 2.847656 20.617188 3.082031 19.964844 L 3.097656 19.929688 L 3.058594 19.929688 C 3.015625 19.925781 2.972656 19.917969 2.929688 19.917969 L 2.902344 19.914062 C 2.878906 19.910156 2.855469 19.902344 2.839844 19.886719 C 2.570312 19.65625 2.332031 19.394531 2.136719 19.09375 C 1.792969 18.554688 1.640625 17.949219 1.734375 17.3125 C 1.816406 16.742188 2.09375 16.210938 2.472656 15.777344 C 2.667969 15.550781 2.894531 15.34375 3.144531 15.171875 L 3.164062 15.160156 L 3.152344 15.140625 C 2.976562 14.71875 2.832031 14.28125 2.746094 13.832031 C 2.640625 13.25 2.648438 12.625 2.910156 12.082031 C 3.175781 11.542969 3.644531 11.1875 4.1875 10.949219 C 4.488281 10.820312 4.804688 10.730469 5.128906 10.664062 L 5.15625 10.660156 L 5.148438 10.632812 C 5.054688 10.15625 5.058594 9.675781 5.1875 9.207031 C 5.339844 8.652344 5.652344 8.164062 6.074219 7.777344 C 6.410156 7.472656 6.851562 7.207031 7.292969 7.101562 C 7.429688 7.070312 7.574219 7.050781 7.714844 7.058594 L 7.742188 7.058594 L 7.742188 7.035156 C 7.765625 6.667969 7.949219 6.339844 8.191406 6.074219 C 8.359375 5.894531 8.554688 5.742188 8.765625 5.617188 C 8.765625 5.613281 8.765625 5.613281 8.769531 5.609375 L 8.773438 5.609375 C 8.976562 5.484375 9.195312 5.386719 9.421875 5.308594 C 9.925781 5.140625 10.476562 5.085938 11.003906 5.179688 Z M 21.453125 21.675781 C 21.75 21.675781 21.996094 21.917969 21.996094 22.21875 C 21.996094 22.519531 21.75 22.765625 21.453125 22.765625 C 21.152344 22.765625 20.910156 22.519531 20.910156 22.21875 C 20.910156 21.917969 21.152344 21.675781 21.453125 21.675781 Z M 16.308594 19.339844 C 16.609375 19.339844 16.851562 19.585938 16.851562 19.886719 C 16.851562 20.183594 16.609375 20.429688 16.308594 20.429688 C 16.007812 20.429688 15.765625 20.183594 15.765625 19.886719 C 15.765625 19.585938 16.007812 19.339844 16.308594 19.339844 Z M 17.429688 22.464844 C 17.730469 22.464844 17.972656 22.707031 17.972656 23.007812 C 17.972656 23.308594 17.730469 23.550781 17.429688 23.550781 C 17.128906 23.550781 16.886719 23.308594 16.886719 23.007812 C 16.886719 22.707031 17.128906 22.464844 17.429688 22.464844 Z M 21.304688 19.523438 C 21.605469 19.523438 21.851562 19.765625 21.851562 20.066406 C 21.851562 20.367188 21.605469 20.609375 21.304688 20.609375 C 21.007812 20.609375 20.761719 20.367188 20.761719 20.066406 C 20.761719 19.765625 21.007812 19.523438 21.304688 19.523438 Z M 20.988281 14.65625 C 21.289062 14.65625 21.53125 14.902344 21.53125 15.203125 C 21.53125 15.5 21.289062 15.746094 20.988281 15.746094 C 20.6875 15.746094 20.445312 15.5 20.445312 15.203125 C 20.445312 14.902344 20.6875 14.65625 20.988281 14.65625 Z M 17.890625 17.15625 C 18.191406 17.15625 18.433594 17.402344 18.433594 17.699219 C 18.433594 18 18.191406 18.242188 17.890625 18.242188 C 17.589844 18.242188 17.347656 18 17.347656 17.699219 C 17.347656 17.402344 17.589844 17.15625 17.890625 17.15625 Z M 16.03125 11.921875 C 16.332031 11.921875 16.574219 12.164062 16.574219 12.464844 C 16.574219 12.765625 16.332031 13.007812 16.03125 13.007812 C 15.730469 13.007812 15.488281 12.765625 15.488281 12.464844 C 15.488281 12.164062 15.730469 11.921875 16.03125 11.921875 Z M 18.578125 11.84375 C 18.878906 11.84375 19.125 12.085938 19.125 12.386719 C 19.125 12.683594 18.878906 12.929688 18.578125 12.929688 C 18.28125 12.929688 18.035156 12.683594 18.035156 12.386719 C 18.035156 12.085938 18.28125 11.84375 18.578125 11.84375 Z M 19.449219 9.546875 C 19.75 9.546875 19.988281 9.789062 19.988281 10.089844 C 19.988281 10.390625 19.75 10.636719 19.449219 10.636719 C 19.148438 10.636719 18.90625 10.390625 18.90625 10.089844 C 18.90625 9.789062 19.148438 9.546875 19.449219 9.546875 Z M 16.859375 8.1875 C 17.15625 8.1875 17.402344 8.429688 17.402344 8.730469 C 17.402344 9.03125 17.15625 9.269531 16.859375 9.269531 C 16.558594 9.269531 16.3125 9.03125 16.3125 8.730469 C 16.3125 8.429688 16.558594 8.1875 16.859375 8.1875 Z M 18.730469 9.917969 C 18.75 9.84375 18.777344 9.773438 18.820312 9.710938 C 18.394531 9.46875 17.976562 9.21875 17.550781 8.972656 C 17.527344 9.042969 17.496094 9.105469 17.453125 9.164062 C 17.878906 9.414062 18.304688 9.664062 18.730469 9.917969 Z M 16.765625 12.464844 C 17.125 12.445312 17.484375 12.425781 17.84375 12.410156 C 17.84375 12.402344 17.84375 12.394531 17.84375 12.386719 C 17.84375 12.320312 17.855469 12.253906 17.871094 12.1875 C 17.492188 12.207031 17.113281 12.226562 16.730469 12.246094 C 16.753906 12.316406 16.765625 12.390625 16.765625 12.464844 Z M 17.011719 22.402344 C 17.070312 22.359375 17.136719 22.328125 17.210938 22.304688 C 17.015625 21.71875 16.820312 21.132812 16.628906 20.546875 C 16.5625 20.578125 16.492188 20.601562 16.417969 20.613281 C 16.617188 21.210938 16.8125 21.804688 17.011719 22.402344 Z M 17.535156 18.34375 C 17.472656 18.308594 17.410156 18.265625 17.363281 18.210938 C 17.128906 18.554688 16.894531 18.898438 16.664062 19.242188 C 16.730469 19.277344 16.785156 19.324219 16.839844 19.375 C 17.070312 19.03125 17.304688 18.6875 17.535156 18.34375 Z M 20.777344 20.574219 C 20.722656 20.523438 20.679688 20.464844 20.648438 20.398438 C 19.75 21.09375 18.847656 21.789062 17.945312 22.484375 C 18 22.535156 18.042969 22.597656 18.078125 22.660156 C 18.976562 21.964844 19.875 21.273438 20.777344 20.574219 Z M 21.195312 19.339844 C 20.984375 18.800781 20.773438 18.265625 20.5625 17.730469 L 20.558594 17.722656 L 20.5625 17.714844 C 20.703125 17.121094 20.84375 16.527344 20.984375 15.9375 C 20.910156 15.9375 20.835938 15.925781 20.765625 15.902344 C 20.625 16.503906 20.484375 17.105469 20.339844 17.707031 C 20.335938 17.726562 20.335938 17.75 20.34375 17.769531 C 20.558594 18.316406 20.769531 18.859375 20.984375 19.40625 C 21.050781 19.375 21.121094 19.351562 21.195312 19.339844 Z M 18.519531 18.078125 C 18.480469 18.144531 18.433594 18.199219 18.378906 18.25 C 19.136719 18.738281 19.902344 19.222656 20.664062 19.710938 C 20.703125 19.644531 20.746094 19.585938 20.800781 19.535156 C 20.039062 19.050781 19.277344 18.566406 18.519531 18.078125 Z M 19.332031 10.816406 C 19.257812 10.804688 19.1875 10.78125 19.121094 10.75 C 18.984375 11.054688 18.851562 11.359375 18.71875 11.664062 C 18.792969 11.679688 18.863281 11.703125 18.929688 11.738281 C 19.058594 11.429688 19.195312 11.125 19.332031 10.816406 Z M 20.769531 22.4375 C 20.746094 22.367188 20.734375 22.292969 20.734375 22.21875 L 18.132812 22.796875 C 18.152344 22.863281 18.164062 22.9375 18.164062 23.007812 C 18.164062 23.007812 18.164062 23.011719 18.164062 23.015625 Z M 19.683594 10.789062 C 20.378906 11.980469 21.074219 13.175781 21.769531 14.367188 L 21.78125 14.386719 L 21.761719 14.402344 C 21.667969 14.484375 21.574219 14.570312 21.480469 14.65625 C 21.535156 14.703125 21.582031 14.761719 21.621094 14.824219 C 21.703125 14.75 21.785156 14.675781 21.867188 14.601562 L 21.894531 14.578125 L 21.910156 14.609375 C 21.972656 14.714844 22.035156 14.820312 22.097656 14.929688 C 22.667969 16.132812 23.238281 17.335938 23.808594 18.539062 L 23.8125 18.550781 L 23.804688 18.5625 C 23.527344 18.957031 23.253906 19.351562 22.980469 19.746094 L 22.972656 19.757812 L 22.960938 19.757812 C 22.640625 19.785156 22.320312 19.8125 22.003906 19.839844 C 22.027344 19.910156 22.039062 19.984375 22.039062 20.058594 C 22.277344 20.039062 22.515625 20.015625 22.75 19.996094 L 22.8125 19.992188 L 21.71875 21.554688 C 21.789062 21.582031 21.851562 21.621094 21.910156 21.667969 L 23.09375 19.96875 L 23.109375 19.964844 C 23.164062 19.960938 23.214844 19.957031 23.269531 19.953125 L 23.289062 19.953125 L 23.296875 19.96875 C 23.535156 20.601562 23.609375 21.289062 23.46875 21.953125 C 23.363281 22.460938 23.140625 22.9375 22.816406 23.339844 C 22.710938 23.476562 22.59375 23.597656 22.464844 23.714844 L 22.441406 23.738281 L 21.894531 22.785156 C 21.835938 22.832031 21.773438 22.863281 21.703125 22.890625 L 22.265625 23.875 L 22.25 23.890625 C 22.046875 24.042969 21.820312 24.171875 21.585938 24.273438 C 20.886719 24.570312 20.109375 24.609375 19.371094 24.453125 C 19.335938 24.449219 19.300781 24.457031 19.273438 24.480469 C 18.535156 25.160156 17.632812 25.707031 16.601562 25.71875 C 16.28125 25.722656 15.960938 25.675781 15.652344 25.578125 L 15.613281 25.566406 L 15.636719 25.535156 C 16.113281 24.90625 16.585938 24.273438 17.0625 23.644531 C 17 23.605469 16.941406 23.5625 16.894531 23.507812 C 16.398438 24.164062 15.902344 24.820312 15.410156 25.472656 L 15.394531 25.488281 L 15.375 25.480469 C 14.890625 25.289062 14.441406 24.996094 14.042969 24.664062 L 14.03125 24.65625 L 14.03125 24.644531 C 14.03125 23.195312 14.03125 21.746094 14.03125 20.300781 L 14.03125 20.277344 L 14.058594 20.273438 C 14.574219 20.226562 15.09375 20.175781 15.613281 20.125 C 15.589844 20.058594 15.578125 19.984375 15.574219 19.910156 C 15.070312 19.960938 14.566406 20.007812 14.0625 20.054688 L 14.03125 20.058594 L 14.03125 20.027344 C 14.03125 19.5 14.03125 18.976562 14.03125 18.449219 L 14.03125 18.375 L 14.082031 18.429688 C 14.101562 18.457031 14.136719 18.472656 14.167969 18.46875 C 15.078125 18.414062 15.980469 18.363281 16.882812 18.308594 C 16.925781 18.304688 16.964844 18.277344 16.980469 18.234375 C 17.039062 18.074219 17.097656 17.914062 17.15625 17.753906 C 17.15625 17.734375 17.15625 17.71875 17.15625 17.699219 C 17.15625 17.507812 17.230469 17.324219 17.363281 17.1875 C 17.375 17.160156 17.382812 17.132812 17.394531 17.105469 L 17.417969 17.035156 L 17.445312 17.105469 C 17.445312 17.105469 17.445312 17.109375 17.449219 17.113281 C 17.507812 17.070312 17.570312 17.03125 17.640625 17.007812 C 17.605469 16.914062 17.570312 16.820312 17.539062 16.726562 L 17.535156 16.71875 L 17.539062 16.710938 C 17.636719 16.429688 17.742188 16.148438 17.84375 15.871094 L 17.84375 15.863281 L 17.847656 15.859375 C 18.304688 15.335938 18.757812 14.808594 19.214844 14.285156 L 19.226562 14.269531 L 19.246094 14.28125 C 19.269531 14.292969 19.289062 14.304688 19.3125 14.316406 L 19.320312 14.320312 L 19.324219 14.328125 C 19.4375 14.613281 19.554688 14.890625 19.671875 15.167969 L 19.679688 15.183594 L 19.667969 15.199219 C 19.1875 15.8125 18.703125 16.429688 18.21875 17.042969 C 18.285156 17.074219 18.347656 17.117188 18.402344 17.171875 C 18.894531 16.539062 19.394531 15.902344 19.890625 15.269531 C 19.914062 15.238281 19.921875 15.191406 19.902344 15.15625 C 19.824219 14.960938 19.742188 14.769531 19.664062 14.578125 L 19.628906 14.5 L 19.703125 14.546875 C 19.90625 14.664062 20.109375 14.78125 20.316406 14.898438 C 20.347656 14.832031 20.386719 14.769531 20.4375 14.714844 C 20.125 14.535156 19.8125 14.355469 19.5 14.171875 L 19.492188 14.167969 L 19.488281 14.160156 C 19.324219 13.769531 19.164062 13.378906 19 12.992188 C 18.941406 13.03125 18.875 13.066406 18.804688 13.089844 C 18.929688 13.386719 19.054688 13.691406 19.179688 13.988281 L 19.191406 14.015625 L 19.164062 14.027344 C 19.148438 14.03125 19.128906 14.042969 19.117188 14.058594 L 19.117188 14.0625 C 18.632812 14.621094 18.152344 15.179688 17.667969 15.738281 C 17.660156 15.746094 17.652344 15.757812 17.648438 15.769531 C 17.578125 15.957031 17.511719 16.144531 17.441406 16.332031 L 17.417969 16.402344 L 17.390625 16.332031 C 17.152344 15.691406 16.914062 15.046875 16.675781 14.40625 L 16.667969 14.390625 L 16.683594 14.378906 C 17.148438 13.894531 17.617188 13.410156 18.085938 12.929688 C 18.03125 12.878906 17.984375 12.820312 17.945312 12.757812 C 17.453125 13.265625 16.964844 13.769531 16.476562 14.273438 L 16.472656 14.277344 L 16.46875 14.277344 C 15.753906 14.734375 15.042969 15.191406 14.332031 15.652344 L 14.234375 15.710938 L 14.289062 15.613281 C 14.761719 14.785156 15.234375 13.953125 15.703125 13.121094 C 15.636719 13.089844 15.578125 13.046875 15.523438 12.996094 C 15.042969 13.84375 14.5625 14.6875 14.082031 15.535156 L 14.03125 15.628906 L 14.03125 15.523438 C 14.03125 14.597656 14.03125 13.667969 14.03125 12.738281 L 14.03125 12.71875 L 14.058594 12.714844 C 14.472656 12.667969 14.890625 12.621094 15.304688 12.578125 C 15.296875 12.542969 15.296875 12.5 15.296875 12.464844 C 15.296875 12.429688 15.296875 12.390625 15.304688 12.355469 C 15.03125 12.386719 14.757812 12.417969 14.484375 12.445312 L 14.367188 12.457031 L 14.464844 12.398438 C 15.097656 11.984375 15.734375 11.574219 16.367188 11.164062 C 16.398438 11.148438 16.417969 11.121094 16.421875 11.089844 C 16.542969 10.546875 16.660156 10.003906 16.777344 9.457031 C 16.703125 9.449219 16.628906 9.433594 16.5625 9.402344 C 16.449219 9.929688 16.335938 10.460938 16.222656 10.988281 L 16.21875 11 L 16.210938 11.007812 C 15.496094 11.46875 14.785156 11.929688 14.074219 12.390625 L 14.03125 12.417969 L 14.03125 12.367188 C 14.03125 10.835938 14.03125 9.304688 14.03125 7.777344 L 14.03125 7.738281 L 14.070312 7.75 C 14.761719 8.011719 15.457031 8.273438 16.148438 8.539062 C 16.167969 8.464844 16.199219 8.398438 16.234375 8.335938 C 15.507812 8.058594 14.78125 7.785156 14.046875 7.507812 L 14.03125 7.503906 L 14.03125 7.484375 C 14.03125 7.136719 14.03125 6.785156 14.03125 6.4375 L 14.03125 6.425781 L 14.039062 6.417969 C 14.433594 5.875 14.984375 5.515625 15.648438 5.398438 C 16.136719 5.308594 16.652344 5.359375 17.121094 5.515625 C 17.296875 5.578125 17.472656 5.652344 17.636719 5.746094 L 17.660156 5.757812 L 17.648438 5.777344 C 17.414062 6.515625 17.175781 7.257812 16.9375 8 C 17.011719 8.003906 17.082031 8.023438 17.148438 8.054688 C 17.355469 7.40625 17.5625 6.761719 17.773438 6.113281 L 17.796875 6.039062 L 17.824219 6.113281 C 18.242188 7.226562 18.660156 8.339844 19.074219 9.457031 C 19.136719 9.417969 19.207031 9.390625 19.277344 9.375 C 18.871094 8.28125 18.460938 7.1875 18.050781 6.097656 L 18.011719 5.992188 L 18.097656 6.066406 C 18.152344 6.117188 18.207031 6.167969 18.257812 6.226562 C 18.5 6.484375 18.675781 6.820312 18.648438 7.183594 C 18.644531 7.246094 18.691406 7.296875 18.75 7.300781 C 18.765625 7.300781 18.78125 7.300781 18.796875 7.296875 L 18.796875 7.292969 C 18.945312 7.257812 19.121094 7.277344 19.269531 7.3125 C 19.660156 7.40625 20.042969 7.636719 20.347656 7.902344 L 20.363281 7.914062 L 20.351562 7.933594 C 20.351562 7.9375 20.347656 7.945312 20.34375 7.953125 C 20.132812 8.4375 19.921875 8.921875 19.707031 9.402344 C 19.78125 9.433594 19.847656 9.46875 19.90625 9.519531 C 20.109375 9.050781 20.3125 8.582031 20.515625 8.113281 L 20.53125 8.074219 L 20.558594 8.105469 C 20.867188 8.433594 21.097656 8.828125 21.214844 9.265625 C 21.347656 9.742188 21.335938 10.238281 21.21875 10.71875 C 21.203125 10.777344 21.242188 10.835938 21.304688 10.851562 C 21.304688 10.851562 21.3125 10.855469 21.3125 10.855469 L 21.316406 10.855469 C 21.664062 10.917969 22.015625 11.011719 22.339844 11.152344 C 22.832031 11.363281 23.261719 11.6875 23.503906 12.179688 C 23.585938 12.347656 23.644531 12.523438 23.675781 12.707031 L 23.679688 12.738281 L 23.648438 12.738281 C 23.625 12.742188 23.601562 12.75 23.578125 12.769531 C 23.042969 13.25 22.507812 13.730469 21.972656 14.214844 L 21.949219 14.238281 L 21.929688 14.207031 C 21.246094 13.035156 20.558594 11.863281 19.878906 10.6875 C 19.816406 10.730469 19.75 10.765625 19.683594 10.789062 Z M 23.335938 19.625 C 23.566406 19.289062 23.796875 18.957031 24.027344 18.625 C 24.050781 18.589844 24.054688 18.546875 24.035156 18.507812 C 23.457031 17.28125 22.875 16.058594 22.292969 14.832031 C 22.292969 14.828125 22.289062 14.828125 22.289062 14.820312 C 22.214844 14.699219 22.144531 14.574219 22.070312 14.449219 L 22.058594 14.429688 L 22.078125 14.414062 C 22.605469 13.941406 23.132812 13.464844 23.660156 12.992188 L 23.703125 12.949219 L 23.707031 13.007812 C 23.722656 13.269531 23.695312 13.535156 23.648438 13.789062 C 23.5625 14.261719 23.402344 14.722656 23.210938 15.15625 C 23.191406 15.210938 23.210938 15.269531 23.257812 15.296875 L 23.261719 15.300781 C 23.523438 15.46875 23.769531 15.679688 23.976562 15.917969 C 24.324219 16.320312 24.582031 16.8125 24.660156 17.347656 C 24.746094 17.925781 24.605469 18.484375 24.292969 18.976562 C 24.117188 19.242188 23.902344 19.480469 23.664062 19.691406 L 23.65625 19.699219 L 23.644531 19.699219 C 23.578125 19.707031 23.515625 19.710938 23.449219 19.714844 L 23.433594 19.71875 L 23.425781 19.707031 C 23.40625 19.683594 23.382812 19.667969 23.351562 19.667969 L 23.308594 19.660156 Z M 14.046875 16.09375 C 14.847656 15.578125 15.65625 15.0625 16.457031 14.546875 L 16.488281 14.527344 L 16.5 14.558594 C 16.765625 15.277344 17.03125 15.992188 17.296875 16.710938 L 17.300781 16.71875 L 17.296875 16.726562 C 17.132812 17.175781 16.96875 17.628906 16.804688 18.078125 L 16.800781 18.09375 L 16.78125 18.09375 C 15.910156 18.144531 15.03125 18.199219 14.15625 18.25 C 14.125 18.253906 14.101562 18.265625 14.082031 18.289062 L 14.03125 18.347656 L 14.03125 18.273438 C 14.03125 17.554688 14.03125 16.835938 14.03125 16.117188 L 14.03125 16.101562 Z M 23.683594 19.917969 L 23.710938 19.914062 C 23.734375 19.910156 23.753906 19.902344 23.773438 19.886719 C 24.039062 19.65625 24.28125 19.394531 24.476562 19.09375 C 24.820312 18.554688 24.96875 17.949219 24.878906 17.3125 C 24.792969 16.742188 24.519531 16.210938 24.140625 15.777344 C 23.945312 15.550781 23.71875 15.34375 23.46875 15.171875 L 23.449219 15.160156 L 23.457031 15.140625 C 23.632812 14.71875 23.78125 14.28125 23.863281 13.832031 C 23.972656 13.25 23.964844 12.625 23.699219 12.082031 C 23.4375 11.542969 22.96875 11.1875 22.425781 10.949219 C 22.125 10.820312 21.804688 10.730469 21.484375 10.664062 L 21.457031 10.660156 L 21.464844 10.632812 C 21.558594 10.15625 21.554688 9.675781 21.425781 9.207031 C 21.273438 8.652344 20.960938 8.164062 20.539062 7.777344 C 20.203125 7.472656 19.761719 7.207031 19.320312 7.101562 C 19.183594 7.070312 19.039062 7.050781 18.898438 7.058594 L 18.871094 7.058594 L 18.871094 7.035156 C 18.847656 6.667969 18.664062 6.339844 18.421875 6.074219 C 18.253906 5.894531 18.058594 5.742188 17.847656 5.617188 C 17.84375 5.613281 17.84375 5.613281 17.84375 5.609375 L 17.839844 5.609375 C 17.636719 5.484375 17.417969 5.386719 17.1875 5.308594 C 16.683594 5.140625 16.136719 5.085938 15.609375 5.179688 C 14.875 5.3125 14.273438 5.714844 13.839844 6.316406 L 13.839844 6.320312 C 13.820312 6.339844 13.8125 6.367188 13.8125 6.394531 C 13.8125 6.785156 13.8125 7.183594 13.8125 7.578125 C 13.8125 9.261719 13.8125 10.9375 13.8125 12.621094 C 13.8125 16.636719 13.8125 20.660156 13.8125 24.679688 L 13.8125 24.707031 C 13.8125 24.738281 13.828125 24.769531 13.851562 24.789062 C 14.308594 25.175781 14.824219 25.511719 15.390625 25.71875 L 15.390625 25.722656 C 15.394531 25.722656 15.398438 25.726562 15.40625 25.726562 C 15.789062 25.867188 16.191406 25.941406 16.605469 25.9375 C 17.671875 25.925781 18.601562 25.382812 19.371094 24.691406 L 19.382812 24.679688 L 19.394531 24.679688 C 20.160156 24.832031 20.953125 24.78125 21.675781 24.472656 C 22.1875 24.253906 22.640625 23.914062 22.988281 23.476562 C 23.335938 23.046875 23.570312 22.539062 23.683594 21.996094 C 23.824219 21.320312 23.765625 20.617188 23.53125 19.964844 L 23.515625 19.929688 L 23.554688 19.929688 C 23.597656 19.925781 23.640625 19.917969 23.683594 19.917969 " fill-opacity="1" fill-rule="evenodd"/></g></svg>